<svg id="Layer_1" data-name="Layer 1" xmlns="http://www.w3.org/2000/svg" width="270.24" height="88.67" viewBox="0 0 270.24 88.67"><title>FIFA logo - Brandlogos.net</title><polygon points="0 0 0 88.67 27.6 88.67 27.6 56.65 47.47 56.65 54.53 37.27 27.6 37.27 27.6 19.32 61.05 19.32 68.09 0 0 0" style="fill:#005792;fill-rule:evenodd"/><rect x="76.53" width="27.6" height="88.67" style="fill:#005792"/><polygon points="123.13 0 123.13 88.67 150.72 88.67 150.72 56.65 170.59 56.65 177.66 37.27 150.72 37.27 150.72 19.32 184.18 19.32 191.22 0 123.13 0" style="fill:#005792;fill-rule:evenodd"/><path d="M519.12,428.34H491.25l-3.61-11.91H456.45L453,428.34H425.83l32.31-88.67h28.7Zm-36-29-11-36.94-10.66,36.94Z" transform="translate(-248.88 -339.66)" style="fill:#005792;fill-rule:evenodd"/><path d="M502.12,349.37a4.69,4.69,0,0,1-1.89-.38,4.9,4.9,0,0,1-2.58-2.58,4.83,4.83,0,0,1,0-3.78,4.9,4.9,0,0,1,2.58-2.58,4.88,4.88,0,0,1,3.78,0,4.92,4.92,0,0,1,2.58,2.58,4.83,4.83,0,0,1,0,3.78A4.92,4.92,0,0,1,504,349a4.69,4.69,0,0,1-1.89.38m0-.94a3.51,3.51,0,0,0,2.6-1.1,3.91,3.91,0,0,0,.79-1.24,4.43,4.43,0,0,0,0-3.13,3.91,3.91,0,0,0-.79-1.24,3.52,3.52,0,0,0-1.16-.81,3.67,3.67,0,0,0-2.87,0,3.5,3.5,0,0,0-1.16.81,3.83,3.83,0,0,0-.79,1.24,4.37,4.37,0,0,0,0,3.13,3.83,3.83,0,0,0,.79,1.24,3.52,3.52,0,0,0,1.16.82,3.56,3.56,0,0,0,1.43.29m-1.87-6.69h2a2.59,2.59,0,0,1,1.51.37,1.43,1.43,0,0,1,.52,1.24,1.38,1.38,0,0,1-.38,1.06,1.77,1.77,0,0,1-1.07.42l1.48,2.41h-1l-1.43-2.37h-.62v2.37h-1Zm1,2.36h.9l.43,0A1.08,1.08,0,0,0,503,344a.65.65,0,0,0,.25-.24.93.93,0,0,0,.09-.44.68.68,0,0,0-.1-.39.71.71,0,0,0-.26-.23,1.19,1.19,0,0,0-.36-.11l-.4,0h-.91Z" transform="translate(-248.88 -339.66)" style="fill:#005792"/></svg>