<svg id="Layer_1" data-name="Layer 1" xmlns="http://www.w3.org/2000/svg" xmlns:xlink="http://www.w3.org/1999/xlink" viewBox="0 0 317.13 240.75"><defs><clipPath id="clip-path"><path d="M446.24,424.77c-1.44,3.66-2.69,7.34-3.82,11a19.18,19.18,0,0,1,3.82-11m10-54.81.16.36a6.65,6.65,0,0,0,.42.78c-.4.67-.81,1.35-1.21,2.06ZM449,365.75l.35,2.92q-2.29.15-4.58.36Zm-12.92-1-.92,5.4-1.55.22Zm8.19-.14-.06,4.47-2.13.21Zm10.49-.68.93.21a4.11,4.11,0,0,0-.3,1.54,10.35,10.35,0,0,0,.33,2.72q-2.39,0-4.78.18Zm.91-6.13a9.3,9.3,0,0,1,5,4.39c-.48,0-.95.06-1.38.11-1.13-1.53-2.34-3-3.59-4.5m14.06,4.46a6.89,6.89,0,0,0-.87-.14l4.26-5.13c1.88,1.09,3.6,2,5.19,2.79a75,75,0,0,0-6.87,3.57,2.63,2.63,0,0,0-1.71-1.09m6.57-8a54.16,54.16,0,0,0,9.46,2.5q-2.72,1-5.23,2.07a38,38,0,0,0-4.23-4.57m-5.09-2a83,83,0,0,0-3.89,9.81c-.68,0-1.43,0-2.2,0,.81-6.44,1.65-7.6,6.1-9.83m2.07-4.08q-.71,1.3-1.36,2.62a42.36,42.36,0,0,0-4.26,1.48,48.58,48.58,0,0,1,5.62-4.09m3.4-5.72q-1.23,1.9-2.35,3.84a29.66,29.66,0,0,0-4.24.42c2.08-1.42,4.24-2.84,6.59-4.26m5-6.82q-2.07,2.56-3.9,5.24a49.45,49.45,0,0,0-7.18,1.6,39.45,39.45,0,0,1,11.08-6.84m-44.85-29.47a42.48,42.48,0,0,1-4.87-7.13,16.93,16.93,0,0,0,1,4.36l1.92,9-4.51-4.46,2,5.88-2.77-1.28,6.78,7.05.11.54-5.24-2.29,6.23,7,.14.64-4.64-.94,5.69,5.85.09.4.2.52-2.76-.48,4.43,3.42a12.85,12.85,0,0,0,5.3,3.91c-1.49,1.36-4.33,1.65-7.12,2l-9.74-14.24,1.35,10.27-10.28-14.73.81,18.24,4.6.95-4.2,3.92,3.79,1.22-3.92,1.76,10.34,4.48-.44.91-10.64-.4.14,15.94,7.45-9.15L424,370.15l6.56-7.57-1.87,8.53q-4.09.66-8.19,1.4l-.41,29.25,5-8.11-1.56,16.41c3.84-6.82,6.56-15.09,8.59-24.25l1,7.8-.28.12a95.91,95.91,0,0,1-1.69,15.13,85.09,85.09,0,0,0,6.22-13.71,49.43,49.43,0,0,1-.68,10.13,56,56,0,0,0,4.53-10.4l-.34,7.63a55.93,55.93,0,0,0,5.34-13.84l.07,0,.09-.53.05-.19h0l1.1-6.65,1.49,5.46c-7,16.57-12.65,36.77-15.6,50.43a101.76,101.76,0,0,1,8-12.57,2.18,2.18,0,0,0,.62-.43,2.13,2.13,0,0,0,.6-1.14l.14-.18a56.36,56.36,0,0,0-3.45,27.42,130.36,130.36,0,0,0-.14,25.2,31.08,31.08,0,0,1,3.79-9.32,218.12,218.12,0,0,0,.61,23,30.51,30.51,0,0,1,3.38-7.09,66.81,66.81,0,0,1,1,12.9,24.32,24.32,0,0,0,1-9.32,81,81,0,0,1,14.55,14.86,73.26,73.26,0,0,0-3.92-12.9l6,8.78a79.5,79.5,0,0,0-4.94-13.31c3.35,2.74,5.68,5.4,8.53,8.11A76.77,76.77,0,0,0,464,475.27l4.33,4.46L460.08,462l11.43,12.09a109.54,109.54,0,0,0-14.41-28.64,61.92,61.92,0,0,1,14.41,17.16,110.34,110.34,0,0,0-6.63-17.36,42.35,42.35,0,0,1,7.38,11.55,159,159,0,0,0-11-29.55,192.84,192.84,0,0,1,11.3,18c-2.13-9.7-4.57-19.29-7.24-28.81,3,6.57,6,13.24,8.8,20.26A117.93,117.93,0,0,0,469.15,416c2.08,1.56,3.9,4.75,5.62,8.65a53.35,53.35,0,0,0-1.89-12.44l.18-1.12q11.92,37.81,23,75.78V456.37c-6-20.82-13.17-41-20.51-61l.52-3.29,7.65,22.9.34-24.79,3.79,32.49,2.84-23L494.83,421l.41-47.62-2.53-.93a40.52,40.52,0,0,1-3-6.77,50.91,50.91,0,0,0,6.63,8.92l.14-21.28q-4.63,1.3-8.84,2.77a18.82,18.82,0,0,1-5.81-4.79c8.93,2.66,13.27,2,14.34-1-4.71-.73-8.4-1.81-10.49-3.45a52.05,52.05,0,0,0,10.76.84,29,29,0,0,1-3.92-4.46l3.59,1.38-.07-23a84.76,84.76,0,0,0-14,13.54,60.43,60.43,0,0,0-10.31,2.52,62.43,62.43,0,0,1,12-7.3c-3.14-.28-6.55.82-10,2.16a74.13,74.13,0,0,1,15-7,66.5,66.5,0,0,0-16.31,2.43,198.11,198.11,0,0,1,20.43-7.63,45.41,45.41,0,0,0-10.76.07c3.19-1.79,7.2-2.76,11.1-3.85a42.09,42.09,0,0,0-11.43-.68,62.07,62.07,0,0,1,10.69-4.32,35.84,35.84,0,0,1-5.89.41,64.06,64.06,0,0,1,9.54-3.38c-4.92,0-11.41,1.12-18.4,2.63a79.87,79.87,0,0,1,17.8-7.16,21.85,21.85,0,0,0-9.54.54,19.28,19.28,0,0,1,5.75-4.8,20.59,20.59,0,0,0-5.55,1.76,42.11,42.11,0,0,1,10.42-7.23,11.92,11.92,0,0,0-7,1.69,29.65,29.65,0,0,1,6.16-5.2,29.91,29.91,0,0,0-9.47,4.93,8.73,8.73,0,0,1,1.35-2.3c-4.7,2.09-8.75,6.45-12.72,11.08a14.1,14.1,0,0,1,2.57-5.13q-5.28,3.58-8.39,12.29a12,12,0,0,1,1.08-5.27c-7.94,7.15-9.65,22.73-8.41,42.33l-1.07,1.74a31.41,31.41,0,0,0,.27-8.17,6,6,0,0,1-2.1,2c2.09-4.7,1.86-9.47,1.15-14.25a13.23,13.23,0,0,1-3.11,4.39,35.15,35.15,0,0,0,.61-15.81c-1.35,3.87-2.82,7.48-4.8,10,.64-4.08,5-13.45.41-22.76A19.79,19.79,0,0,1,449,316.21c.47-5.56,1.42-11.36,1.42-16.68a22.44,22.44,0,0,1-3.65,5.2,90.18,90.18,0,0,0,1.76-8.85c-2.54,2.63-4.34,6.28-5.89,10.27a74.54,74.54,0,0,1,2.5-15.47c-4.45,3.91-5.7,8.75-5.82,13.92a137,137,0,0,1-2.71-15.6c-2.52,3.67-2.51,9.35.2,17.16M279.51,375.59a108.3,108.3,0,0,0,2.15,10.63q-.95,2-1.88,4.06a123.6,123.6,0,0,0-.28-14.7m4.52-1.85,2,3.47q-1.23,2.49-2.43,5Zm.44-8.26.34,0-.35.22ZM305,363.12l1.93-.22,1.05,4.12Zm-40.27-3a20.21,20.21,0,0,0-2.17,6.11q-2.29.28-4.57.61a51.54,51.54,0,0,1,6.73-6.72m22.46-4.46-3.79,9q-3,.11-6.08.28a63.47,63.47,0,0,1,9.87-9.3m-13.53-1.76a123.92,123.92,0,0,1-4.86,11.67q-2.23.2-4.44.45a109.41,109.41,0,0,1,9.3-12.12m8.8,0a38.35,38.35,0,0,0-6.9,11.16q-2.78.17-5.54.41a75,75,0,0,1,12.44-11.56m38.4,4.71-1.52-5.53,3.16,5.71Zm12.68,1.45-6.63-9.81,15.46,10.82Zm16.38-13,15.7,16.65-23.15-2.65-6-9,11.3,8.65-9.61-12.63,13.74,11.21L349.27,353l7.78,6.62Zm-106.3-59.37c3.43,1.21,5.66,2.8,7,4.79-6.93-3.09-13.83-4.91-20.67-3.68a37,37,0,0,1,10.25,5.3c-10-3.52-18.22-3.23-25.17-.27L226.26,296a29.89,29.89,0,0,0-21.31,11.08l1,3.92a39,39,0,0,1,15.5-8.13c-1.87,2.74-6.28,4.84-10.27,7.27-1.68,1-2.6,2.45-4.34,3.47a63,63,0,0,0,22.65-9.14c-3.29,3.6-7.1,7.3-11.3,11.08a64.92,64.92,0,0,0,15.37-8.05,33.82,33.82,0,0,1-7.78,7c6.2-.27,12.47-7.46,18.81-8.51-3.45,4.35-9,6.5-12.59,11.62A39.25,39.25,0,0,1,246.76,312a21.81,21.81,0,0,0-7.31,5.47,59.29,59.29,0,0,1,8.59-3,14.07,14.07,0,0,1-3,4,12.89,12.89,0,0,0,4.87-1l-1.22,2.16A96.76,96.76,0,0,1,263.39,315a109,109,0,0,0-11.84,7.5,71.18,71.18,0,0,1,13.55-2.06,29.68,29.68,0,0,1-5.89,4.86,27.89,27.89,0,0,0,6-.23,25.45,25.45,0,0,1,6.44-.17,13.83,13.83,0,0,0-5.41,1.82c1.26.08,2.6.06,3.93,0,2.67,0,5.34-.08,7.44.7a6.81,6.81,0,0,0-2.91,3.31,27.87,27.87,0,0,1,7-1.55A30.11,30.11,0,0,1,277,332c2.92,1.16,6.44,1.27,10.62.27a22.85,22.85,0,0,1-6.12,3.57,67.38,67.38,0,0,0,10.08.68c-1.39,2.24-5.52,2.41-8.46,3.17-27-17.51-51.17-25.45-72.2-22.43l9.34,15.87,3.86-1.82a17.17,17.17,0,0,0-4.53,3.65l1.08,3a11.27,11.27,0,0,1,3.52-1,7.62,7.62,0,0,0-1.83,6.21,36,36,0,0,1,8.86-5.61,35.3,35.3,0,0,0-7.78,10.74,15.43,15.43,0,0,1,6.63-3.38c-2.7,2.14-3.35,5.09-2.3,8.71,1.87-3.27,3.93-6.24,6.7-8.11a44.62,44.62,0,0,0-4.8,11,74.65,74.65,0,0,1,13.53-13.64,91.84,91.84,0,0,0-7.65,17.29c7.35-6.24,14.54-13.08,21.89-19.32-5.31,6.62-10.22,14.15-15.93,19.86,5.25-2.86,10.51-7.54,15.76-12.56a54.62,54.62,0,0,1-12.82,14.66,61.49,61.49,0,0,0,15.09-9.59c-4.73,4.14-7.8,8.33-9.1,12.56,4.6-3.87,9.47-7.41,13.8-11.62A75.41,75.41,0,0,0,257.1,367a144.12,144.12,0,0,0-18.87,4.09l6.43.07-7.38,1.42,13.6,24.39a48.33,48.33,0,0,1,4-8.11,99.56,99.56,0,0,0-2.44,13.92,33.61,33.61,0,0,0,5.82-8.11,106.59,106.59,0,0,0-2.3,15.6c4.12-7.54,7.29-16.91,10.15-26.88a133.92,133.92,0,0,1-1.69,19.93,36,36,0,0,0,6.23-16.08c-.12,5.54-.56,11.08-1.22,16.62,4.46-4.85,5.6-14.33,5-26.21,1.76,4.72,2.19,11.3,3.51,16.75q-7.64,17.25-13.6,34.85l7.31,16.14c5.72-21.1,12.38-41.36,21.23-59.59l-1.41,8.12a80.6,80.6,0,0,1,8.73-10.6A151.84,151.84,0,0,0,289.73,400a34.68,34.68,0,0,1,4.8-4A41,41,0,0,0,291,408.22a30.77,30.77,0,0,1,5.35-6.62A160,160,0,0,1,291,421.32c3.49-6,7.07-11.88,11.1-17.5l-10.35,22.63,4.74-4.46-4.94,13.37L303,419.63l-11.84,21.21,5.62-7.23-6.29,13.85,7.24-8.51-4.4,14.59,8.12-11.21-8.05,18.58,2.3-2.36-2.44,8.65,3.72-5.27-.34,16.28L301.5,465,302,475.7l9.47-22.76-.27,7.36L318,444.22l-.81,4.46L321,434l3,3.71-1-17,5,9.59-6.16-26.68,6.56,5.2-5.89-13.64,4.19,2.7-9.88-15.2,4.33,1.62-12.06-15.74,1.1-4.32,6.16,12.16-.95-8.65L322.95,379l-1.08-10.81,8.73,20.53-.2-10.4,7.24,17.36-2-22,10.69,29.32-1.69-23.24,7.78,16.55,5.14-14.19-.68-3.11,2,2.16-5.41,14.52L368.22,364l-10.15-17,12.45,13.24,2.17-6.08-1.29-4.93,2.23,3.58,1.49-3-1.89-5.4,2.71,2.57,3.38-7.7c-24.2-12.9-31.76.27-47.63.41l-3.52-1.49,11-.14L338,336.28l6.09-.27-12.58-4.59,7.58.81,5-1.08-1.76-1.49,6,.95-9.2-5.4a99,99,0,0,1,13,2.43,62.72,62.72,0,0,0-9.07-5.81l14.07,1.76L349,319c4.83,1.22,9.79,3.06,14.48,3.65l-14.89-8A103.79,103.79,0,0,1,365.24,320a51.77,51.77,0,0,0-7.31-6.08,95.87,95.87,0,0,1,8.8,4.07,13.13,13.13,0,0,0-2.16-3c2.48,0,5,1,7.44,1.89a52.9,52.9,0,0,0-8.12-7.16,49,49,0,0,1,12.58,0,20.45,20.45,0,0,0-8.53-3.78,15.31,15.31,0,0,1,3.21-2.4c-4.43-.15-11,1.72-15.66,3.75a46.77,46.77,0,0,1,11.1-7.57c-5.34.6-11.37,3.42-17.05,5.13a24.53,24.53,0,0,1,7.85-6.75,35.86,35.86,0,0,0-10.29,3.38,27.67,27.67,0,0,1,2.3-5.34c-7.69,5.67-12.74,12.84-16.64,20.67a20.19,20.19,0,0,1,4.87-13.71c-4.86,2.58-8.31,7.65-11.1,13.92a37,37,0,0,1,.68-7c-7.33,7-10.49,15.66-10.69,25.4a21,21,0,0,1-3.11-4.59,31.85,31.85,0,0,0-.81,9.05,16.34,16.34,0,0,1-1.9-3A96.77,96.77,0,0,1,301,348.84l-19.22-40.39a71.72,71.72,0,0,0-9.74-9.86,5.71,5.71,0,0,1-.54,2.84c-2.69-5.41-6.36-10.53-16.66-13.68a16.22,16.22,0,0,1,4.6,7.5A18.45,18.45,0,0,0,244,287.71h-.39" style="fill:none"/></clipPath><linearGradient id="linear-gradient" x1="-114.74" y1="785.14" x2="-114.42" y2="785.14" gradientTransform="translate(315026.86 46342.04) rotate(90) scale(400.79)" gradientUnits="userSpaceOnUse"><stop offset="0" stop-color="#fff"/><stop offset="1"/></linearGradient><clipPath id="clip-path-2" transform="translate(-184.87 -277.09)"><path d="M335.49,288.62h63.24L301,491.1,203.21,288.62h63.24L301,358.79Zm90.77,0h64.21V506.31H426.26Zm-5.76-11.53H328.35L301,332.74l-27.38-55.65H184.87L301,517.55,366.42,382l48.31-100.06V517.84H502V277.09Z" style="fill:none"/></clipPath><linearGradient id="linear-gradient-2" x1="-114.65" y1="785.06" x2="-114.32" y2="785.06" gradientTransform="translate(584222.16 85293.29) rotate(90) scale(743.98)" gradientUnits="userSpaceOnUse"><stop offset="0" stop-color="#350054"/><stop offset="1" stop-color="#6d016d"/></linearGradient><clipPath id="clip-path-3" transform="translate(-184.87 -277.09)"><polygon points="331.92 282.86 300.97 345.77 270.02 282.86 194.04 282.86 240.69 379.48 300.97 504.32 361.24 379.48 407.9 282.86 331.92 282.86" style="fill:none"/></clipPath><linearGradient id="linear-gradient-3" x1="-114.69" y1="785.07" x2="-114.37" y2="785.07" gradientTransform="translate(-537167.68 -78265.34) rotate(-90) scale(684.38)" gradientUnits="userSpaceOnUse"><stop offset="0" stop-color="#e6953e"/><stop offset="0.5" stop-color="#ff4cb9"/><stop offset="1" stop-color="#2b60da"/></linearGradient><clipPath id="clip-path-4" transform="translate(-184.87 -277.09)"><rect x="420.5" y="282.86" width="75.74" height="229.22" style="fill:none"/></clipPath><linearGradient id="linear-gradient-4" x1="-114.68" y1="784.6" x2="-114.36" y2="784.6" gradientTransform="translate(-555500.63 -80998.34) rotate(-90) scale(708.35)" xlink:href="#linear-gradient-3"/><clipPath id="clip-path-5" transform="translate(-184.87 -277.09)"><path d="M446.24,424.77c-1.44,3.66-2.69,7.34-3.82,11a19.19,19.19,0,0,1,3.82-11m10-54.81.16.36a6.64,6.64,0,0,0,.42.78c-.4.67-.81,1.35-1.21,2.06ZM449,365.75l.35,2.92q-2.29.15-4.58.36Zm-12.92-1-.92,5.4-1.56.22Zm8.19-.14-.06,4.47-2.13.21Zm10.49-.68.93.21a4.12,4.12,0,0,0-.3,1.54,10.34,10.34,0,0,0,.33,2.72q-2.39,0-4.78.18Zm.91-6.13a9.29,9.29,0,0,1,5,4.39c-.48,0-.95.06-1.38.11-1.13-1.53-2.34-3-3.59-4.5m14.06,4.46a6.88,6.88,0,0,0-.87-.14l4.26-5.13c1.88,1.09,3.6,2,5.18,2.79a75.12,75.12,0,0,0-6.87,3.57,2.63,2.63,0,0,0-1.71-1.09m6.57-8a54.16,54.16,0,0,0,9.46,2.5q-2.72,1-5.23,2.07a38,38,0,0,0-4.23-4.57m-5.09-2a83.05,83.05,0,0,0-3.89,9.81c-.68,0-1.43,0-2.2,0,.81-6.44,1.65-7.6,6.1-9.83m2.07-4.08q-.7,1.3-1.36,2.62a42.36,42.36,0,0,0-4.26,1.48,48.61,48.61,0,0,1,5.62-4.09m3.4-5.72q-1.23,1.9-2.35,3.84a29.61,29.61,0,0,0-4.24.42c2.08-1.42,4.24-2.84,6.59-4.26m5-6.82q-2.07,2.56-3.9,5.24a49.4,49.4,0,0,0-7.18,1.6,39.44,39.44,0,0,1,11.08-6.84m-44.85-29.47a42.52,42.52,0,0,1-4.87-7.13,17,17,0,0,0,1,4.36l1.92,9-4.51-4.46,2,5.88-2.77-1.28,6.78,7.06.11.54-5.24-2.29,6.23,7,.14.64-4.64-.94,5.69,5.85.09.4.2.52-2.76-.48,4.43,3.42a12.84,12.84,0,0,0,5.3,3.91c-1.49,1.36-4.33,1.65-7.12,2l-9.74-14.24,1.35,10.27-10.28-14.73.81,18.24,4.6.95-4.19,3.92,3.79,1.22-3.92,1.76,10.34,4.48-.44.91-10.64-.4.14,15.94,7.45-9.15L424,370.15l6.56-7.57-1.87,8.53c-2.73.44-5.46.91-8.19,1.4l-.41,29.25,5-8.11-1.56,16.41c3.84-6.82,6.56-15.09,8.59-24.25l1,7.8-.28.12a95.91,95.91,0,0,1-1.69,15.13,85.17,85.17,0,0,0,6.23-13.71,49.45,49.45,0,0,1-.68,10.13,56,56,0,0,0,4.53-10.4l-.34,7.63a55.94,55.94,0,0,0,5.34-13.84l.07,0,.09-.53.05-.19h0l1.1-6.65,1.49,5.46c-7,16.57-12.65,36.77-15.6,50.43a101.73,101.73,0,0,1,8-12.57,2.19,2.19,0,0,0,.62-.43,2.13,2.13,0,0,0,.6-1.14l.14-.18a56.36,56.36,0,0,0-3.45,27.42,130.43,130.43,0,0,0-.14,25.2,31.08,31.08,0,0,1,3.79-9.32,218,218,0,0,0,.61,23,30.49,30.49,0,0,1,3.38-7.09,66.78,66.78,0,0,1,1,12.9,24.33,24.33,0,0,0,1-9.32,81,81,0,0,1,14.55,14.86,73.29,73.29,0,0,0-3.92-12.9l6,8.78a79.47,79.47,0,0,0-4.94-13.31c3.35,2.74,5.68,5.4,8.53,8.11A76.77,76.77,0,0,0,464,475.27l4.33,4.46L460.08,462l11.44,12.09a109.56,109.56,0,0,0-14.41-28.64,61.92,61.92,0,0,1,14.41,17.16,110.42,110.42,0,0,0-6.63-17.36,42.37,42.37,0,0,1,7.38,11.55,159,159,0,0,0-11-29.55,192.77,192.77,0,0,1,11.3,18c-2.13-9.7-4.57-19.29-7.24-28.81,3,6.57,6,13.24,8.8,20.26A117.91,117.91,0,0,0,469.15,416c2.08,1.56,3.9,4.75,5.62,8.65a53.37,53.37,0,0,0-1.89-12.44l.18-1.12q11.92,37.81,23,75.78V456.37c-6-20.82-13.17-41-20.51-61l.52-3.29,7.65,22.9.34-24.79,3.79,32.49,2.84-23L494.83,421l.41-47.62-2.53-.93a40.51,40.51,0,0,1-3-6.77,50.92,50.92,0,0,0,6.63,8.92l.13-21.28q-4.63,1.3-8.84,2.77a18.82,18.82,0,0,1-5.81-4.79c8.93,2.66,13.27,2,14.34-1-4.71-.73-8.4-1.81-10.49-3.45a52.05,52.05,0,0,0,10.76.84,29,29,0,0,1-3.92-4.46l3.59,1.38-.07-23a84.75,84.75,0,0,0-14,13.54,60.42,60.42,0,0,0-10.31,2.52,62.4,62.4,0,0,1,12-7.3c-3.14-.28-6.55.82-10,2.16a74.13,74.13,0,0,1,15-7,66.52,66.52,0,0,0-16.31,2.43,198.09,198.09,0,0,1,20.43-7.63,45.39,45.39,0,0,0-10.76.07c3.19-1.79,7.2-2.76,11.1-3.85a42.09,42.09,0,0,0-11.44-.68,62.1,62.1,0,0,1,10.69-4.32,35.83,35.83,0,0,1-5.89.41,64.09,64.09,0,0,1,9.54-3.38c-4.92,0-11.41,1.12-18.4,2.63a79.87,79.87,0,0,1,17.8-7.16,21.85,21.85,0,0,0-9.54.54,19.28,19.28,0,0,1,5.75-4.8,20.59,20.59,0,0,0-5.55,1.76,42.11,42.11,0,0,1,10.42-7.23,11.92,11.92,0,0,0-7,1.69,29.65,29.65,0,0,1,6.16-5.2,29.92,29.92,0,0,0-9.47,4.93,8.75,8.75,0,0,1,1.35-2.3c-4.7,2.09-8.75,6.45-12.72,11.08a14.11,14.11,0,0,1,2.57-5.13q-5.28,3.58-8.39,12.29a12,12,0,0,1,1.08-5.27c-7.94,7.15-9.65,22.73-8.41,42.33l-1.07,1.74a31.42,31.42,0,0,0,.27-8.17,6.05,6.05,0,0,1-2.1,2c2.09-4.7,1.86-9.47,1.15-14.25a13.24,13.24,0,0,1-3.11,4.39,35.16,35.16,0,0,0,.61-15.81c-1.35,3.87-2.82,7.48-4.8,10,.64-4.08,5-13.45.41-22.76A19.79,19.79,0,0,1,449,316.21c.47-5.56,1.42-11.36,1.42-16.68a22.46,22.46,0,0,1-3.65,5.2,90.18,90.18,0,0,0,1.76-8.85c-2.54,2.63-4.34,6.28-5.89,10.27a74.56,74.56,0,0,1,2.5-15.47c-4.45,3.91-5.7,8.75-5.82,13.92a137.11,137.11,0,0,1-2.71-15.6c-2.52,3.67-2.51,9.35.2,17.16M279.51,375.59a108.4,108.4,0,0,0,2.15,10.63q-.95,2-1.88,4.06a123.6,123.6,0,0,0-.28-14.7m4.52-1.85,2,3.47q-1.23,2.49-2.43,5Zm.44-8.26.34,0-.35.22ZM305,363.12l1.93-.22,1.05,4.12Zm-40.27-3a20.21,20.21,0,0,0-2.17,6.11q-2.29.28-4.57.61a51.54,51.54,0,0,1,6.74-6.72m22.46-4.46-3.79,9q-3,.11-6.08.28a63.47,63.47,0,0,1,9.87-9.3m-13.53-1.76a124,124,0,0,1-4.86,11.67q-2.23.2-4.44.45a109.41,109.41,0,0,1,9.3-12.12m8.8,0a38.36,38.36,0,0,0-6.9,11.16q-2.78.17-5.54.41a75,75,0,0,1,12.44-11.57m38.4,4.71-1.52-5.53,3.16,5.71Zm12.68,1.45-6.63-9.81,15.46,10.82Zm16.38-13,15.7,16.65-23.15-2.65-6-9,11.3,8.65-9.61-12.63,13.74,11.21L349.27,353l7.78,6.62Zm-106.3-59.37c3.43,1.21,5.66,2.8,7,4.79-6.93-3.09-13.83-4.91-20.67-3.68a37,37,0,0,1,10.25,5.3c-10-3.52-18.22-3.23-25.17-.27L226.26,296a29.89,29.89,0,0,0-21.31,11.08l1,3.92a39,39,0,0,1,15.5-8.13c-1.87,2.74-6.28,4.84-10.27,7.27-1.68,1-2.6,2.45-4.34,3.47a63,63,0,0,0,22.65-9.14c-3.29,3.6-7.1,7.3-11.3,11.08a64.93,64.93,0,0,0,15.37-8.05,33.82,33.82,0,0,1-7.78,7c6.2-.27,12.47-7.46,18.81-8.51-3.45,4.35-9,6.5-12.58,11.62A39.25,39.25,0,0,1,246.76,312a21.82,21.82,0,0,0-7.31,5.47,59.25,59.25,0,0,1,8.59-3,14.07,14.07,0,0,1-3,4,12.89,12.89,0,0,0,4.87-1l-1.22,2.16A96.73,96.73,0,0,1,263.39,315a109,109,0,0,0-11.84,7.5,71.18,71.18,0,0,1,13.55-2.06,29.69,29.69,0,0,1-5.89,4.86,27.88,27.88,0,0,0,6-.23,25.45,25.45,0,0,1,6.44-.17,13.83,13.83,0,0,0-5.41,1.82c1.26.08,2.6.06,3.93,0,2.67,0,5.34-.08,7.44.7a6.81,6.81,0,0,0-2.91,3.31,27.88,27.88,0,0,1,7-1.55A30.1,30.1,0,0,1,277,332c2.92,1.16,6.44,1.27,10.62.27a22.85,22.85,0,0,1-6.12,3.57,67.43,67.43,0,0,0,10.08.68c-1.39,2.24-5.52,2.41-8.46,3.17-27-17.51-51.17-25.45-72.2-22.43l9.34,15.87,3.86-1.82a17.16,17.16,0,0,0-4.53,3.65l1.08,3a11.26,11.26,0,0,1,3.52-1,7.62,7.62,0,0,0-1.83,6.21,36,36,0,0,1,8.86-5.61,35.3,35.3,0,0,0-7.78,10.74,15.43,15.43,0,0,1,6.63-3.38c-2.7,2.14-3.35,5.09-2.3,8.71,1.87-3.27,3.93-6.24,6.7-8.11a44.61,44.61,0,0,0-4.8,11,74.66,74.66,0,0,1,13.53-13.64,91.84,91.84,0,0,0-7.65,17.29c7.35-6.24,14.54-13.08,21.89-19.32-5.31,6.62-10.22,14.15-15.93,19.86,5.25-2.86,10.51-7.54,15.76-12.56a54.62,54.62,0,0,1-12.82,14.66,61.5,61.5,0,0,0,15.09-9.59c-4.73,4.14-7.8,8.33-9.1,12.56,4.6-3.87,9.47-7.41,13.8-11.62A75.43,75.43,0,0,0,257.1,367a144.13,144.13,0,0,0-18.87,4.09l6.43.07-7.38,1.42,13.6,24.39a48.33,48.33,0,0,1,4-8.11,99.57,99.57,0,0,0-2.44,13.91,33.6,33.6,0,0,0,5.82-8.11,106.65,106.65,0,0,0-2.3,15.6c4.12-7.54,7.29-16.91,10.15-26.88a133.92,133.92,0,0,1-1.69,19.93,36,36,0,0,0,6.23-16.08c-.12,5.54-.56,11.08-1.22,16.62,4.46-4.85,5.6-14.33,5-26.21,1.76,4.72,2.19,11.31,3.51,16.75q-7.64,17.25-13.6,34.85l7.31,16.14c5.72-21.1,12.38-41.36,21.23-59.59l-1.41,8.12a80.58,80.58,0,0,1,8.73-10.61A151.92,151.92,0,0,0,289.73,400a34.7,34.7,0,0,1,4.8-4A41,41,0,0,0,291,408.22a30.77,30.77,0,0,1,5.35-6.62A160,160,0,0,1,291,421.32c3.49-6,7.07-11.88,11.1-17.5l-10.35,22.63,4.74-4.46-4.94,13.37L303,419.63l-11.84,21.21,5.62-7.23-6.29,13.85,7.24-8.51-4.4,14.59,8.12-11.21-8.05,18.58,2.3-2.36-2.44,8.65,3.72-5.27-.34,16.28L301.5,465,302,475.7l9.47-22.76-.27,7.36L318,444.22l-.81,4.46L321,434l3,3.71-1-17,5,9.59-6.16-26.68,6.56,5.2-5.89-13.64,4.2,2.7-9.88-15.2,4.33,1.62-12.06-15.74,1.1-4.32,6.16,12.16-.95-8.65L322.95,379l-1.08-10.81,8.73,20.53-.2-10.4,7.24,17.36-2-22,10.69,29.32-1.69-23.24,7.78,16.55,5.14-14.19-.68-3.11,2,2.16-5.41,14.52L368.22,364l-10.15-17,12.45,13.24,2.17-6.08-1.29-4.93,2.23,3.58,1.49-3-1.89-5.4,2.71,2.57,3.38-7.7c-24.2-12.9-31.76.27-47.63.41l-3.52-1.49,11-.14L338,336.28l6.09-.27-12.58-4.59,7.58.81,5-1.08-1.76-1.49,6,.95-9.2-5.4a99.05,99.05,0,0,1,13,2.43,62.71,62.71,0,0,0-9.07-5.81l14.07,1.76L349,319c4.83,1.22,9.79,3.06,14.48,3.65l-14.89-8A103.78,103.78,0,0,1,365.24,320a51.78,51.78,0,0,0-7.31-6.08,95.75,95.75,0,0,1,8.8,4.07,13.14,13.14,0,0,0-2.17-3c2.48,0,5,1,7.44,1.89a52.91,52.91,0,0,0-8.12-7.16,49,49,0,0,1,12.59,0,20.45,20.45,0,0,0-8.53-3.78,15.3,15.3,0,0,1,3.21-2.4c-4.43-.15-11,1.72-15.66,3.75a46.77,46.77,0,0,1,11.1-7.57c-5.34.6-11.37,3.42-17.05,5.13a24.53,24.53,0,0,1,7.85-6.75,35.86,35.86,0,0,0-10.28,3.38,27.62,27.62,0,0,1,2.3-5.34c-7.69,5.67-12.74,12.84-16.64,20.67a20.19,20.19,0,0,1,4.87-13.71c-4.86,2.58-8.31,7.65-11.1,13.92a37,37,0,0,1,.68-7c-7.33,7-10.49,15.66-10.69,25.4a21,21,0,0,1-3.11-4.59,31.85,31.85,0,0,0-.81,9.05,16.32,16.32,0,0,1-1.89-3A96.77,96.77,0,0,1,301,348.84l-19.22-40.39a71.72,71.72,0,0,0-9.74-9.86,5.71,5.71,0,0,1-.54,2.84c-2.69-5.41-6.36-10.53-16.66-13.68a16.21,16.21,0,0,1,4.6,7.5A18.45,18.45,0,0,0,244,287.71h-.39" style="fill:none"/></clipPath><mask id="mask" x="20.08" y="10.5" width="291.66" height="212.94" maskUnits="userSpaceOnUse"><g transform="translate(-184.87 -277.09)"><rect x="204.95" y="287.59" width="291.66" height="212.94"/><g style="isolation:isolate"><g style="clip-path:url(#clip-path)"><rect x="204.95" y="287.59" width="291.66" height="212.94" style="fill:url(#linear-gradient)"/></g></g></g></mask><clipPath id="clip-path-6" transform="translate(-184.87 -277.09)"><rect x="204.95" y="287.59" width="291.66" height="212.94" style="fill:none"/></clipPath><linearGradient id="linear-gradient-5" x1="-114.63" y1="785.09" x2="-114.31" y2="785.09" gradientTransform="translate(516770.55 75440.98) rotate(90) scale(658.02)" gradientUnits="userSpaceOnUse"><stop offset="0" stop-color="#2e49bf"/><stop offset="0.49" stop-color="#c045b6"/><stop offset="1" stop-color="#df7b4d"/></linearGradient><clipPath id="clip-path-8" transform="translate(-184.87 -277.09)"><path d="M333,284.66h72L301,500.19,196.9,284.66h72L301,349.84Zm-2.23-3.6L301,341.7l-29.83-60.64h-80L301,508.45l61.89-128.19,47.9-99.21Z" style="fill:none"/></clipPath><linearGradient id="linear-gradient-6" x1="-114.64" y1="784.93" x2="-114.31" y2="784.93" gradientTransform="translate(551701.1 80560.53) rotate(90) scale(702.72)" gradientUnits="userSpaceOnUse"><stop offset="0" stop-color="#ffbc24"/><stop offset="0.29" stop-color="#ff49b9"/><stop offset="0.75" stop-color="#bc0082"/><stop offset="0.94" stop-color="#8b0179"/><stop offset="1" stop-color="#6d016d"/></linearGradient><clipPath id="clip-path-9" transform="translate(-184.87 -277.09)"><path d="M422.3,284.66h72.13V510.28H422.3Zm-1.8-3.6h-1.8V513.88H498V281.05Z" style="fill:none"/></clipPath><linearGradient id="linear-gradient-7" x1="-114.64" y1="785.39" x2="-114.32" y2="785.39" gradientTransform="translate(565350.58 82488.88) rotate(90) scale(719.48)" xlink:href="#linear-gradient-6"/></defs><title>Grand Theft Auto VI logo - Brandlogos.net</title><g style="clip-path:url(#clip-path-2)"><rect width="317.13" height="240.75" style="fill:url(#linear-gradient-2)"/></g><g style="clip-path:url(#clip-path-3)"><rect x="9.17" y="5.76" width="213.86" height="221.47" style="fill:url(#linear-gradient-3)"/></g><g style="clip-path:url(#clip-path-4)"><rect x="235.63" y="5.76" width="75.74" height="229.22" style="fill:url(#linear-gradient-4)"/></g><g style="clip-path:url(#clip-path-5)"><g style="mask:url(#mask)"><g style="clip-path:url(#clip-path-6)"><g style="clip-path:url(#clip-path-6)"><rect x="20.08" y="10.5" width="291.66" height="212.94" style="fill:url(#linear-gradient-5)"/></g></g></g></g><g style="clip-path:url(#clip-path-8)"><rect x="6.3" y="3.96" width="219.59" height="227.4" style="fill:url(#linear-gradient-6)"/></g><g style="clip-path:url(#clip-path-9)"><rect x="233.83" y="3.96" width="79.34" height="232.83" style="fill:url(#linear-gradient-7)"/></g><path d="M479.1,410.19v.13a7.88,7.88,0,0,1-3,6.47,11,11,0,0,1-7,2H451.8q-10.17,0-10.17-8.63v-10H425.88v16.49a11.19,11.19,0,0,1,6.94,2.06,8,8,0,0,1,3,6.66v34.29a7.88,7.88,0,0,1-3,6.61,11.44,11.44,0,0,1-7.17,2H408.44a11.44,11.44,0,0,1-7.17-2,7.78,7.78,0,0,1-1.41-1.4,7.72,7.72,0,0,1-1.43,1.44,11.25,11.25,0,0,1-7.17,2H374.07a11.44,11.44,0,0,1-7.17-2,7.41,7.41,0,0,1-2.55-3.53,7.41,7.41,0,0,1-2.55,3.53,11.44,11.44,0,0,1-7.17,2H303.09a11.44,11.44,0,0,1-7.17-2,7.88,7.88,0,0,1-3-6.61V425.42a8,8,0,0,1,3-6.66,11.36,11.36,0,0,1,7.2-2.06h2.14q-2.6-2.16-2.6-6.52V389.56h-3.41V375.65a15.7,15.7,0,0,1-3.43.35H268.49V320.74a8,8,0,0,1,3-6.65,11.33,11.33,0,0,1,7.18-2.06h51.41a11.33,11.33,0,0,1,7.18,2.06,7.75,7.75,0,0,1,1.38,1.4,7.76,7.76,0,0,1,1.38-1.4A11.34,11.34,0,0,1,347.2,312h51.41a10.83,10.83,0,0,1,3.3.51,12.24,12.24,0,0,1,3,1.47l.05,0a9.74,9.74,0,0,1,1.95,1.73,7.64,7.64,0,0,1,1.55-1.65,11.16,11.16,0,0,1,7-2.08c.65,0-.17,0,.31,0h6.88V300.57h20.43v62.19H415.75a11.87,11.87,0,0,1-7-1.82v1.82H357.37v4.43h6.84a11.33,11.33,0,0,1,7.18,2.06,7.76,7.76,0,0,1,1.38,1.4,7.77,7.77,0,0,1,1.38-1.4,11.33,11.33,0,0,1,7.18-2.06h17.14a11.34,11.34,0,0,1,7.18,2.06,7.76,7.76,0,0,1,1.4,1.42,7.79,7.79,0,0,1,1.37-1.37,11.52,11.52,0,0,1,7.14-2.09h46.47v3.91h17.05v39.09Z" transform="translate(-184.87 -277.09)" style="fill:#1d0030;fill-rule:evenodd"/><path d="M479.75,410.46a9.67,9.67,0,0,1-.82,3.84,8,8,0,0,1-2.39,3,9.47,9.47,0,0,1-3.25,1.62,14.9,14.9,0,0,1-4.13.53h-.27a124,124,0,0,1-13.11,0h-4q-10.83,0-10.82-9.28v-9.32H426.53v15.21a14.5,14.5,0,0,1,3.46.55,9.58,9.58,0,0,1,3.23,1.63,8.12,8.12,0,0,1,2.44,3.09,9.88,9.88,0,0,1,.81,4.09v34.29a9.68,9.68,0,0,1-.82,4.06,8.09,8.09,0,0,1-2.46,3.07,9.68,9.68,0,0,1-3.33,1.63,15.58,15.58,0,0,1-4.24.53H408.44a15.58,15.58,0,0,1-4.24-.53,9.68,9.68,0,0,1-3.33-1.63,8.77,8.77,0,0,1-.82-.72l-.19-.19-.2.21a8.74,8.74,0,0,1-.84.74,9.48,9.48,0,0,1-3.33,1.62,14.78,14.78,0,0,1-3.59.49v0H374.07a15.58,15.58,0,0,1-4.24-.53,9.68,9.68,0,0,1-3.33-1.63,8.35,8.35,0,0,1-1.68-1.72,7.83,7.83,0,0,1-.47-.73,7.93,7.93,0,0,1-.47.73,8.34,8.34,0,0,1-1.68,1.72,9.68,9.68,0,0,1-3.33,1.63,15.58,15.58,0,0,1-4.24.53H303.09a15.58,15.58,0,0,1-4.24-.53,9.67,9.67,0,0,1-3.33-1.63,8.09,8.09,0,0,1-2.46-3.07,9.69,9.69,0,0,1-.82-4.06V425.42a9.87,9.87,0,0,1,.81-4.09,8.11,8.11,0,0,1,2.44-3.09,9.62,9.62,0,0,1,3.34-1.66,15.47,15.47,0,0,1,4.26-.54h.62a7.52,7.52,0,0,1-1-1.82,10.88,10.88,0,0,1-.7-4v-20h-3.41V376.44l-.92.12a18.5,18.5,0,0,1-1.86.09h-28V320.74a9.86,9.86,0,0,1,.81-4.08,8.11,8.11,0,0,1,2.43-3.08,9.61,9.61,0,0,1,3.33-1.66,15.44,15.44,0,0,1,4.26-.54h51.41a12,12,0,0,1,7.59,2.2,8.75,8.75,0,0,1,.8.72l.18.18.18-.18a8.67,8.67,0,0,1,.8-.72,9.61,9.61,0,0,1,3.33-1.66,15.43,15.43,0,0,1,4.26-.54h51.41a11.49,11.49,0,0,1,3.49.54,11.87,11.87,0,0,1,1.61.65,14,14,0,0,1,1.55.89l.07,0,0,0a11.27,11.27,0,0,1,1.13.87h0l.41.38.27-.31a8.59,8.59,0,0,1,.91-.84A9.41,9.41,0,0,1,411.3,312a15.27,15.27,0,0,1,4.14-.58h0l.28,0H422V299.92h21.73v63.49h-28a16.19,16.19,0,0,1-4.1-.48,10.61,10.61,0,0,1-2.22-.84v1.32H358v3.12h6.19a15.45,15.45,0,0,1,4.26.54,9.61,9.61,0,0,1,3.33,1.66,8.71,8.71,0,0,1,.8.72l.18.18.18-.18a8.72,8.72,0,0,1,.8-.72,9.61,9.61,0,0,1,3.33-1.66,15.45,15.45,0,0,1,4.26-.54h17.14a15.45,15.45,0,0,1,4.26.54,9.61,9.61,0,0,1,3.33,1.66,8.83,8.83,0,0,1,.82.73l.19.19.17-.17a8.85,8.85,0,0,1,.8-.71,9.67,9.67,0,0,1,3.3-1.65,15.68,15.68,0,0,1,4.14-.57h47.24v3.91h17.05v40ZM364.36,462.79a7.41,7.41,0,0,1-2.55,3.53,11.44,11.44,0,0,1-7.17,2H303.09a11.44,11.44,0,0,1-7.17-2,7.88,7.88,0,0,1-3-6.61V425.42a8,8,0,0,1,3-6.66,11.36,11.36,0,0,1,7.2-2.06h2.14q-2.6-2.16-2.6-6.52V389.56h-3.41V375.65a15.7,15.7,0,0,1-3.43.35H268.49V320.74a8,8,0,0,1,3-6.65,11.33,11.33,0,0,1,7.18-2.06h51.41a11.34,11.34,0,0,1,7.18,2.06,7.76,7.76,0,0,1,1.38,1.4,7.76,7.76,0,0,1,1.38-1.4A11.33,11.33,0,0,1,347.2,312h51.41a10.83,10.83,0,0,1,3.3.51,12.24,12.24,0,0,1,3,1.47l.05,0a9.75,9.75,0,0,1,1.95,1.73,7.62,7.62,0,0,1,1.55-1.65,11.16,11.16,0,0,1,7-2.08c.65,0-.17,0,.31,0h6.88V300.57h20.43v62.19H415.75a11.87,11.87,0,0,1-7-1.82v1.82H357.37v4.43h6.84a11.34,11.34,0,0,1,7.18,2.06,7.75,7.75,0,0,1,1.38,1.4,7.76,7.76,0,0,1,1.38-1.4,11.33,11.33,0,0,1,7.18-2.06h17.14a11.34,11.34,0,0,1,7.18,2.06,7.75,7.75,0,0,1,1.4,1.42,7.81,7.81,0,0,1,1.37-1.37,11.52,11.52,0,0,1,7.14-2.09h46.47v3.91h17.05v39.09h0v.13a7.88,7.88,0,0,1-3,6.47,11,11,0,0,1-7,2H451.8q-10.17,0-10.17-8.63v-10H425.88v16.49a11.19,11.19,0,0,1,6.94,2.06,8,8,0,0,1,3,6.66v34.29a7.88,7.88,0,0,1-3,6.61,11.44,11.44,0,0,1-7.17,2H408.44a11.44,11.44,0,0,1-7.17-2,7.79,7.79,0,0,1-1.41-1.4,7.72,7.72,0,0,1-1.43,1.44,11.25,11.25,0,0,1-7.17,2H374.07a11.44,11.44,0,0,1-7.17-2,7.41,7.41,0,0,1-2.55-3.53" transform="translate(-184.87 -277.09)" style="fill:#ff2b90;fill-rule:evenodd"/><path d="M336.76,410.17q0,5.36-6.82,5.28H312.81q-6.82,0-6.82-5.28v-24h-3.41V375.65H306v-5.2h13.73v5.2h17.05v10.56H319.71v18.69h3.41v-16h13.64ZM288.89,326h-3.33v22.84h3.33Zm13.73,41.35q0,5.28-6.82,5.28h-24V362.09h17.05v-2.68H278.66q-7,0-6.82-5.28V320.74q0-5.36,6.82-5.36h24ZM323.16,326h-3.33v5.28h3.33Zm6.9,45.08a8.05,8.05,0,0,1-4.49-1.42,4.73,4.73,0,0,1-2.41-3.85V341.93h-3.33V366.5H306.11V315.37h24q6.82,0,6.82,5.36v11.4q0,3.18-3.41,4.44,3.41,1.26,3.41,4.44v21.62H354v6h0v1.88h10.23q6.82,0,6.82,5.36v39.55H357.31V381.18H354v34.27H340.26V371.09Zm27.37-29.16h-3.33v6.92h3.33ZM347.2,359.41q-6.82,0-6.82-5.28V336.57q0-5.19,6.82-5.28h10.23V326h-3.33v2.6H340.38v-7.88q0-5.36,6.82-5.36h17.14q6.82,0,6.82,5.36v38.67Zm44.5,0V326h-3.33v33.39H374.65v-44h13.73v2.68q3.41-2.68,10.23-2.68a8.05,8.05,0,0,1,4.49,1.42,4.67,4.67,0,0,1,2.33,3.94v38.67ZM426,326h-3.33v22.84H426Zm-10.23,33.39q-7,0-6.82-5.28V320.74q-.08-5.36,6.82-5.36H426V303.92h13.73v55.49Zm-24.16,21.77h-3.33v5.28h3.33Zm13.73,29q0,5.28-6.82,5.28H381.35q-6.82,0-6.82-5.28V375.9q0-5.36,6.82-5.36h17.14q6.82,0,6.82,5.36v23.63H388.26v5.36h3.33v-2.68h13.73Zm17.22-13.32v18.6H408.8V375.9q0-5.28,6.82-5.36h22.86v10.64h-16v2.6h16v13.07ZM313.35,447.62H310v6.8h3.34ZM303.09,465q-6.84,0-6.84-5.29V441.3q0-5.21,6.84-5.29h10.26v-5.29H310v2.6H296.25v-7.9q0-5.38,6.84-5.38h17.18q6.84,0,6.84,5.38V465Zm58.39-5.29q0,5.29-6.84,5.29H337.45q-6.84,0-6.84-5.29V420h13.76v34.38h3.34V420h13.76Zm36.62,0q0,5.38-6.84,5.29H374.07q-6.84,0-6.84-5.29V433.31h-3.42V422.73h3.42v-4H381v4h17.1v10.59H381v21.1h3.42V436H398.1Zm20.6-29h-3.34v23.71h3.34Zm57-20.54q0,5.36-6.82,5.28H451.79q-6.82,0-6.82-5.28v-24h-3.41V375.65H445v-5.2h13.73v5.2h17.05v10.56H458.69v18.69h3.41v-16h13.64Zm-43.28,49.53q0,5.29-6.84,5.29H408.44q-6.84,0-6.84-5.29V425.42q0-5.38,6.84-5.38h17.18q6.84,0,6.84,5.38Z" transform="translate(-184.87 -277.09)" style="fill:#fff"/><path d="M439.19,421.48h.32a1.64,1.64,0,0,0,.38,0,.23.23,0,0,0,.12-.09.27.27,0,0,0,0-.16A.26.26,0,0,0,440,421a.26.26,0,0,0-.16-.08h-.64Zm1.74-1.06a1.73,1.73,0,0,0-2.44,2.44h0a1.73,1.73,0,0,0,2.44-2.44m-1.22-.94a2.16,2.16,0,1,1-1.53,3.68h0a2.16,2.16,0,0,1,1.53-3.68m-1,3.22v-2.11h.9a1.54,1.54,0,0,1,.49.06.49.49,0,0,1,.25.2.61.61,0,0,1,.09.33.57.57,0,0,1-.14.39.67.67,0,0,1-.42.2,1,1,0,0,1,.23.18,2.44,2.44,0,0,1,.24.34l.26.41h-.51l-.31-.46a3,3,0,0,0-.23-.31.33.33,0,0,0-.13-.09.72.72,0,0,0-.22,0h-.09v.88Z" transform="translate(-184.87 -277.09)" style="fill:#fff;fill-rule:evenodd"/></svg>