<svg xmlns="http://www.w3.org/2000/svg" viewBox="0 0 148.52 163.22"><title>Minecraft logo - Brandlogos.net</title><path d="M378.86,463.53c-2.43-1.13-8-3.69-12.41-5.7-12.25-5.59-22.59-10.33-24.41-11.18-.9-.42-2.84-1.3-4.31-2s-5.2-2.36-8.31-3.79l-12.67-5.79-7-3.2V326.79l.67-.21c.83-.26,41.8-13.73,60-19.71L384,302.39l23.65,7.79,37.13,12.23,13.49,4.44-.05,52.5-.05,52.5-9.54,4.33-37.13,16.89c-15.18,6.91-27.73,12.55-27.9,12.54s-2.29-.94-4.72-2.07Z" transform="translate(-309.74 -302.39)" style="fill:#97c767"/><path d="M373.53,461l-19.08-8.73c-5-2.29-10.47-4.81-12.1-5.6s-3.71-1.73-4.62-2.1-5.61-2.49-10.46-4.71L314.35,434c-2.26-1-4.22-2-4.36-2.06s-.26-8-.26-37.87c0-20.73.06-44.33.14-52.45l.14-14.77,15.09-5,24-7.9L371,306.77l12.93-4.26,4.09,1.32,4.09,1.32-1.79.59a8.71,8.71,0,0,0-1.8.71,9.71,9.71,0,0,0,1.9.74l1.9.62,1.88-.67,1.88-.67,8.74,2.88c4.81,1.58,8.69,3,8.63,3a8.42,8.42,0,0,1-1.72.74l-1.62.58,2.1.68,2.1.68,1.42-.54a11.8,11.8,0,0,1,2.13-.62c.53-.06,3.88,1,12.7,3.89l12,4-1.11.47c-.61.26-1.71.75-2.44,1.09q-1.33.61-2.67,1.19c-.83.36-1.22.61-1,.69a38.75,38.75,0,0,0,4.33,1.35,7.44,7.44,0,0,0,1.65-.58c.72-.32,1.67-.7,2.12-.84s1.58-.58,2.5-1l1.68-.71,5,1.66c2.74.91,5.15,1.66,5.34,1.66s.36,2.6.31,52.52l-.05,52.52-21.23,9.64L413.63,452c-7.76,3.57-29.9,13.6-30,13.6S379,463.55,373.53,461Zm-8.25-92.49-.06-3.13-.72-.36c-.9-.46-5.69-2.7-7.13-3.34l-1.08-.48.06,3.18.06,3.18,4.31,2c2.37,1.11,4.38,2,4.47,2a15.28,15.28,0,0,0,.1-3.11Zm-9.18-10.83v-3.08l-.87-.38-2.26-1-1.38-.63v6.28l2,.94a18.93,18.93,0,0,0,2.26,1C356,360.8,356.1,360.06,356.1,357.72Zm20.11-3.08a19,19,0,0,0,2.45-1.21,17.09,17.09,0,0,1,2.36-1.13c1.24-.53,2.29-1,2.34-1a23.08,23.08,0,0,0-3.81-1.83l-.86-.37-2.45,1.05c-1.35.58-2.54,1.05-2.64,1.05a51,51,0,0,1-5-2.25,6.92,6.92,0,0,1,2.21-1.15,15.15,15.15,0,0,0,2.37-1.12,31.67,31.67,0,0,0-4.62-2c-.11,0-1.31.46-2.66,1l-2.46,1,1.21.53c3.08,1.36,3.59,1.61,3.51,1.74a22.82,22.82,0,0,1-2.56,1.14,21,21,0,0,0-2.41,1.07c.25.25,10,4.57,10.3,4.57a15.65,15.65,0,0,0,2.76-1Zm-52.51-5.23v-3.19l-1.38-.63-2.26-1-.87-.38v6.45l2.1,1c1.16.53,2.17,1,2.26,1a16.51,16.51,0,0,0,.15-3.18Zm78.61-1.65a22.72,22.72,0,0,0,2.41-1.19,20.93,20.93,0,0,1,2.32-1.14,5.53,5.53,0,0,0,1.85-1c-.09-.08-1.14-.53-2.35-1-2-.8-2.25-.86-2.87-.64-1.34.46-9,3.79-9,3.9a28.07,28.07,0,0,0,5.07,2.06,12.46,12.46,0,0,0,2.56-.93Zm19.28-4.44a8.06,8.06,0,0,0,2-1.08,8.3,8.3,0,0,0-2.29-1.08l-2.33-.88-2.18,1a13.27,13.27,0,0,0-2.18,1.09,28.62,28.62,0,0,0,4.75,1.85A12.11,12.11,0,0,0,421.58,343.32Zm-54.35-2.38a5.06,5.06,0,0,0,1.38-.68,11.81,11.81,0,0,0-2.15-1,10.59,10.59,0,0,1-2.15-1c0-.09.2-.24.46-.34,1-.42,4.3-1.68,6.51-2.52a7.4,7.4,0,0,0,2.27-1.09,11.79,11.79,0,0,0-4.32-1.62c-.45.11-5.65,2.12-8.25,3.18a5.83,5.83,0,0,1-1.22.4,40.29,40.29,0,0,0-5.3,2,17.23,17.23,0,0,0,2.41,1.13l4.65,2,2.25,1,1-.41,2.42-1Zm44.25-1.78a18.68,18.68,0,0,0,1.91-.91,8.24,8.24,0,0,0-2.36-1.11l-2.52-1-2.36,1c-1.71.74-2.26,1.06-2,1.16l2.56,1a6,6,0,0,0,2.6.71c.23-.08,1.19-.5,2.15-.92Zm19.29,0a5.86,5.86,0,0,0,1.9-1.1,26.08,26.08,0,0,0-2.46-1l-2.3-.84-2.15,1a9.47,9.47,0,0,0-2,1.06c.12.12,4.61,1.83,4.84,1.84a21.64,21.64,0,0,0,2.21-.95Zm-44.43-1.95a13.12,13.12,0,0,0,2.16-1,14.63,14.63,0,0,0-2.27-1,6.14,6.14,0,0,1-2.1-1.06,19.35,19.35,0,0,1,2.22-1c1.56-.62,2-.85,1.64-1s-2-.78-3.89-1.57c-5.07-2.08-4.75-2-7.25-1.08a13.45,13.45,0,0,0-2.09.9c0,.06,2,.88,4.42,1.83s4.46,1.79,4.51,1.88a8.05,8.05,0,0,1-2.16,1,16.46,16.46,0,0,0-2.26,1,29.7,29.7,0,0,0,4.55,1.83,15,15,0,0,0,2.51-.83Zm33.93-1.84a19.16,19.16,0,0,0,2.28-1.11,16.8,16.8,0,0,1,2.11-1c1-.43,1.73-.84,1.64-.91a23.28,23.28,0,0,0-2.28-.88l-2.12-.75-1.92.82a16.94,16.94,0,0,1-2.16.82,20.05,20.05,0,0,0-4.57,2.06,36.77,36.77,0,0,0,4.76,1.82,14,14,0,0,0,2.26-.84Zm-76.95-4a9.16,9.16,0,0,0,2.2-.94,13.85,13.85,0,0,0-1.93-.91l-1.85-.77-2.27.78a16.38,16.38,0,0,0-2.36.92,17.88,17.88,0,0,0,3.81,1.77Zm57.24.06c1.16-.47,2-.92,1.95-1a22.78,22.78,0,0,0-2.34-1l-2.18-.82-2,.8a19.65,19.65,0,0,0-2.19,1,18.61,18.61,0,0,0,4.37,1.84A14.69,14.69,0,0,0,400.57,331.44Zm37.63.05c.71-.32,1.45-.65,1.65-.72.65-.22.2-.49-2.1-1.25l-2.24-.75-1.76.76a8.34,8.34,0,0,0-1.76.9c0,.08.3.24.67.36l2.1.74a11,11,0,0,0,1.79.53,6.62,6.62,0,0,0,1.64-.58Zm-106.07-2.81c2.75-1,5-1.79,5.06-1.82a13.64,13.64,0,0,0-1.94-.92l-2-.86-2.67.94-5.09,1.78a6.8,6.8,0,0,0-2.26,1,24.26,24.26,0,0,0,3.69,1.63c.13,0,2.48-.78,5.23-1.75Zm24-1.91c2.45-.86,4.46-1.61,4.46-1.67a12.86,12.86,0,0,0-2-.88l-2-.78-1.74.61c-3.65,1.27-7.05,2.51-7.37,2.68s-.25.21.19.39l1.95.82a4.86,4.86,0,0,0,1.74.51l4.77-1.68Zm35.06.78c2.9-1.19,5-2,5.56-2.18s.43-.43-.31-.65c-.37-.11-1.27-.43-2-.71l-3.65-1.38a9.8,9.8,0,0,1-2.2-1c.06-.06,2-.82,4.21-1.68l4.09-1.57-2.07-.76-2.07-.76-3.82,1.37-4.34,1.57c-.46.18-.32.26,1.44.9,2.06.75,2.51,1,2,1.18l-2.12.79-1.83.69,2.18.8a7,7,0,0,1,2,.93c-.08.07-1,.47-2.15.9a6.31,6.31,0,0,0-1.88.9c.13.13,4,1.64,4.23,1.66.08,0,1.27-.46,2.67-1Zm-23.4-5,4.44-1.58a9,9,0,0,0,2.36-1,25.82,25.82,0,0,0-4-1.42,22.28,22.28,0,0,0-2.55.83l-3.94,1.41c-2.62.92-2.61.87-.44,1.71,1.05.41,2,.75,2,.75s1-.31,2.05-.69Zm49.57-1.7c1-.41,1.83-.82,1.75-.9a18.42,18.42,0,0,0-2.23-.82l-2.07-.67-1.87.7a9.79,9.79,0,0,0-1.87.82,38.92,38.92,0,0,0,4.3,1.61C415.43,321.62,416.33,321.29,417.38,320.87Zm-25.66-7c.34-.19.33-.23-.18-.42-.3-.12-1.2-.41-2-.65l-1.43-.43-1.71.61c-5.78,2.07-6.22,2.25-5.82,2.41l1.85.7,1.44.54,3.73-1.28c2.05-.7,3.9-1.37,4.1-1.49Zm13.19,1.4a10.36,10.36,0,0,0-1.9-.74l-1.9-.63-1.69.63a8.32,8.32,0,0,0-1.69.74,9.79,9.79,0,0,0,1.89.73l1.89.62,1.7-.63a8.88,8.88,0,0,0,1.7-.73Zm-40.78-.74c2.82-1,2.72-.86,1-1.55a10.19,10.19,0,0,0-2-.62,14.45,14.45,0,0,0-2.44.66c-2.08.69-2.14.79-.75,1.24.3.1.92.31,1.37.49,1.09.41,1.08.41,2.81-.21Zm11-.82a21.53,21.53,0,0,0,4-1.52,13.32,13.32,0,0,0-1.91-.77l-1.74-.61-1.74.59c-1,.32-1.93.67-2.15.78a1.85,1.85,0,0,1-.72.17,15.56,15.56,0,0,0-3.69,1.25,25.81,25.81,0,0,0,3.68,1.45S372.82,314.45,375.12,313.7Z" transform="translate(-309.74 -302.39)" style="fill:#88b858"/><path d="M373.53,461l-19.08-8.73c-5-2.29-10.47-4.81-12.1-5.6s-3.71-1.73-4.62-2.1-5.61-2.49-10.46-4.71L314.35,434c-2.26-1-4.22-2-4.36-2.06s-.26-9-.26-42.83c0-23.45,0-42.64.1-42.64s.88.36,1.84.81c2.88,1.33,2.59,1.58,2.53-2.16l-.06-3.23-2.1-.94L310,340v-13.2l.67-.15c.37-.08,2.7-.83,5.18-1.66,11.57-3.89,33.82-11.15,34.16-11.15a10.84,10.84,0,0,1,2,.64l1.62.64,2.23-.69,2.23-.69-1.64-.59a14.17,14.17,0,0,1-1.8-.73c-.13-.12,19.63-6.76,27.44-9.23l2.05-.65,3.9,1.32,3.9,1.32-1.79.59a8.66,8.66,0,0,0-1.8.7,10.26,10.26,0,0,0,2,.76l2,.64,2-.67,2-.67,8.5,2.84c4.67,1.56,8.53,2.88,8.57,2.91a4.83,4.83,0,0,1-1.22.54c-2.57.93-2.57.78-.06,1.64l2.26.77,1.64-.61c.9-.34,1.83-.65,2.05-.7s5.21,1.49,11.08,3.42L441,321.25a8.53,8.53,0,0,1,1.28.47s-1.66.78-3.69,1.66a39.94,39.94,0,0,0-3.69,1.72,15.16,15.16,0,0,0,2.36.93,7.78,7.78,0,0,1,2.2.94c-.09.07-1,.48-1.93.91a5.28,5.28,0,0,1-2.36.67,20.45,20.45,0,0,1-4.52-1.66,9.06,9.06,0,0,1,1.89-1c1.69-.72,1.8-.8,1.33-1l-2.46-.87-1.95-.68-4,1.69c-2.2.93-4,1.71-4.05,1.74a11.14,11.14,0,0,0,1.64.63c.93.32,2.23.83,2.88,1.14s2.13.86,3.28,1.23,3.25,1.08,4.66,1.57,2.64.89,2.73.89,1.61-.66,3.38-1.46l3.92-1.76c.88-.37.76-.46-1.83-1.31a17,17,0,0,1-2.11-.79c-.09-.08.72-.54,1.81-1l2-.87,2.5.81,5.19,1.65,2.69.84,1.78-.82a12.3,12.3,0,0,1,2.08-.82c.27,0,.3,6.2.25,52.52l-.05,52.52-21.23,9.64L413.63,452c-7.76,3.57-29.9,13.6-30,13.6S379,463.55,373.53,461Zm-8.2-92.55v-3.2l-2.26-1.06-2.26-1.06v-6.49l-1.54-.7c-.85-.39-2.53-1.18-3.73-1.76s-2.58-1.22-3.07-1.43l-.89-.38v13l2.19,1a22.63,22.63,0,0,1,2.41,1.19c.27.25,8.53,4,8.89,4,.19,0,.26-.74.26-3.17Zm16-11.46,5.07-2.21a17.32,17.32,0,0,0,2.56-1.25c.05-.15-9.31-4.35-10.2-4.57a10.8,10.8,0,0,0-2.86.94l-2.45,1-.93-.36c-.51-.2-1.63-.67-2.47-1.06l-1.54-.7,2.51-1a10.92,10.92,0,0,0,2.42-1.18c0-.08-2.17-1.06-4.71-2.18-4.28-1.89-5.13-2.34-4.32-2.34a1.73,1.73,0,0,0,.67-.19,30,30,0,0,1,3.9-1.45,20.05,20.05,0,0,1,2.46.92c1.2.51,2.27.92,2.37.92s1.27.47,2.62,1l2.44,1,2.31-1a26.08,26.08,0,0,0,2.48-1.12,22,22,0,0,0-4.52-2.06c-.09,0-1.27-.47-2.63-1l-2.47-1-2.52,1-2.52,1-2.23-.94a14.33,14.33,0,0,1-2.24-1.06c0-.07,2.1-.94,4.66-1.93s4.74-1.87,4.82-1.94a19.6,19.6,0,0,0-4.56-1.9c-.17,0-1.88.64-3.79,1.39l-4.88,1.89-1.4.52-2.09-.88c-1.15-.49-2.18-.95-2.3-1s-1.13-.54-2.26-1-2.08-.89-2.11-.92a21.15,21.15,0,0,1,2.3-.93,9.56,9.56,0,0,0,2.28-1,14.65,14.65,0,0,0-2.05-.93c-1.5-.6-1.89-.84-1.64-1s7.86-2.83,9-3.16c.2-.06.36-.17.36-.25a16.54,16.54,0,0,0-4.37-1.65,14.62,14.62,0,0,0-2.77.83L349.23,326c-1.24.45-2.28.85-2.31.88a13.64,13.64,0,0,0,1.9.85,15.06,15.06,0,0,1,2,.93,6.26,6.26,0,0,1-1.81.81l-2.41.86c-.47.17-.34.26,1.44,1a20.68,20.68,0,0,1,2.11,1,9.4,9.4,0,0,1-2.56,1.12l-5.13,1.83a8,8,0,0,0-2.26,1A17.77,17.77,0,0,0,344.7,338a31.86,31.86,0,0,0,3.19-1.17c.62-.24,1.28-.48,1.46-.54.43-.13,4.95,1.81,4.72,2a22.37,22.37,0,0,1-2.51,1.07l-2.34.9.92.4,2.09.94a6.85,6.85,0,0,0,1.44.54,21.36,21.36,0,0,0,2.52-.92,20.85,20.85,0,0,1,2.53-.92,29.19,29.19,0,0,1,4.75,2.07,14.81,14.81,0,0,1-2.46,1.1,13,13,0,0,0-2.46,1.12,27.76,27.76,0,0,0,4.52,2.07,24,24,0,0,1,4.77,2.27,26.9,26.9,0,0,1-2.49,1.12c-1.33.56-2.25,1-2.14,1.15s2.76,1.33,5.91,2.75l7.47,3.36a19.84,19.84,0,0,0,1.95.82,24.55,24.55,0,0,0,2.77-1.1Zm-56.08-10.25c.85.39,2.44,1.13,3.53,1.65a41.76,41.76,0,0,0,3.84,1.71,28.08,28.08,0,0,0,.09-3.09V344l-1.79-.83c-1-.46-2.21-1-2.72-1.2-.9-.37-3.19-1.46-5.64-2.71-.68-.34-1.72-.84-2.31-1.11l-1.08-.48.05,6.57.05,6.57,2.15,1,2.15,1,.06-3.33.06-3.33,1.55.71h0ZM351,345.61a24.05,24.05,0,0,0-2.31-1.06l-1.8-.74.06,3.19.06,3.19,2.15,1,2.15,1,.1-3.11.1-3.11Zm56.54,4.1a20,20,0,0,0,2.13-1.07,20.64,20.64,0,0,0-2.26-1,12.69,12.69,0,0,1-2.26-1,11.73,11.73,0,0,1,2.1-1.06,6.72,6.72,0,0,0,2-1.11,14.31,14.31,0,0,0-2.54-1.18l-2.47-1-4.89,2.11a31.91,31.91,0,0,0-4.73,2.27c.09.09,2.31,1,4.94,2.1s4.83,2,4.9,2.05.66,0,3-1.14Zm-52.11-2.15a1.37,1.37,0,0,0-.72-.28c-.18,0,0,.14.3.3.8.36.92.36.42,0Zm66.29-4.23a7.25,7.25,0,0,0,2.17-1.2,42.93,42.93,0,0,0-4.93-1.84,30,30,0,0,0-4.56,2c0,.1,4.46,2,4.91,2.05,0,0,1.14-.46,2.42-1Zm-10.54-4c1.19-.51,2.47-1.1,2.84-1.31.63-.36,2-1,5.6-2.39.79-.32,2.2-.93,3.14-1.36s1.74-.78,1.79-.78a13.18,13.18,0,0,0,2.43-1.19,8.64,8.64,0,0,0-2.37-1c-2.39-.85-2.49-.87-3.22-.58l-3.62,1.47c-1.58.64-3.7,1.57-4.72,2.06s-3.45,1.54-5.41,2.34c-3.47,1.41-3.88,1.6-3.7,1.73s4.78,1.95,4.94,2A23.65,23.65,0,0,0,411.14,339.37Zm19.78-.24c1.32-.6,2-1,1.85-1.11s-1.31-.53-2.58-1l-2.31-.85-2.16,1a5.93,5.93,0,0,0-2,1.12,36.34,36.34,0,0,0,4.78,1.82A14.33,14.33,0,0,0,430.92,339.13Zm-44.42-1.94a15.69,15.69,0,0,0,2.2-1,16.55,16.55,0,0,0-2.27-1,12.67,12.67,0,0,1-2.18-1s1.08-.48,2.29-1l2.2-.89-2.38-.9a17.73,17.73,0,0,1-2.37-1,40.88,40.88,0,0,1,4.51-1.81c.6-.13,9-3.42,9-3.52s-2-.84-4.42-1.73a28,28,0,0,1-4.25-1.76c.09-.07,1.94-.81,4.11-1.64a41,41,0,0,0,3.95-1.63,23,23,0,0,0-4.12-1.45c-.22,0-6.16,2.07-8.6,3-.18.07.59.45,1.81.9s2.15.82,2.2.86a11.86,11.86,0,0,1-2.06.87,6.4,6.4,0,0,0-2,1,1.92,1.92,0,0,0,.76.37c2,.59,3.78,1.46,3,1.46a23.81,23.81,0,0,0-3.83,1.48,31.72,31.72,0,0,1-3.74,1.53c-1.06.37-1.18.35-3.74-.65l-2-.77-2,.76a19.12,19.12,0,0,0-2.18.91,26.73,26.73,0,0,0,4.2,1.91,43.09,43.09,0,0,1,4.4,1.94,7.81,7.81,0,0,1-2.13,1l-2.18.83,2.13.88c1.17.48,2.22,1,2.34,1a32.56,32.56,0,0,0,4.92,2l2.41-1Zm-53.42-1.92a15.68,15.68,0,0,0,2.3-.93,13.76,13.76,0,0,0-2.05-1l-2.05-.89-2.2.77c-3,1-2.91,1-1.76,1.5l2.12.95a5.86,5.86,0,0,0,1.24.47Zm10.48-3.91a7.16,7.16,0,0,0,2.14-1c-.11-.07-1-.49-2.08-.94l-1.88-.82-2.46.86a15.08,15.08,0,0,0-2.46,1,8.86,8.86,0,0,0,1.79.89,16.71,16.71,0,0,1,2,.94.36.36,0,0,0,.41,0c.12-.08,1.27-.52,2.56-1Zm-17.66-.48c6.53-2.18,11.56-4,11.47-4s-.88-.42-1.85-.85a8,8,0,0,1-1.83-1,31.79,31.79,0,0,1,4.64-1.75l4.69-1.56-1.81-.76-1.81-.76-5,1.63c-2.77.9-6.13,2-7.45,2.38a12.75,12.75,0,0,0-2.41.89,7.2,7.2,0,0,0,1.65.84,10.57,10.57,0,0,1,1.74.85A39.55,39.55,0,0,1,323,328.6c-2.76.92-5.07,1.75-5.12,1.83a21.79,21.79,0,0,0,3.74,1.85s2-.63,4.31-1.41Zm74.35.84c.71-.32,1.59-.7,2-.85s.6-.34.51-.41a26,26,0,0,0-2.45-1l-2.29-.84-2.22.89a12.34,12.34,0,0,0-2.22,1,2.85,2.85,0,0,0,1,.52l2.05.79a3.81,3.81,0,0,0,3.64-.13Zm9.35-4,2.12-.86-2.27-.82a11.67,11.67,0,0,1-2.27-1,9,9,0,0,1,2-.9,11.82,11.82,0,0,0,1.89-.83s-1.08-.43-2.32-.87l-2.25-.8-1.91.74a6.65,6.65,0,0,0-1.92.95,6.44,6.44,0,0,0,2,.9,8.7,8.7,0,0,1,2,.84,7.52,7.52,0,0,1-1.79.83,20,20,0,0,0-1.95.81,30.28,30.28,0,0,0,4.56,1.84c.06,0,1.06-.37,2.22-.85Zm-37.09-3.62,1.54-.55c.37-.12.33-.18-.31-.52a3.81,3.81,0,0,0-1-.41,6.54,6.54,0,0,1-1.31-.47l-1-.45,2.27-.81a15.91,15.91,0,0,0,2.2-.88s-1-.42-2.11-.85l-2-.78-2.23.8-4.25,1.51c-2.95,1-2.92,1-.73,1.8,7,2.69,6.59,2.56,7.25,2.28.34-.14,1.12-.44,1.74-.66Zm45.08-3.25c1-.41,1.83-.82,1.75-.89a22.89,22.89,0,0,0-2.33-.9c-2.37-.83-2.11-.84-4.4.08l-1.08.42c-.37.14-.67.32-.67.41a24.25,24.25,0,0,0,4.51,1.62,13.38,13.38,0,0,0,2.21-.74Zm-9.36-3.19a9.94,9.94,0,0,0,1.82-.78,12.47,12.47,0,0,0-2.1-.79,18.39,18.39,0,0,1-2.33-.87,21.56,21.56,0,0,0-4.29-1.41c-.73,0-4.28,1.36-4,1.53s8.47,2.95,8.81,3a13.42,13.42,0,0,0,2.1-.65Zm-40.66-1.37,6.66-2.19c6.18-2,6-1.79,2.87-2.85l-1.68-.57-2.09.75-2.09.75-2-.73-2-.73-4.26,1.36c-2.34.75-4.33,1.43-4.42,1.51a5.57,5.57,0,0,0,1.95.91l4,1.46,1.93.71A11.71,11.71,0,0,0,367.56,316.31Zm20.69-1.06c2.23-.8,4.08-1.48,4.11-1.52a16,16,0,0,0-2.09-.78l-2.15-.72L384,313.65c-2.28.78-4.19,1.45-4.23,1.5s.32.23.81.4l1.91.72a7.29,7.29,0,0,0,1.39.41A43.33,43.33,0,0,0,388.25,315.25Z" transform="translate(-309.74 -302.39)" style="fill:#b7835a"/><path d="M378,463c-5-2.36-6.95-3.24-16.61-7.62-1.86-.84-4-1.82-4.72-2.16l-7.9-3.64-6.56-3-.06-3.17-.06-3.17-1.92-.86-2.25-1c-.29-.11-.33.21-.33,3,0,2.41-.06,3.1-.26,3l-4.87-2.26c-2.54-1.18-5.54-2.57-6.67-3.07l-2.05-.92-.1-3.23-.1-3.23-2.15-1-2.15-1-.1,3.15-.1,3.15-2.87-1.35c-1.58-.74-3.62-1.69-4.53-2.1l-1.66-.75-.11-8.72c-.1-7.91,0-43.69.17-43.69s1,.42,2,.92,2,.92,2.07.92.08-2.93.08-6.52v-6.52l-1.79-.79c-1-.44-2-.91-2.22-1.05-.42-.26-.43-.35-.43-10.12,0-5.42,0-9.86.06-9.86s.85.36,1.81.81c2.88,1.33,2.59,1.58,2.53-2.16l-.06-3.23-2.1-.94L310,340v-13.2l.67-.15c.37-.08,2.7-.83,5.18-1.66,11.57-3.89,33.82-11.15,34.16-11.15a10.83,10.83,0,0,1,2,.64l1.62.64,2.23-.69,2.23-.69-1.64-.59a14.17,14.17,0,0,1-1.8-.73c-.13-.12,19.63-6.76,27.44-9.23l2.05-.65,3.9,1.32,3.9,1.32-1.79.59a8.66,8.66,0,0,0-1.79.7,10.26,10.26,0,0,0,2,.76l2,.64,2-.67,2-.67,8.5,2.84c4.67,1.56,8.53,2.88,8.57,2.91a4.82,4.82,0,0,1-1.22.54c-2.57.93-2.57.78-.06,1.64l2.26.77,1.64-.61c.9-.34,1.83-.65,2.05-.7s5.21,1.49,11.08,3.42L441,321.25a8.51,8.51,0,0,1,1.28.47s-1.66.78-3.69,1.66a39.91,39.91,0,0,0-3.69,1.72,15.16,15.16,0,0,0,2.36.93,7.78,7.78,0,0,1,2.2.94c-.09.07-1,.48-1.93.91a5.29,5.29,0,0,1-2.36.67,20.45,20.45,0,0,1-4.52-1.66,9.08,9.08,0,0,1,1.89-1c1.69-.72,1.8-.8,1.33-1l-2.46-.87-1.95-.68-4,1.69c-2.2.93-4,1.71-4.05,1.74a11.14,11.14,0,0,0,1.64.63c.93.32,2.23.83,2.88,1.14s2.13.86,3.28,1.23,3.25,1.08,4.66,1.57,2.64.89,2.73.89,1.61-.66,3.38-1.46l3.92-1.76c.88-.37.76-.46-1.83-1.31a17,17,0,0,1-2.11-.79c-.09-.08.72-.54,1.81-1l2-.87,2.5.81,5.19,1.65,2.69.84,1.78-.82a12.3,12.3,0,0,1,2.08-.82c.27,0,.3,6.25.3,52.48v52.48L435.53,442l-32,14.57-10.26,4.66c-5,2.29-9.54,4.35-9.63,4.34S381,464.44,378,463h0Zm-3.53-18-.06-3.19-2.2-1-2.21-1v6.46l2.1,1c1.16.52,2.17,1,2.26,1a16,16,0,0,0,.1-3.17Zm9.28-2.26v-3.19l-1.49-.68-3.13-1.45c-2.45-1.15-4.23-2-4.33-2a31.56,31.56,0,0,0-.08,3.23v3.23l4.35,2c2.39,1.09,4.42,2,4.51,2a16.55,16.55,0,0,0,.15-3.18Zm-23.22-4.11-.06-3.2-1.95-.89a17.63,17.63,0,0,0-2.21-.9c-.19,0-.26.73-.26,3.05s.07,3.11.26,3.23c.38.24,3.92,1.88,4.11,1.9a16,16,0,0,0,.1-3.19Zm-32.36-8.19v-3.19l-1.79-.83c-1-.46-2-.91-2.26-1l-.46-.18v6.48l2.1,1c1.16.52,2.17,1,2.26,1a16.63,16.63,0,0,0,.15-3.18Zm50.87-3v-3.13l-.56-.23c-.31-.12-1.28-.56-2.15-1l-1.59-.74v6.25l2.1,1,2.15,1s.05-1.39.05-3.12Zm-36.92-3.75v-3.19l-1.79-.83c-1-.46-2-.91-2.26-1l-.46-.18v6.48l2.1,1c1.16.52,2.17,1,2.26,1A16.63,16.63,0,0,0,342.15,423.66Zm18.41-4.74-.06-3.21-4-1.83c-2.2-1-4.21-1.92-4.46-2l-.46-.19v6.47l4.26,2c2.34,1.08,4.37,2,4.52,2s.25-.69.21-3.19Zm13.85-3.36c-.19-.17-8.8-4.09-9-4.09a21.87,21.87,0,0,0-.06,3.22l.06,3.22,4.51,2.07,4.51,2.07.06-3.17A18.57,18.57,0,0,0,374.41,415.56Zm-37-.57v-3.25l-2.1-1c-1.16-.53-2.17-1-2.26-1A16.44,16.44,0,0,0,333,413l.06,3.21,2.15,1,2.21,1s.05-1.45.05-3.24Zm4.72-4.45v-3.18l-1.08-.49-2.26-1-1.18-.53v6.37l2.1,1c1.16.55,2.17,1,2.26,1a16.38,16.38,0,0,0,.15-3.17Zm-9.23-4.18v-3.26l-4.44-2L323.87,399c-.3-.11-.22,6.27.08,6.47s8.76,4.11,8.92,4.15.05-1.45.05-3.24Zm50.87-9.63V393.5l-1.93-.86-2.26-1c-.3-.11-.33.22-.33,3.09V398l2.1,1c1.16.55,2.17,1,2.26,1a17,17,0,0,0,.15-3.23Zm-18.46-1.83v-3.23l-4.56-2.1-4.56-2.1-.06,3.11c0,2.32,0,3.17.21,3.36s8.67,4.15,8.93,4.18c0,0,.05-1.45,0-3.23Zm-13.95-6.36V385.3l-4.38-2c-2.41-1.1-4.44-2-4.51-2a18.72,18.72,0,0,0-.13,3.15v3.15l1.08.46c.9.39,3.08,1.4,7.13,3.32l.77.35s.05-1.44.05-3.22Zm-23-4.06-.06-3.19-4.47-2c-2.46-1.12-4.51-2-4.56-2a26.53,26.53,0,0,0-.1,3.18v3.18l1.43.64c.79.35,2.75,1.27,4.36,2a33.71,33.71,0,0,0,3.19,1.41c.2,0,.25-.7.21-3.18Zm4.35-4.47v-3.15l-2.05-1c-1.13-.52-2.1-1-2.15-1a23.61,23.61,0,0,0-.1,3.08v3.08l2.1,1,2.15,1s.05-1.4.05-3.13Zm32.61-11.53v-3.2l-2.26-1.06-2.26-1.06v-6.49l-1.54-.7c-.85-.39-2.53-1.18-3.73-1.76s-2.58-1.22-3.07-1.43l-.89-.38v13l2.19,1a22.71,22.71,0,0,1,2.41,1.19c.27.25,8.53,4,8.89,4,.19,0,.26-.74.26-3.17Zm-37.13-3.69V361.6l-2.16-1c-1.19-.56-2.2-1-2.26-1a27.3,27.3,0,0,0-.09,3.19V366l2.1,1c1.16.55,2.17,1,2.26,1a16.47,16.47,0,0,0,.15-3.18ZM381.33,357l5.07-2.21a17.32,17.32,0,0,0,2.56-1.25c.05-.15-9.31-4.35-10.2-4.57a10.8,10.8,0,0,0-2.86.94l-2.45,1-.93-.36c-.51-.2-1.63-.67-2.47-1.06l-1.54-.7,2.51-1a10.92,10.92,0,0,0,2.42-1.18c0-.08-2.17-1.06-4.71-2.18-4.28-1.89-5.13-2.34-4.32-2.34a1.73,1.73,0,0,0,.67-.19,30,30,0,0,1,3.9-1.45,20.05,20.05,0,0,1,2.46.92c1.2.51,2.27.92,2.37.92s1.27.47,2.62,1l2.44,1,2.31-1a26.08,26.08,0,0,0,2.48-1.12,22,22,0,0,0-4.52-2.06c-.09,0-1.27-.47-2.63-1l-2.47-1-2.52,1-2.52,1-2.23-.94a14.33,14.33,0,0,1-2.24-1.06c0-.07,2.1-.94,4.66-1.93s4.74-1.87,4.82-1.94a19.6,19.6,0,0,0-4.56-1.9c-.17,0-1.88.64-3.79,1.39l-4.88,1.89-1.4.52-2.09-.88c-1.15-.48-2.18-.95-2.3-1s-1.13-.54-2.26-1-2.08-.89-2.11-.92a21.15,21.15,0,0,1,2.3-.93,9.56,9.56,0,0,0,2.28-1,14.65,14.65,0,0,0-2.05-.93c-1.5-.6-1.89-.84-1.64-1s7.86-2.83,9-3.16c.2-.06.36-.17.36-.25a16.54,16.54,0,0,0-4.37-1.65,14.62,14.62,0,0,0-2.77.83L349.23,326c-1.24.45-2.28.85-2.31.88a13.64,13.64,0,0,0,1.9.85,15.06,15.06,0,0,1,2,.93,6.26,6.26,0,0,1-1.81.81l-2.41.86c-.47.17-.34.26,1.44,1a20.68,20.68,0,0,1,2.11,1,9.4,9.4,0,0,1-2.56,1.12l-5.13,1.83a8,8,0,0,0-2.26,1A17.77,17.77,0,0,0,344.7,338a31.86,31.86,0,0,0,3.19-1.17c.62-.24,1.28-.48,1.46-.54.43-.13,4.95,1.81,4.72,2a22.37,22.37,0,0,1-2.51,1.07l-2.34.9.92.4,2.09.94a6.88,6.88,0,0,0,1.44.54,21.36,21.36,0,0,0,2.52-.92,20.85,20.85,0,0,1,2.53-.92,29.19,29.19,0,0,1,4.75,2.07,14.81,14.81,0,0,1-2.46,1.1,13,13,0,0,0-2.46,1.12,27.76,27.76,0,0,0,4.52,2.07,24,24,0,0,1,4.77,2.27,26.9,26.9,0,0,1-2.49,1.12c-1.33.56-2.25,1-2.14,1.15s2.76,1.33,5.91,2.75l7.47,3.36a19.8,19.8,0,0,0,1.95.82,24.6,24.6,0,0,0,2.77-1.1Zm-56.08-10.25c.85.39,2.44,1.13,3.53,1.65a41.76,41.76,0,0,0,3.84,1.71,28.08,28.08,0,0,0,.09-3.09V344l-1.79-.83c-1-.46-2.21-1-2.72-1.2-.9-.37-3.19-1.46-5.64-2.71-.68-.34-1.72-.84-2.31-1.11l-1.08-.48.05,6.57.05,6.57,2.15,1,2.15,1,.06-3.33.06-3.33,1.55.71h0ZM351,345.61a24.05,24.05,0,0,0-2.31-1.06l-1.8-.74.06,3.19.06,3.19,2.15,1,2.15,1,.1-3.11.1-3.11Zm56.54,4.1a20,20,0,0,0,2.13-1.07,20.64,20.64,0,0,0-2.26-1,12.69,12.69,0,0,1-2.26-1,11.73,11.73,0,0,1,2.1-1.06,6.72,6.72,0,0,0,2-1.11,14.31,14.31,0,0,0-2.54-1.18l-2.47-1-4.89,2.11a31.91,31.91,0,0,0-4.73,2.27c.09.09,2.31,1,4.94,2.1s4.83,2,4.9,2.05.66,0,3-1.14Zm-52.11-2.15a1.37,1.37,0,0,0-.72-.28c-.18,0,0,.14.3.3.8.36.92.36.42,0Zm66.29-4.23a7.25,7.25,0,0,0,2.17-1.2,42.93,42.93,0,0,0-4.93-1.84,30,30,0,0,0-4.56,2c0,.1,4.46,2,4.91,2.05,0,0,1.14-.46,2.42-1Zm-10.54-4c1.19-.51,2.47-1.1,2.84-1.31.63-.36,2-1,5.6-2.39.79-.32,2.2-.93,3.14-1.36s1.74-.78,1.79-.78a13.18,13.18,0,0,0,2.43-1.19,8.64,8.64,0,0,0-2.37-1c-2.39-.85-2.49-.87-3.22-.58l-3.62,1.47c-1.58.64-3.7,1.57-4.72,2.06s-3.45,1.54-5.41,2.34c-3.47,1.41-3.88,1.6-3.7,1.73s4.78,1.95,4.94,2A23.65,23.65,0,0,0,411.14,339.37Zm19.78-.24c1.32-.6,2-1,1.85-1.11s-1.31-.53-2.58-1l-2.31-.85-2.16,1a5.93,5.93,0,0,0-2,1.12,36.34,36.34,0,0,0,4.78,1.82A14.33,14.33,0,0,0,430.92,339.13Zm-44.42-1.94a15.69,15.69,0,0,0,2.2-1,16.55,16.55,0,0,0-2.27-1,12.67,12.67,0,0,1-2.18-1s1.08-.48,2.29-1l2.2-.89-2.38-.9a17.73,17.73,0,0,1-2.37-1,40.88,40.88,0,0,1,4.51-1.81c.6-.13,9-3.42,9-3.52s-2-.84-4.42-1.73a28,28,0,0,1-4.25-1.76c.09-.07,1.94-.81,4.11-1.64a41,41,0,0,0,3.95-1.63,23,23,0,0,0-4.12-1.45c-.22,0-6.16,2.07-8.6,3-.18.07.59.45,1.81.9s2.15.82,2.2.86a11.86,11.86,0,0,1-2.06.87,6.4,6.4,0,0,0-2,1,1.92,1.92,0,0,0,.76.37c2,.59,3.78,1.46,3,1.46a23.81,23.81,0,0,0-3.83,1.48,31.72,31.72,0,0,1-3.74,1.53c-1.06.37-1.18.35-3.74-.65l-2-.77-2,.76a19.12,19.12,0,0,0-2.18.91,26.73,26.73,0,0,0,4.2,1.91,43.09,43.09,0,0,1,4.4,1.94,7.81,7.81,0,0,1-2.13,1l-2.18.83,2.13.88c1.17.48,2.22,1,2.34,1a32.56,32.56,0,0,0,4.92,2l2.41-1Zm-53.42-1.92a15.68,15.68,0,0,0,2.3-.93,13.76,13.76,0,0,0-2.05-1l-2.05-.89-2.2.77c-3,1-2.91,1-1.76,1.5l2.12.95a5.86,5.86,0,0,0,1.24.47Zm10.48-3.91a7.16,7.16,0,0,0,2.14-1c-.11-.07-1-.49-2.08-.94l-1.88-.82-2.46.86a15.08,15.08,0,0,0-2.46,1,8.86,8.86,0,0,0,1.79.89,16.71,16.71,0,0,1,2,.94.36.36,0,0,0,.41,0c.12-.08,1.27-.52,2.56-1Zm-17.66-.48c6.53-2.18,11.56-4,11.47-4s-.88-.42-1.85-.85a8,8,0,0,1-1.83-1,31.79,31.79,0,0,1,4.64-1.75l4.69-1.56-1.81-.76-1.81-.76-5,1.63c-2.77.9-6.13,2-7.45,2.38a12.75,12.75,0,0,0-2.41.89,7.2,7.2,0,0,0,1.65.84,10.57,10.57,0,0,1,1.74.85A39.55,39.55,0,0,1,323,328.6c-2.76.92-5.07,1.75-5.12,1.83a21.79,21.79,0,0,0,3.74,1.85s2-.63,4.31-1.41Zm74.35.84c.71-.32,1.59-.7,2-.85s.6-.34.51-.41a26,26,0,0,0-2.45-1l-2.29-.84-2.22.89a12.34,12.34,0,0,0-2.22,1,2.85,2.85,0,0,0,1,.52l2.05.79a3.81,3.81,0,0,0,3.64-.13Zm9.35-4,2.12-.86-2.27-.82a11.67,11.67,0,0,1-2.27-1,9,9,0,0,1,2-.9,11.82,11.82,0,0,0,1.89-.83s-1.08-.43-2.32-.87l-2.25-.8-1.91.74a6.65,6.65,0,0,0-1.92.95,6.44,6.44,0,0,0,2,.9,8.7,8.7,0,0,1,2,.84,7.52,7.52,0,0,1-1.79.83,20,20,0,0,0-1.95.81,30.28,30.28,0,0,0,4.56,1.84c.06,0,1.06-.37,2.22-.85Zm-37.09-3.62,1.54-.55c.37-.12.33-.18-.31-.52a3.81,3.81,0,0,0-1-.41,6.54,6.54,0,0,1-1.31-.47l-1-.45,2.27-.81a15.91,15.91,0,0,0,2.2-.88s-1-.42-2.11-.85l-2-.78-2.23.8-4.25,1.51c-2.95,1-2.92,1-.73,1.8,7,2.69,6.59,2.56,7.25,2.28.34-.14,1.12-.44,1.74-.66Zm45.08-3.25c1-.41,1.83-.82,1.75-.89a22.89,22.89,0,0,0-2.33-.9c-2.37-.83-2.11-.84-4.4.08l-1.08.42c-.37.14-.67.32-.67.41a24.25,24.25,0,0,0,4.51,1.62,13.38,13.38,0,0,0,2.21-.74Zm-9.36-3.19a9.94,9.94,0,0,0,1.82-.78,12.47,12.47,0,0,0-2.1-.79,18.39,18.39,0,0,1-2.33-.87,21.56,21.56,0,0,0-4.29-1.41c-.73,0-4.28,1.36-4,1.53s8.47,2.95,8.81,3a13.42,13.42,0,0,0,2.1-.65Zm-40.66-1.37,6.66-2.19c6.18-2,6-1.79,2.87-2.85l-1.68-.57-2.09.75-2.09.75-2-.73-2-.73-4.26,1.36c-2.34.75-4.33,1.43-4.42,1.51a5.57,5.57,0,0,0,1.95.91l4,1.46,1.93.71A11.71,11.71,0,0,0,367.56,316.31Zm20.69-1.06c2.23-.8,4.08-1.48,4.11-1.52a16,16,0,0,0-2.09-.78l-2.15-.72L384,313.65c-2.28.78-4.19,1.45-4.23,1.5s.32.23.81.4l1.91.72a7.29,7.29,0,0,0,1.39.41A43.33,43.33,0,0,0,388.25,315.25Z" transform="translate(-309.74 -302.39)" style="fill:#72b147"/><path d="M378,463c-5-2.36-6.95-3.24-16.61-7.62-1.86-.84-4-1.82-4.72-2.16l-7.9-3.64-6.56-3-.06-3.17-.06-3.17-1.92-.86-2.25-1c-.29-.11-.33.21-.33,3,0,2.41-.06,3.1-.26,3l-4.87-2.26c-2.54-1.18-5.54-2.57-6.67-3.07l-2.05-.92-.1-3.23-.1-3.23-2.15-1-2.15-1-.1,3.15-.1,3.15-2.87-1.35c-1.58-.74-3.62-1.69-4.53-2.1l-1.66-.75-.11-8.72c-.1-7.91,0-43.69.17-43.69s1,.42,2,.92,2,.92,2.07.92.08-2.93.08-6.52v-6.52l-1.79-.79c-1-.44-2-.91-2.22-1.05-.42-.26-.43-.35-.43-10.13,0-7.06.06-9.85.22-9.78l2.21,1a8.36,8.36,0,0,0,2.1.81,24,24,0,0,0,.12-3.29c0-2.93,0-3.16.36-3s1.21.52,2.26,1l1.9.86v3.33c0,3,0,3.36.36,3.55s1.24.62,2.31,1.11l1.95.89.06-3.16c0-2.33.12-3.16.31-3.15s2.14.92,4.46,2a41,41,0,0,0,4.36,1.93,19.13,19.13,0,0,0,.15-3.33v-3.24l-4.56-2.07-4.56-2.07-.06-3.29-.06-3.29-.83-.33c-.46-.18-.75-.41-.66-.5s3.48-1.27,7.52-2.62,7.45-2.55,7.57-2.67,0-.31-.54-.54l-1.93-.85-1.17-.54,4.77-1.55a32.17,32.17,0,0,0,4.77-1.77,5.76,5.76,0,0,0-1.85-.93,10,10,0,0,1-1.85-.83,12.53,12.53,0,0,1,2.15-.81,6.2,6.2,0,0,0,2-.83,13.57,13.57,0,0,0-1.64-.71,5.94,5.94,0,0,1-1.49-.7,13.89,13.89,0,0,1,2.41-.91l2.41-.78,1.84.71,1.84.71,2.16-.67,4.59-1.42,2.43-.75,1.84.66a11.65,11.65,0,0,1,1.93.81c.09.14-6.84,2.56-11.23,3.92a10.38,10.38,0,0,0-2.21.83,7.3,7.3,0,0,0,1.74.83,10,10,0,0,1,1.74.79c0,.06-2.75,1.06-6.1,2.24-8,2.79-8.25,2.89-8.25,3.08a7.06,7.06,0,0,0,1.74.85,9.23,9.23,0,0,1,1.74.81,14.2,14.2,0,0,1-2.26.9,11.24,11.24,0,0,0-2.26.93,10.46,10.46,0,0,0,2.06,1l2.06.89-2.5.89c-1.37.49-2.58.89-2.68.89a22.06,22.06,0,0,1-2.2-.91l-2-.91-2.54.91-2.73,1a24.13,24.13,0,0,0,3.32,1.67l3.51,1.61.06,3.16.06,3.16,2.2,1,2.19,1,.06-3.16.06-3.16-1.4-.64a6.75,6.75,0,0,1-1.33-.7s1.2-.48,2.59-1l2.52-.93,2.09.94c1.15.52,2.16,1,2.24,1.07a8.91,8.91,0,0,1-2.31,1l-2.46.9.57.35a7.75,7.75,0,0,0,1.32.6,1.61,1.61,0,0,1,.87.56,27.47,27.47,0,0,1,.12,3.34v3l2.21,1.06c1.21.58,2.34,1.15,2.51,1.27s1.21.63,2.31,1.13l2,.91v6.56l-.67-.28c-.37-.15-1.27-.56-2-.91a8.55,8.55,0,0,0-1.59-.63c-.19,0-.26.77-.26,3.15v3.15l4.46,2c2.45,1.1,4.57,2.09,4.71,2.2s.27,1.17.31,3.38l.06,3.18,1.95.89c1.07.49,2,.89,2.1.9a15.65,15.65,0,0,0,.15-3.09c0-3.6-.31-3.38,2.72-2l2,.94V358.77L362,357.16c-1.83-.89-3.91-1.88-4.62-2.19l-1.28-.57v-3c0-2,.07-3,.21-3a4.28,4.28,0,0,1,1,.41c.77.39,1.39.57.89.25-.14-.09.87-.59,2.38-1.19l2.61-1,2.41,1.07,2.41,1.07-2.32,1L363,350.94c-.28.1.75.66,3.79,2.06,2.3,1.05,5.15,2.33,6.33,2.83s2.83,1.22,3.66,1.61a8.74,8.74,0,0,0,1.88.7A18.69,18.69,0,0,0,381.5,357l2.46-1.1,1.91.86c3.48,1.56,2.84,1.54,5.78.2a18.5,18.5,0,0,0,2.59-1.31,7.15,7.15,0,0,0-1.59-.82q-1.57-.69-3.13-1.4c-2.44-1.12-5.19-2.3-5.35-2.3s-8-3.39-12.66-5.5l-2.72-1.22,2.52-1,2.52-1,2.26,1a15.57,15.57,0,0,0,2.77,1,13.85,13.85,0,0,0,2.81-.93l2.3-.95,2.26.95a16.8,16.8,0,0,0,2.64.95,37.94,37.94,0,0,0,5.63-2.32c.82-.38,2-.9,2.67-1.16a5.57,5.57,0,0,0,1.28-.63,7.69,7.69,0,0,0-2.16-1.05,14.82,14.82,0,0,1-2.26-1,4.37,4.37,0,0,1,1.18-.6q1.16-.48,2.31-1l1.13-.5-2.21-.87c-1.21-.48-2.25-.92-2.31-1a9.25,9.25,0,0,1,2-1l2.12-.87,2.19.83a17.05,17.05,0,0,0,2.57.83,16.59,16.59,0,0,0,2.63-.93l2.24-.93,2.37.88a15.34,15.34,0,0,1,2.45,1,8.36,8.36,0,0,1-2.18,1.1l-4.61,1.92-2.36,1,.92.39c.51.21,1.64.66,2.51,1a6.94,6.94,0,0,1,1.59.72,12.36,12.36,0,0,1-2.1,1c-5.38,2.25-12.05,5.2-12.05,5.33s1.68.85,7.5,3.2l2.89,1.17,2.86-1.32c4.79-2.22,11.34-5.18,13.93-6.31a20.88,20.88,0,0,0,2.56-1.23,34.42,34.42,0,0,1,4.49-2.05,19.4,19.4,0,0,0,4.18-2.06,16.76,16.76,0,0,0-2-.81l-2.35-.86c-.46-.17-.31-.28,1.6-1.13a6,6,0,0,0,1.94-1.09,22.79,22.79,0,0,0-2.36-.92,7.67,7.67,0,0,1-2.11-.92,12.82,12.82,0,0,1,1.93-.92l1.84-.77,2.41.84a21.37,21.37,0,0,0,2.78.84,14.15,14.15,0,0,0,2.43-.91l2.05-.91,2.27.81a23.22,23.22,0,0,0,2.54.81,14.88,14.88,0,0,0,2.19-.89l1.92-.89-2-.67c-1.13-.37-2.33-.8-2.66-.95s-1.62-.63-2.84-1.07l-2.23-.79,1.77-.76,1.77-.76,5.07,1.64,5.07,1.64,2.05-.92c1.13-.5,2.12-.92,2.21-.92s.15,23.61.15,52.48v52.48L435.53,442l-32,14.57-10.26,4.66c-5,2.29-9.54,4.35-9.63,4.34S381,464.44,378,463Zm-3.53-18-.06-3.19-2.2-1-2.21-1v6.46l2.1,1c1.16.52,2.17,1,2.26,1a16,16,0,0,0,.1-3.17Zm9.28-2.26v-3.19l-1.49-.68-3.13-1.45c-2.45-1.15-4.23-2-4.33-2a31.56,31.56,0,0,0-.08,3.23v3.23l4.35,2c2.39,1.09,4.42,2,4.51,2a16.55,16.55,0,0,0,.15-3.18Zm-23.22-4.11-.06-3.2-1.95-.89a17.63,17.63,0,0,0-2.21-.9c-.19,0-.26.73-.26,3.05s.07,3.11.26,3.23c.38.24,3.92,1.88,4.11,1.9a16,16,0,0,0,.1-3.19Zm-32.36-8.19v-3.19l-1.79-.83c-1-.46-2-.91-2.26-1l-.46-.18v6.48l2.1,1c1.16.52,2.17,1,2.26,1a16.63,16.63,0,0,0,.15-3.18Zm50.87-3v-3.13l-.56-.23c-.31-.12-1.28-.56-2.15-1l-1.59-.74v6.25l2.1,1,2.15,1s.05-1.39.05-3.12Zm-36.92-3.75v-3.19l-1.79-.83c-1-.46-2-.91-2.26-1l-.46-.18v6.48l2.1,1c1.16.52,2.17,1,2.26,1A16.63,16.63,0,0,0,342.15,423.66Zm18.41-4.74-.06-3.21-4-1.83c-2.2-1-4.21-1.92-4.46-2l-.46-.19v6.47l4.26,2c2.34,1.08,4.37,2,4.52,2s.25-.69.21-3.19Zm13.85-3.36c-.19-.17-8.8-4.09-9-4.09a21.87,21.87,0,0,0-.06,3.22l.06,3.22,4.51,2.07,4.51,2.07.06-3.17A18.57,18.57,0,0,0,374.41,415.56Zm-37-.57v-3.25l-2.1-1c-1.16-.53-2.17-1-2.26-1A16.44,16.44,0,0,0,333,413l.06,3.21,2.15,1,2.21,1s.05-1.45.05-3.24Zm4.72-4.45v-3.18l-1.08-.49-2.26-1-1.18-.53v6.37l2.1,1c1.16.55,2.17,1,2.26,1a16.38,16.38,0,0,0,.15-3.17Zm-9.23-4.18v-3.26l-4.44-2L323.87,399c-.3-.11-.22,6.27.08,6.47s8.76,4.11,8.92,4.15.05-1.45.05-3.24Zm50.87-9.63V393.5l-1.93-.86-2.26-1c-.3-.11-.33.22-.33,3.09V398l2.1,1c1.16.55,2.17,1,2.26,1a17,17,0,0,0,.15-3.23Zm-18.46-1.83v-3.23l-4.56-2.1-4.56-2.1-.06,3.11c0,2.32,0,3.17.21,3.36s8.67,4.15,8.93,4.18c0,0,.05-1.45,0-3.23Zm-13.95-6.36V385.3l-4.38-2c-2.41-1.1-4.44-2-4.51-2a18.72,18.72,0,0,0-.13,3.15v3.15l1.08.46c.9.39,3.08,1.4,7.13,3.32l.77.35s.05-1.44.05-3.22Zm-23-4.06-.06-3.19-4.47-2c-2.46-1.12-4.51-2-4.56-2a26.53,26.53,0,0,0-.1,3.18v3.18l1.43.64c.79.35,2.75,1.27,4.36,2a33.71,33.71,0,0,0,3.19,1.41c.2,0,.25-.7.21-3.18Zm4.35-4.47v-3.15l-2.05-1c-1.13-.52-2.1-1-2.15-1a23.61,23.61,0,0,0-.1,3.08v3.08l2.1,1,2.15,1s.05-1.4.05-3.13Zm41.84-13.85v-3l-1-.42-2.16-1-1.18-.53.06,3.1.06,3.1,1.95.89c1.07.49,2,.89,2.1.9a15.16,15.16,0,0,0,.15-3Zm-46.36-1.37V361.6l-2.16-1c-1.19-.56-2.2-1-2.26-1a27.3,27.3,0,0,0-.09,3.19V366l2.1,1c1.16.55,2.17,1,2.26,1a16.47,16.47,0,0,0,.15-3.18Zm55.59-.91V360.6l-.67-.29-2.21-1-1.54-.71.06,3.31.06,3.31,2.09,1,2.14,1s.05-1.46.05-3.26ZM332.67,357a35.16,35.16,0,0,0-4.15-1.95,21,21,0,0,0-.07,3.21l.06,3.21,2.15,1,2.15,1,.06-3.09c0-2.31,0-3.15-.2-3.33Zm9.48.85v-3.15l-2.07-1a21.93,21.93,0,0,0-2.26-1,13.31,13.31,0,0,0-.19,3.13v3.13l2.1,1c1.16.53,2.17,1,2.26,1a16.23,16.23,0,0,0,.15-3.14Zm18.26-7.93a1.23,1.23,0,0,0-.51-.2c-.11,0-.07.09.1.2a1.23,1.23,0,0,0,.51.2C360.62,350.13,360.57,350,360.4,349.93Zm-13.33-6.14c-.73-.3-1.83-.77-2.45-1.05l-1.11-.51,2.6-1c1.43-.55,2.6-1,2.6-1s-.92-.45-2-.94a6.2,6.2,0,0,1-1.9-1,52.36,52.36,0,0,1,5-1.83,12.16,12.16,0,0,1,1.69.68l2,.89c.5.21.49.23-.49.66a7.25,7.25,0,0,1-1.16.44,11.68,11.68,0,0,0-2.65,1.21,13,13,0,0,0,2.14,1.05,6.72,6.72,0,0,1,2,1.06,27.47,27.47,0,0,1-3.63,1.49l-1.23.46-1.33-.54Zm8.88-.39a15.71,15.71,0,0,1-2.1-1.06,20,20,0,0,1,2.53-1.07l2.53-1,2.18,1a13.08,13.08,0,0,1,2.18,1.08,34.89,34.89,0,0,1-5,2c-.11,0-1.15-.45-2.3-1Zm60.31-4.09a8.51,8.51,0,0,1-2.36-1.11,23.45,23.45,0,0,1,2.25-1.07l2.1-.92,2.56,1a16.63,16.63,0,0,1,2.56,1.09,30,30,0,0,1-4.43,2c-.1,0-1.31-.44-2.69-1Zm-39.91-.19a6.15,6.15,0,0,1-2.05-1.1,21.15,21.15,0,0,1,2.3-1l2.14-.85,2.43,1a18.88,18.88,0,0,1,2.43,1.09,26.19,26.19,0,0,1-4.66,1.83,18.43,18.43,0,0,1-2.58-1Zm10.16.1a11.12,11.12,0,0,1-2.1-1,13,13,0,0,1,2.28-1.07l2.28-.93,2.34.93a15.58,15.58,0,0,1,2.33,1,23.59,23.59,0,0,1-4.62,1.85A16.39,16.39,0,0,1,386.5,339.22Zm-29.24-4.11-2-.84,2.36-.88,2.36-.88,2,.83c1.1.46,2,.86,2.06.88a47.56,47.56,0,0,1-4.62,1.74c-.08,0-1-.4-2.15-.86Zm16.74-1a43.1,43.1,0,0,0-4.68-1.85c-.19,0-1.92-.7-6.37-2.59a7.66,7.66,0,0,1-1.9-1,9.06,9.06,0,0,1,2.47-1.1c6.28-2.22,10.89-4,11-4.29s-.42-.38-1-.58-1.44-.52-1.88-.71l-.79-.35,1.2-.44,2.08-.77c.48-.18.81-.4.72-.48a19.49,19.49,0,0,0-2.16-.89l-2-.74-3.74,1.34c-5.4,1.94-5.52,2-5.34,2.16a16,16,0,0,0,2,.85l1.82.7-2.18.77-2.18.77-2.14-.84c-1.17-.46-2.21-.83-2.3-.83a26.94,26.94,0,0,1-4-1.63c0-.14,6.36-2.36,13.57-4.74l5.06-1.67,2,.73,2,.73,2.1-.74,2.1-.74,2.3.84,2.3.84,4.15-1.53c2.28-.84,4.19-1.57,4.24-1.63s0-.14-.19-.2L386,311.34l-1.8-.63-2.08.72-2.08.72-2.26-.71c-1.25-.39-3.2-1-4.35-1.43l-2.08-.72L367,310.66,362.76,312l-1.68-.58a5.31,5.31,0,0,1-1.6-.7c0-.07,4.75-1.69,10.46-3.6l10.38-3.48,2,.7,2,.7,1.82-.58,1.82-.58,1.87.6,1.87.6-1.91.64c-1,.35-1.82.69-1.71.75s1.09.41,2.19.77l2,.66,2.06-.67,2.06-.67,2.05.67a19.25,19.25,0,0,1,2.05.74,12.77,12.77,0,0,1-1.64.65,7.72,7.72,0,0,0-1.64.7,8.43,8.43,0,0,0,1.74.68,6.23,6.23,0,0,1,1.74.73,6.31,6.31,0,0,1-1.74.75,8.59,8.59,0,0,0-1.74.71,8.46,8.46,0,0,0,1.74.68,6,6,0,0,1,1.74.74c0,.09-.25.26-.56.38a27.69,27.69,0,0,0-3.44,1.4,32.3,32.3,0,0,1-3.18,1.18c-1.52.51-4,1.35-5.44,1.89-4.18,1.52-4,1.5-6.29.65l-2-.73-2.06.76a9.5,9.5,0,0,0-2.13,1c-.12.33,3.32,1.55,4.13,1.47a14.11,14.11,0,0,0,2.48-.78l1.77-.7,1.11.45c.61.25,1.55.61,2.09.8a3.4,3.4,0,0,1,.92.4s-2,.77-4.32,1.66-4.26,1.66-4.26,1.72a12.37,12.37,0,0,0,2.07.9c1.14.43,2,.86,1.9.94a20.23,20.23,0,0,1-2.18.89l-2,.74-2.36-.91-2.36-.91-2.36.86a7.42,7.42,0,0,0-2.2,1c.12.12,6.47,2.75,8.44,3.5.27.1.45.23.4.28a26.42,26.42,0,0,1-4.82,1.74h0Zm19.93-24a7.83,7.83,0,0,0,2-.78,7.15,7.15,0,0,0-1.86-.75l-1.86-.59-1.68.59c-.92.32-1.81.65-2,.73s.75.53,3.41,1.42C392,310.75,392.86,310.47,393.94,310.13Zm-12.51-1.55a13.22,13.22,0,0,0,1.79-.68c.08-.08-.63-.39-1.59-.71l-1.74-.57-1.74.57c-1,.31-1.67.64-1.58.73a23.93,23.93,0,0,0,3.12,1.17C379.74,309.11,380.52,308.87,381.43,308.58Zm-38.56,24.71c-1-.45-1.87-.84-1.9-.88a21.8,21.8,0,0,1,2.41-.93,13,13,0,0,0,2.47-1,8.22,8.22,0,0,0-1.85-.93c-1-.43-1.78-.85-1.69-.93a16,16,0,0,1,2.11-.82,17.64,17.64,0,0,0,2.12-.81c.09-.08.42,0,.72.12s1.15.51,1.88.82a11.06,11.06,0,0,1,1.49.7,6.67,6.67,0,0,1-2.1,1,12.93,12.93,0,0,0-2.26.94,9.55,9.55,0,0,0,1.85.9,13.2,13.2,0,0,1,1.94.92,21.42,21.42,0,0,1-4.92,1.83,13,13,0,0,1-2.26-.84Zm45.76-.94a21,21,0,0,0-2.32-1,6.21,6.21,0,0,1-2-1c.1-.06,2.17-.87,4.6-1.78l4.41-1.67,2.1.77a11.39,11.39,0,0,1,2.1.9,10.63,10.63,0,0,1-2,.91c-1.1.43-2.09.85-2.21.94s-1.08.5-2.15.92a22.34,22.34,0,0,0-2.17.94.3.3,0,0,1-.37,0Zm26.37-1c-1.28-.48-2.37-.91-2.41-1a9.39,9.39,0,0,1,1.86-.87,18.53,18.53,0,0,0,1.9-.83s-1-.39-2.2-.81a16.76,16.76,0,0,1-2.46-1,14.64,14.64,0,0,0-2.31-1,10.66,10.66,0,0,1-2-.82,6.33,6.33,0,0,1,1.49-.69,17.43,17.43,0,0,0,1.93-.85c.39-.24.73-.18,2.87.58l2.43.85,2-.8c1.54-.61,1.93-.84,1.64-1s-1.21-.45-2.23-.81l-1.84-.66,1-.45c.56-.25,1.39-.57,1.84-.72a4.82,4.82,0,0,0,1.13-.53,13.43,13.43,0,0,1,1.95-.9c.9-.36,1.67-.68,1.7-.71a16.11,16.11,0,0,0-2.16-.8L419,316.9l-1.79.72a11.81,11.81,0,0,1-2.19.72c-.41,0-8.46-2.75-9-3.09-.21-.12-.22-.18,0-.19a15.23,15.23,0,0,0,2-.69l1.73-.69,2.32.8,2.32.8,2-.75,2-.75,4.47,1.48c2.46.82,4.54,1.54,4.62,1.61s-.66.44-1.64.83l-1.78.7,2.43.81,2.43.81,1.83-.75,1.83-.75,4.93,1.59c3.22,1,4.8,1.63,4.56,1.72s-2,.84-3.9,1.7l-3.53,1.56-2.52-.89-2.52-.89-4,1.68a23.15,23.15,0,0,0-3.92,1.87,11.11,11.11,0,0,0,2.24,1c1.19.42,2.19.8,2.22.84a47.67,47.67,0,0,1-4.75,1.95c-.34.11-1.35.52-2.26.9l-1.64.7-2.33-.87Zm-61.62-1.78c-1.31-.55-1.9-.9-1.72-1s1.22-.49,2.38-.9l2.1-.75,2,.79a6.66,6.66,0,0,1,2,1,24.77,24.77,0,0,1-4.53,1.75,23.59,23.59,0,0,1-2.23-.86Zm47.23,0a21,21,0,0,1-2.31-1c-.18-.17,3.44-1.66,4-1.66a37,37,0,0,1,5,1.75c-.15.14-4.21,1.73-4.38,1.72S401.79,330,400.61,329.6Zm32.14-2-2-.76.88-.38,1.74-.75c1.13-.49,1.25-.48,3.72.42l2.12.77-1.64.76a7.75,7.75,0,0,1-2.22.73,14.36,14.36,0,0,1-2.59-.79Zm-37.37-3.42c-1.35-.51-3.33-1.25-4.39-1.63-2.18-.79-2.28-.84-1.74-1,.21-.07.68-.26,1-.41a3.46,3.46,0,0,1,.87-.29,1.53,1.53,0,0,0,.58-.21c.2-.11,1.54-.66,3-1.22l2.63-1,2.14.74a9.93,9.93,0,0,1,2.14.89,9.07,9.07,0,0,1-2,.92l-2,.77,2,.74a8.61,8.61,0,0,1,2.09.95,4.9,4.9,0,0,1-1.82.92l-2,.76a24.7,24.7,0,0,1-2.57-.89Zm-68-1.66-1.72-.75,4.8-1.6c2.64-.88,4.93-1.6,5.09-1.6a16,16,0,0,1,3.5,1.43c0,.1-9.64,3.3-9.88,3.28C329.16,323.26,328.35,322.92,327.4,322.51ZM404,320.87a9.44,9.44,0,0,1-2-.87c0-.31,3.55-1.49,4.18-1.38,1.1.18,4.27,1.42,4.09,1.59a17,17,0,0,1-3.86,1.41A16.45,16.45,0,0,1,404,320.87Z" transform="translate(-309.74 -302.39)" style="fill:#946a49"/><path d="M380.91,464.29l-4.56-2.11-1.79-.84v-3.09c0-2.51.05-3.09.29-3.09a9.84,9.84,0,0,1,1.79.7c1.63.76,7.14,3.19,7.23,3.19s.06-4.4.06-9.77v-9.77l-1.87-.87c-3.5-1.63-6.79-3.19-7.1-3.36s-.32-.77-.36-3.28c0-2,0-3.11.15-3.11a15.16,15.16,0,0,1,1.95.81c2.87,1.32,2.57,1.57,2.57-2.12a14.45,14.45,0,0,1,.18-3.19,21,21,0,0,1,2.17.92,20,20,0,0,0,2.18.92A13.09,13.09,0,0,0,384,423v-3.23l-2.2-1c-1.21-.54-2.27-1-2.35-1a17,17,0,0,0-.21,3.15l-.06,3.15-2.15-1-2.15-1-.1-3.35-.1-3.35-4.59-2.11c-2.53-1.16-4.63-2.11-4.67-2.11s-.05,3,0,6.57l.05,6.57,2.31,1,2.31,1v6.64l2.26,1,2.26,1v3.19a30,30,0,0,1-.09,3.19s-1-.42-2.13-.92a18.19,18.19,0,0,0-2.28-.92c-.17,0-.22.89-.18,3.23l.06,3.23,2.31,1.12,2.31,1.12v6.46l-2.62-1.19-4.44-2a18.25,18.25,0,0,0-2-.85,13.66,13.66,0,0,0-.18,3.08,15.53,15.53,0,0,1-.15,3.07c-.08,0-2.14-.91-4.56-2l-4.41-2-.1-3.26-.1-3.26-4.1-1.89c-2.26-1-4.57-2.07-5.15-2.29S344,441,341.87,440a43.15,43.15,0,0,0-4.14-1.86c-.26,0-.31.49-.31,3.1,0,2.87,0,3.09-.36,3s-1.21-.52-2.25-1l-1.89-.86-.06-3.24-.06-3.24-2.15-1-2.15-1-.06-3.25a18.65,18.65,0,0,0-.24-3.43,23,23,0,0,0-2.35-1.17l-2.17-1v3.27a26.62,26.62,0,0,1-.1,3.27c-.06,0-1-.42-2.16-.92a20.51,20.51,0,0,0-2.26-.92,10.12,10.12,0,0,0-.2,3.09,12.55,12.55,0,0,1-.18,3l-2.25-1-2.07-.92v-13l1.08.49,2.26,1L319,423v-3.18c0-2.25.07-3.18.23-3.18a17.77,17.77,0,0,1,2.25.92c1.11.51,2.06.92,2.12.92a23.14,23.14,0,0,0,.11-3.18,25.19,25.19,0,0,1,.1-3.18,32.51,32.51,0,0,1,4.46,2.12,21.15,21.15,0,0,1,.15,3.33v3.1l1.28.57c1.62.72,7.13,3.32,7.54,3.56.25.14.32.79.36,3.45l.06,3.27,2.1.94c5.21,2.35,6.78,3,7,3a13.9,13.9,0,0,0,.13-3.19l-.06-3.19-2.15-1-2.15-1-.06-3.31-.06-3.31,1.59.74,2.26,1,.67.29-.05-6.59-.05-6.59-4.41-2c-2.43-1.11-4.53-2-4.67-2s-.26.74-.26,3.08v3.09l-.46-.14c-.25-.08-1.24-.52-2.21-1l-1.75-.84-.06-3.29-.06-3.29-4.56-2.08-4.56-2.08-.05,6.54c0,3.6-.1,6.54-.15,6.54s-.88-.36-1.84-.81c-2.87-1.32-2.57-1.57-2.57,2.12a12.83,12.83,0,0,1-.19,3.19,20.06,20.06,0,0,1-2.18-.92,20.84,20.84,0,0,0-2.17-.92,13.43,13.43,0,0,0-.18,3.08c0,2.33-.06,3.07-.26,3.07a17,17,0,0,1-2.21-.92l-1.95-.91L310,412.3l-.05-6.57.46.18c.26.1,1.18.51,2.07.92a14,14,0,0,0,1.79.74,13.59,13.59,0,0,0,.25-3.17l.06-3.17,2.21,1,2.21,1V390.11l-2.26-1-2.26-1V368.26l-2.26-1-2.26-1V363a26,26,0,0,1,.1-3.19c.05,0,.88.36,1.84.81,2.87,1.32,2.57,1.57,2.57-2.12v-3.19l-2-.92c-1.1-.51-2.14-1-2.31-1.1s-.32-.78-.36-3.22a30.21,30.21,0,0,1,0-3.31c.07-.19.42-.11,1.29.32,2.29,1.11,3,1.42,3.19,1.33a18.69,18.69,0,0,0,.15-3.28c0-3,0-3.18.36-3.05s1.21.52,2.26,1l1.9.86v6.81l2.1,1,2.36,1.08c.2.08.26-.62.26-3.1s.06-3.2.26-3.19,2.15.92,4.46,2a41,41,0,0,0,4.36,1.93,19.09,19.09,0,0,0,.15-3.33v-3.24l-4.56-2.07-4.56-2.07-.06-3.29-.06-3.29-.83-.33c-.46-.18-.75-.41-.66-.5s3.48-1.27,7.52-2.62,7.45-2.55,7.57-2.67,0-.31-.54-.54l-1.93-.85-1.17-.54,4.77-1.55a32.16,32.16,0,0,0,4.77-1.77,5.76,5.76,0,0,0-1.85-.93,10,10,0,0,1-1.85-.83,12.54,12.54,0,0,1,2.15-.81,6.2,6.2,0,0,0,2-.83,13.6,13.6,0,0,0-1.64-.71,5.94,5.94,0,0,1-1.49-.7,13.9,13.9,0,0,1,2.41-.91l2.41-.78,1.84.71,1.84.71,2.16-.67,4.59-1.42,2.43-.75,1.84.66a11.67,11.67,0,0,1,1.93.81c.09.14-6.84,2.56-11.23,3.92a10.37,10.37,0,0,0-2.21.83,7.31,7.31,0,0,0,1.74.83,10,10,0,0,1,1.74.79c0,.06-2.75,1.06-6.1,2.24-8,2.79-8.25,2.89-8.25,3.08a7.06,7.06,0,0,0,1.74.85,9.22,9.22,0,0,1,1.74.81,14.19,14.19,0,0,1-2.26.9,11.24,11.24,0,0,0-2.26.93,10.46,10.46,0,0,0,2.06,1l2.06.89-2.5.89c-1.37.49-2.58.89-2.68.89a22,22,0,0,1-2.2-.91l-2-.91-2.54.91-2.73,1a24.11,24.11,0,0,0,3.32,1.67l3.51,1.61.06,3.16.06,3.16,2.2,1,2.2,1,.06-3.16.06-3.16-1.4-.64a6.74,6.74,0,0,1-1.33-.7s1.2-.48,2.59-1l2.52-.93,2.09.94c1.15.52,2.16,1,2.24,1.07a8.91,8.91,0,0,1-2.31,1l-2.46.9.57.35a7.73,7.73,0,0,0,1.32.6,1.61,1.61,0,0,1,.87.56,27.52,27.52,0,0,1,.12,3.34v3l2.21,1.06c1.21.58,2.34,1.15,2.51,1.27s1.21.63,2.31,1.13l2,.91v6.56l-.67-.28c-.37-.15-1.27-.56-2-.91a8.54,8.54,0,0,0-1.59-.63c-.19,0-.26.77-.26,3.15v3.15l4.46,2c2.45,1.1,4.57,2.09,4.71,2.2s.27,1.17.31,3.38l.06,3.18,1.95.89c1.07.49,2,.89,2.1.9a15.39,15.39,0,0,0,.15-3.07,17.84,17.84,0,0,1,.13-3.08,13.18,13.18,0,0,1,1.49.64c.74.35,1.75.81,2.22,1l.87.38V358.77L362,357.16c-1.83-.89-3.91-1.88-4.62-2.19l-1.28-.57v-3c0-2,.08-3,.21-3a4.28,4.28,0,0,1,1,.41c.77.39,1.39.57.89.25-.14-.09.87-.59,2.38-1.19l2.61-1,2.41,1.07,2.41,1.07-2.32,1L363,350.95c-.28.1.75.66,3.79,2.06,2.3,1.05,5.15,2.33,6.33,2.83s2.83,1.22,3.66,1.61a8.74,8.74,0,0,0,1.88.7A18.69,18.69,0,0,0,381.5,357l2.46-1.1,1.91.86c3.48,1.56,2.84,1.54,5.78.2a18.52,18.52,0,0,0,2.59-1.31,7.15,7.15,0,0,0-1.59-.82l-3.13-1.4c-2.44-1.12-5.19-2.3-5.35-2.3s-8-3.39-12.66-5.5l-2.72-1.22,2.52-1,2.52-1,2.26,1a15.57,15.57,0,0,0,2.77,1,13.84,13.84,0,0,0,2.81-.93l2.3-.95,2.26.95a16.81,16.81,0,0,0,2.64.95,37.93,37.93,0,0,0,5.63-2.32c.82-.38,2-.9,2.67-1.16a5.57,5.57,0,0,0,1.28-.63,7.68,7.68,0,0,0-2.16-1.05,14.78,14.78,0,0,1-2.26-1,4.36,4.36,0,0,1,1.18-.6q1.16-.48,2.31-1l1.13-.5-2.21-.87c-1.21-.48-2.25-.92-2.31-1a9.23,9.23,0,0,1,2-1l2.12-.87,2.19.83a17.05,17.05,0,0,0,2.57.83,16.58,16.58,0,0,0,2.63-.93l2.24-.93,2.37.88a8.9,8.9,0,0,1,2.35,1.09,9,9,0,0,1-2.18,1.1l-4.52,1.88-2.36,1,.92.39c.51.21,1.64.66,2.51,1a6.94,6.94,0,0,1,1.59.72,12.36,12.36,0,0,1-2.1,1c-5.38,2.25-12.05,5.2-12.05,5.33s1.68.85,7.5,3.2l2.89,1.17,2.86-1.32c4.79-2.22,11.34-5.18,13.93-6.31a20.93,20.93,0,0,0,2.56-1.23,34.41,34.41,0,0,1,4.49-2.05,19.4,19.4,0,0,0,4.18-2.06,16.78,16.78,0,0,0-2-.81l-2.35-.86c-.46-.17-.31-.28,1.6-1.13a6,6,0,0,0,1.94-1.09,22.75,22.75,0,0,0-2.36-.92,7.69,7.69,0,0,1-2.11-.92,12.78,12.78,0,0,1,1.93-.92l1.84-.77,2.41.84a21.38,21.38,0,0,0,2.78.84,14.12,14.12,0,0,0,2.43-.91l2.05-.91,2.27.81a23.22,23.22,0,0,0,2.54.81,14.87,14.87,0,0,0,2.19-.89l1.92-.89-2-.67c-1.13-.37-2.33-.8-2.66-.95s-1.62-.63-2.84-1.07l-2.23-.79,1.77-.76,1.77-.76,5.07,1.64,5.07,1.64,2.05-.92c1.13-.5,2.13-.92,2.21-.92.24,0,.06,104.77-.17,105s-2,1-4.2,2c-5.57,2.49-12.06,5.43-14.26,6.45-1,.47-4.2,1.92-7.08,3.22l-15.69,7.13c-5.75,2.62-12.26,5.58-14.46,6.57l-6.67,3c-2.79,1.29-9.11,4.17-10.88,5l-1,.46-2.76-1.27h0Zm-20.09-25.55v-3.29l-2.17-1a24,24,0,0,0-2.36-1,14.93,14.93,0,0,0-.18,3.29V440l2.1,1a20.69,20.69,0,0,0,2.36,1c.2,0,.26-.77.26-3.27Zm0-16.61-.05-6.44-4.51-2.08a34.13,34.13,0,0,0-4.67-1.94c-.09.08-.13,3-.1,6.58l.05,6.44,4.51,2.08a35.52,35.52,0,0,0,4.67,1.95C360.75,428.63,360.8,425.67,360.77,422.13ZM384,403.29v-9.81l-2.1-1-2.36-1.08c-.2-.08-.26,1.29-.26,6.48,0,3.62,0,6.59-.07,6.59s-1.06-.46-2.26-1-2.24-1-2.29-1a26.32,26.32,0,0,0,0,3.22l.06,3.22,4.41,2.1c2.43,1.16,4.53,2.11,4.67,2.11s.26-2.08.26-9.8Zm-23.18,2.54v-3.17l2.21,1,2.21,1,.15-4.66c.09-2.56.13-5.49.1-6.5,0-1.73-.08-1.85-.56-2.1s-5.28-2.52-7.33-3.46l-1.49-.68v13.3l-1.94-.9c-3.13-1.45-2.8-1.7-2.74,2.06l.06,3.23,4.31,2c2.37,1.1,4.47,2,4.67,2s.36-.26.36-3.15ZM374.55,399v-3.23l-2.06-.92-2.25-1a11.48,11.48,0,0,0-.19,3.2v3.26l2,.94a19.48,19.48,0,0,0,2.26,1c.19,0,.26-.75.25-3.21Zm-36.92-7v-6.53l-2.21-1c-1.21-.55-2.28-1.05-2.36-1.13A18.77,18.77,0,0,1,333,380l.06-3.21,2.18,1,2.18,1,.15-6.35c.1-4.31.08-6.42-.06-6.57a32.12,32.12,0,0,0-4.36-2,48.43,48.43,0,0,0-.19,6.38c0,5.78,0,6.37-.33,6.25l-2.26-1-1.93-.86v-3.29c0-1.81,0-4.77,0-6.58v-3.28L326,360.45c-5.8-2.57-6.63-2.93-6.85-2.93s-.19,1.78-.08,6.41c.08,3.53.18,6.46.22,6.52s2.06,1,4.49,2.13l4.42,2v6.47l-2.51-1.14-4.44-2a20.1,20.1,0,0,0-2.1-.9,15.69,15.69,0,0,0-.18,3.29v3.29l2.36,1.11,2.36,1.11v6.41l2.14,1a21.05,21.05,0,0,0,2.35,1,10.2,10.2,0,0,0,.27-3.17l.06-3.17,2.15,1,2.15,1,.06,3.29.06,3.29,2.3,1,2.35,1.06s.05-2.93.05-6.52h0Zm13.92-3.94,0-2.78L347,383.2c-2.52-1.15-4.65-2.09-4.72-2.09a19.4,19.4,0,0,0-.08,3.29l.06,3.29,2.3,1,2.3,1,.06,3.29.06,3.29,2.15,1,2.15,1,.13-3.72C351.47,392.53,351.54,389.6,351.56,388.07Zm23-2.15v-3.19l-1.38-.63-2.26-1-.87-.38v6.47l2,.95a19.56,19.56,0,0,0,2.26,1c.2,0,.26-.74.26-3.17Zm0-19.76v-3l-1-.42-2.16-1-1.18-.53.06,3.1.06,3.1,1.95.89c1.07.49,2,.89,2.1.9a15.15,15.15,0,0,0,.15-3Zm9.23-2.28V360.6l-.67-.29-2.21-1-1.54-.71.06,3.31.06,3.31,2.09,1,2.14,1s.05-1.46.05-3.26ZM332.67,357a35.16,35.16,0,0,0-4.15-1.95,21,21,0,0,0-.07,3.21l.06,3.21,2.15,1,2.15,1,.06-3.09c0-2.31,0-3.15-.2-3.33Zm9.48.85v-3.15l-2.07-1a21.93,21.93,0,0,0-2.26-1,13.31,13.31,0,0,0-.19,3.13v3.13l2.1,1c1.16.53,2.17,1,2.26,1a16.23,16.23,0,0,0,.15-3.14Zm18.26-7.93a1.23,1.23,0,0,0-.51-.2c-.11,0-.07.09.1.2a1.23,1.23,0,0,0,.51.2C360.62,350.13,360.57,350,360.4,349.93ZM339.89,419.3l-2.15-1-.06-3.21-.06-3.21.88.38,2.26,1,1.38.63v3.19c0,1.75,0,3.19-.05,3.18S341.08,419.84,339.89,419.3Zm7.18-75.51c-.73-.3-1.83-.77-2.45-1.05l-1.11-.51,2.6-1c1.43-.55,2.6-1,2.6-1s-.92-.45-2-.94a6.2,6.2,0,0,1-1.9-1,52.36,52.36,0,0,1,5-1.83,12.16,12.16,0,0,1,1.69.68l2,.89c.5.21.49.23-.49.66a7.25,7.25,0,0,1-1.16.44,11.68,11.68,0,0,0-2.65,1.21,13,13,0,0,0,2.14,1.05,6.72,6.72,0,0,1,2,1.06,27.47,27.47,0,0,1-3.63,1.49l-1.23.46-1.33-.54Zm8.88-.39a15.71,15.71,0,0,1-2.1-1.06,20,20,0,0,1,2.53-1.07l2.53-1,2.18,1a13.08,13.08,0,0,1,2.18,1.08,34.89,34.89,0,0,1-5,2c-.11,0-1.15-.45-2.3-1Zm60.31-4.09a8.51,8.51,0,0,1-2.36-1.11,23.45,23.45,0,0,1,2.25-1.07l2.1-.92,2.56,1a16.63,16.63,0,0,1,2.56,1.09,30,30,0,0,1-4.43,2c-.1,0-1.31-.44-2.69-1Zm-39.91-.19a6.15,6.15,0,0,1-2.05-1.1,21.15,21.15,0,0,1,2.3-1l2.14-.85,2.43,1a18.88,18.88,0,0,1,2.43,1.09,26.19,26.19,0,0,1-4.66,1.83,18.43,18.43,0,0,1-2.58-1Zm10.16.1a11.12,11.12,0,0,1-2.1-1,13,13,0,0,1,2.28-1.07l2.28-.93,2.34.93a15.58,15.58,0,0,1,2.33,1,23.59,23.59,0,0,1-4.62,1.85A16.39,16.39,0,0,1,386.5,339.22Zm-29.24-4.11-2-.84,2.36-.88,2.36-.88,2,.83c1.1.46,2,.86,2.06.88a47.56,47.56,0,0,1-4.62,1.74c-.08,0-1-.4-2.15-.86Zm16.74-1a43.1,43.1,0,0,0-4.68-1.85c-.19,0-1.92-.7-6.37-2.59a7.66,7.66,0,0,1-1.9-1,9.06,9.06,0,0,1,2.47-1.1c6.28-2.22,10.89-4,11-4.29s-.42-.38-1-.58-1.44-.52-1.88-.71l-.79-.35,1.2-.44,2.08-.77c.48-.18.81-.4.72-.48a19.49,19.49,0,0,0-2.16-.89l-2-.74-3.74,1.34c-5.4,1.94-5.52,2-5.34,2.16a16,16,0,0,0,2,.85l1.82.7-2.18.77-2.18.77-2.14-.84c-1.17-.46-2.21-.83-2.3-.83a26.94,26.94,0,0,1-4-1.63c0-.14,6.36-2.36,13.57-4.74l5.06-1.67,2,.73,2,.73,2.1-.74,2.1-.74,2.3.84,2.3.84,4.15-1.53c2.28-.84,4.19-1.57,4.24-1.63s0-.14-.19-.2L386,311.34l-1.8-.63-2.08.72-2.08.72-2.26-.71c-1.25-.39-3.2-1-4.35-1.43l-2.08-.72L367,310.66,362.76,312l-1.68-.58a5.31,5.31,0,0,1-1.6-.7c0-.07,4.75-1.69,10.46-3.6l10.38-3.48,2,.7,2,.7,1.82-.58,1.82-.58,1.87.6,1.87.6-1.91.64c-1,.35-1.82.69-1.71.75s1.09.41,2.19.77l2,.66,2.06-.67,2.06-.67,2.05.67a19.25,19.25,0,0,1,2.05.74,12.77,12.77,0,0,1-1.64.65,7.72,7.72,0,0,0-1.64.7,8.43,8.43,0,0,0,1.74.68,6.23,6.23,0,0,1,1.74.73,6.31,6.31,0,0,1-1.74.75,8.59,8.59,0,0,0-1.74.71,8.46,8.46,0,0,0,1.74.68,6,6,0,0,1,1.74.74c0,.09-.25.26-.56.38a27.69,27.69,0,0,0-3.44,1.4,32.3,32.3,0,0,1-3.18,1.18c-1.52.51-4,1.35-5.44,1.89-4.18,1.52-4,1.5-6.29.65l-2-.73-2.06.76a9.5,9.5,0,0,0-2.13,1c-.12.33,3.32,1.55,4.13,1.47a14.11,14.11,0,0,0,2.48-.78l1.77-.7,1.11.45c.61.25,1.55.61,2.09.8a3.4,3.4,0,0,1,.92.4s-2,.77-4.32,1.66-4.26,1.66-4.26,1.72a12.37,12.37,0,0,0,2.07.9c1.14.43,2,.86,1.9.94a20.23,20.23,0,0,1-2.18.89l-2,.74-2.36-.91-2.36-.91-2.36.86a7.42,7.42,0,0,0-2.2,1c.12.12,6.47,2.75,8.44,3.5.27.1.45.23.4.28a26.42,26.42,0,0,1-4.82,1.74h0Zm19.93-24a7.83,7.83,0,0,0,2-.78,7.15,7.15,0,0,0-1.86-.75l-1.86-.59-1.68.59c-.92.32-1.81.65-2,.73s.75.53,3.41,1.42C392,310.75,392.86,310.47,393.94,310.13Zm-12.51-1.55a13.22,13.22,0,0,0,1.79-.68c.08-.08-.63-.39-1.59-.71l-1.74-.57-1.74.57c-1,.31-1.67.64-1.58.73a23.93,23.93,0,0,0,3.12,1.17C379.74,309.11,380.52,308.87,381.43,308.58Zm-38.56,24.71c-1-.45-1.87-.84-1.9-.88a21.8,21.8,0,0,1,2.41-.93,13,13,0,0,0,2.47-1,8.22,8.22,0,0,0-1.85-.93c-1-.43-1.78-.85-1.69-.93a16,16,0,0,1,2.11-.82,17.64,17.64,0,0,0,2.12-.81c.09-.08.42,0,.72.12s1.15.51,1.88.82a11.06,11.06,0,0,1,1.49.7,6.67,6.67,0,0,1-2.1,1,12.93,12.93,0,0,0-2.26.94,9.55,9.55,0,0,0,1.85.9,13.2,13.2,0,0,1,1.94.92,21.42,21.42,0,0,1-4.92,1.83,13,13,0,0,1-2.26-.84Zm45.76-.94a21,21,0,0,0-2.32-1,6.21,6.21,0,0,1-2-1c.1-.06,2.17-.87,4.6-1.78l4.41-1.67,2.1.77a11.39,11.39,0,0,1,2.1.9,10.63,10.63,0,0,1-2,.91c-1.1.43-2.09.85-2.21.94s-1.08.5-2.15.92a22.34,22.34,0,0,0-2.17.94.3.3,0,0,1-.37,0Zm26.37-1c-1.28-.48-2.37-.91-2.41-1a9.39,9.39,0,0,1,1.86-.87,18.53,18.53,0,0,0,1.9-.83s-1-.39-2.2-.81a16.76,16.76,0,0,1-2.46-1,14.64,14.64,0,0,0-2.31-1,10.66,10.66,0,0,1-2-.82,6.33,6.33,0,0,1,1.49-.69,17.43,17.43,0,0,0,1.93-.85c.39-.24.73-.18,2.87.58l2.43.85,2-.8c1.54-.61,1.93-.84,1.64-1s-1.21-.45-2.23-.81l-1.84-.66,1-.45c.56-.25,1.39-.57,1.84-.72a4.82,4.82,0,0,0,1.13-.53,13.43,13.43,0,0,1,1.95-.9c.9-.36,1.67-.68,1.7-.71a16.11,16.11,0,0,0-2.16-.8L419,316.9l-1.79.72a11.81,11.81,0,0,1-2.19.72c-.41,0-8.46-2.75-9-3.09-.21-.12-.22-.18,0-.19a15.23,15.23,0,0,0,2-.69l1.73-.69,2.32.8,2.32.8,2-.75,2-.75,4.47,1.48c2.46.82,4.54,1.54,4.62,1.61s-.66.44-1.64.83l-1.78.7,2.43.81,2.43.81,1.83-.75,1.83-.75,4.93,1.59c3.22,1,4.8,1.63,4.56,1.72s-2,.84-3.9,1.7l-3.53,1.56-2.52-.89-2.52-.89-4,1.68a23.15,23.15,0,0,0-3.92,1.87,11.11,11.11,0,0,0,2.24,1c1.19.42,2.19.8,2.22.84a47.67,47.67,0,0,1-4.75,1.95c-.34.11-1.35.52-2.26.9l-1.64.7-2.33-.87Zm-61.62-1.78c-1.31-.55-1.9-.9-1.72-1s1.22-.49,2.38-.9l2.1-.75,2,.79a6.66,6.66,0,0,1,2,1,24.77,24.77,0,0,1-4.53,1.75,23.59,23.59,0,0,1-2.23-.86Zm47.23,0a21,21,0,0,1-2.31-1c-.18-.17,3.44-1.66,4-1.66a37,37,0,0,1,5,1.75c-.15.14-4.21,1.73-4.38,1.72S401.79,330,400.61,329.6Zm32.14-2-2-.76.88-.38,1.74-.75c1.13-.49,1.25-.48,3.72.42l2.12.77-1.64.76a7.75,7.75,0,0,1-2.22.73,14.36,14.36,0,0,1-2.59-.79Zm-37.37-3.42c-1.35-.51-3.33-1.25-4.39-1.63-2.18-.79-2.28-.84-1.74-1,.21-.07.68-.26,1-.41a3.46,3.46,0,0,1,.87-.29,1.53,1.53,0,0,0,.58-.21c.2-.11,1.54-.66,3-1.22l2.63-1,2.14.74a9.93,9.93,0,0,1,2.14.89,9.07,9.07,0,0,1-2,.92l-2,.77,2,.74a8.61,8.61,0,0,1,2.09.95,4.9,4.9,0,0,1-1.82.92l-2,.76a24.7,24.7,0,0,1-2.57-.89Zm-68-1.66-1.72-.75,4.8-1.6c2.64-.88,4.93-1.6,5.09-1.6a16,16,0,0,1,3.5,1.43c0,.1-9.64,3.3-9.88,3.28C329.16,323.26,328.35,322.92,327.4,322.51ZM404,320.87a9.44,9.44,0,0,1-2-.87c0-.31,3.55-1.49,4.18-1.38,1.1.18,4.27,1.42,4.09,1.59a17,17,0,0,1-3.86,1.41A16.45,16.45,0,0,1,404,320.87Z" transform="translate(-309.74 -302.39)" style="fill:#64a43a"/><path d="M380.91,464.29l-4.56-2.11-1.79-.84v-3.09c0-2.51.05-3.09.29-3.09a9.84,9.84,0,0,1,1.79.7c1.63.76,7.14,3.19,7.23,3.19s.06-4.4.06-9.77v-9.77l-1.87-.87c-3.5-1.63-6.79-3.19-7.1-3.36s-.32-.77-.36-3.28c0-2,0-3.11.15-3.11a15.16,15.16,0,0,1,1.95.81c2.87,1.32,2.57,1.57,2.57-2.12a14.45,14.45,0,0,1,.18-3.19,21,21,0,0,1,2.17.92,20,20,0,0,0,2.18.92A13.09,13.09,0,0,0,384,423v-3.23l-2.2-1c-1.21-.54-2.27-1-2.35-1a17,17,0,0,0-.21,3.15l-.06,3.15-2.15-1-2.15-1-.1-3.35-.1-3.35-4.59-2.11c-2.53-1.16-4.63-2.11-4.67-2.11s-.05,3,0,6.57l.05,6.57,2.31,1,2.31,1v6.64l2.26,1,2.26,1v3.19a30,30,0,0,1-.09,3.19s-1-.42-2.13-.92a18.19,18.19,0,0,0-2.28-.92c-.17,0-.22.89-.18,3.23l.06,3.23,2.31,1.12,2.31,1.12v6.46l-2.62-1.19-4.44-2a18.25,18.25,0,0,0-2-.85,13.66,13.66,0,0,0-.18,3.08,15.53,15.53,0,0,1-.15,3.07c-.08,0-2.14-.91-4.56-2l-4.41-2-.1-3.26-.1-3.26-4.1-1.89c-2.26-1-4.57-2.07-5.15-2.29S344,441,341.87,440a43.15,43.15,0,0,0-4.14-1.86c-.26,0-.31.49-.31,3.1,0,2.87,0,3.09-.36,3s-1.21-.52-2.25-1l-1.89-.86-.06-3.24-.06-3.24-2.15-1-2.15-1-.06-3.25a18.65,18.65,0,0,0-.24-3.43,23,23,0,0,0-2.35-1.17l-2.17-1v3.27a26.62,26.62,0,0,1-.1,3.27c-.06,0-1-.42-2.16-.92a20.51,20.51,0,0,0-2.26-.92,10.12,10.12,0,0,0-.2,3.09,12.55,12.55,0,0,1-.18,3l-2.25-1-2.07-.92v-13l1.08.49,2.26,1L319,423v-3.18c0-2.25.07-3.18.23-3.18a17.77,17.77,0,0,1,2.25.92c1.11.51,2.06.92,2.12.92a23.14,23.14,0,0,0,.11-3.18,25.19,25.19,0,0,1,.1-3.18,32.51,32.51,0,0,1,4.46,2.12,21.15,21.15,0,0,1,.15,3.33v3.1l1.28.57c1.62.72,7.13,3.32,7.54,3.56.25.14.32.79.36,3.45l.06,3.27,2.1.94c5.21,2.35,6.78,3,7,3a13.9,13.9,0,0,0,.13-3.19l-.06-3.19-2.15-1-2.15-1-.06-3.31-.06-3.31,1.59.74,2.26,1,.67.29-.05-6.59-.05-6.59-4.41-2c-2.43-1.11-4.53-2-4.67-2s-.26.74-.26,3.08v3.09l-.46-.14c-.25-.08-1.24-.52-2.21-1l-1.75-.84-.06-3.29-.06-3.29-4.56-2.08-4.56-2.08-.05,6.54c0,3.6-.1,6.54-.15,6.54s-.88-.36-1.84-.81c-2.87-1.32-2.57-1.57-2.57,2.12a12.83,12.83,0,0,1-.19,3.19,20.06,20.06,0,0,1-2.18-.92,20.84,20.84,0,0,0-2.17-.92,13.43,13.43,0,0,0-.18,3.08c0,2.33-.06,3.07-.26,3.07a17,17,0,0,1-2.21-.92l-1.95-.91L310,412.3l-.05-6.57.46.18c.26.1,1.18.51,2.07.92a14,14,0,0,0,1.79.74,13.59,13.59,0,0,0,.25-3.17l.06-3.17,2.21,1,2.21,1V390.11l-2.26-1-2.26-1V368.26l-2.26-1-2.26-1V363a26,26,0,0,1,.1-3.19c.05,0,.88.36,1.84.81,2.87,1.32,2.57,1.57,2.57-2.12v-3.19l-2-.92c-1.1-.51-2.14-1-2.31-1.1s-.32-.79-.36-3.39c0-2.08,0-3.21.15-3.21a20.12,20.12,0,0,1,2.26.92c1.13.51,2.1.92,2.15.92a27.82,27.82,0,0,0,.15-3.26l.06-3.25,2.15,1,2.15,1,.06,3.36.06,3.36,2.3,1c1.27.57,2.52,1.1,2.78,1.18s1.35.54,2.41,1l1.94.9v3.29a17.8,17.8,0,0,1-.15,3.29c-.08,0-1.26-.5-2.62-1.11a67.33,67.33,0,0,0-6.48-2.79c-.16,0-.19,1.76-.08,6.41.08,3.53.18,6.46.22,6.52s2.06,1,4.49,2.13l4.42,2v6.47l-2.51-1.14-4.44-2a20.1,20.1,0,0,0-2.1-.9,15.68,15.68,0,0,0-.18,3.29v3.29l2.36,1.11,2.36,1.11v6.41l2.14,1a21.08,21.08,0,0,0,2.35,1,10.2,10.2,0,0,0,.27-3.17l.06-3.17,2.15,1,2.15,1,.06,3.29.06,3.29,1.17.52,2.35,1,1.18.53V385.49l-2.21-1c-1.21-.55-2.28-1.05-2.36-1.13A18.77,18.77,0,0,1,333,380l.06-3.21,2.18,1,2.18,1,.15-6.35c.1-4.31.08-6.42-.06-6.57a32.12,32.12,0,0,0-4.36-2,48.43,48.43,0,0,0-.19,6.38c0,5.78,0,6.37-.33,6.25l-2.26-1-1.93-.86v-3.29c0-5.76,0-9.63.11-9.71a13.68,13.68,0,0,1,2.16.86c1.15.52,2.12.94,2.17.94s.09-4.38.09-9.74.08-9.74.18-9.74a20.86,20.86,0,0,1,2.17.92,20,20,0,0,0,2.18.92,11.89,11.89,0,0,0,.19-3.07V339.7l2.21,1,2.21,1,.06,3.18.06,3.18-2.18-1c-1.2-.56-2.22-1-2.26-1s-.06,3,0,6.59l.05,6.59,2.15,1,2.15,1,.06-3.26c.07-3.78-.27-3.54,2.82-2.1l1.93.9.06,3.44.06,3.44.92.45c.51.25,1.52.7,2.26,1s2.37,1,3.64,1.58l2.3,1,.06,3.28.06,3.28,2.15,1,2.15,1,.06-3.16c0-1.74.09-3.16.14-3.16s1.08.45,2.3,1l2.22,1,.06-3.28.06-3.28.46.12a45.82,45.82,0,0,1,4.65,2.2c1.54.85,8.43,4.08,8.7,4.08a13.22,13.22,0,0,1,2.1.84c1,.46,2,.92,2.28,1l.47.18L384,367.1l-.06-6.62,1.74-.79c1-.44,2.57-1.13,3.59-1.55s2.86-1.24,4.1-1.84l4.15-2a13.84,13.84,0,0,0,1.9-1,19.07,19.07,0,0,0-2.31-1.06c-1.27-.53-2.4-1-2.51-1.12s-5.16-2.26-5.35-2.26-1.26.5-2.65,1.11l-2.53,1.1L381.45,350a17.28,17.28,0,0,1-2.59-1.27,33.38,33.38,0,0,1,4.85-2.06,19.81,19.81,0,0,0,2.27-.9c1.13-.49,2.41-1,2.85-1.15.7-.23,1.71-.63,3.05-1.23s2.31-1,2.72-1.12c.26-.08,1.39-.54,2.51-1l2-.89,2.31.93c1.27.51,2.33.95,2.36,1a6.18,6.18,0,0,1-1.13.53c-.65.27-2,.84-2.92,1.28l-2.15,1c-1.4.62-2.42,1.06-2.87,1.23-.6.23-.67.52-.15.68.2.06,2.53,1,5.17,2.08s4.92,2,5.06,2,1.66-.65,3.39-1.45c8.13-3.76,10.7-4.92,12.36-5.61,1-.41,2.7-1.2,3.82-1.76s2.8-1.34,3.73-1.73,2.49-1.07,3.45-1.52c1.41-.66,1.67-.84,1.33-1l-1.13-.44c-.39-.16-1.29-.48-2-.72a4.09,4.09,0,0,1-1.28-.56,2.34,2.34,0,0,1,.87-.52l1.94-.86a6,6,0,0,1,1.35-.48,22.16,22.16,0,0,1,2.54.8l2.25.8,4.61-2c2.53-1.12,6.11-2.73,7.94-3.58s3.68-1.67,4.1-1.82,1.49-.61,2.37-1,1.65-.74,1.7-.74,0,104.81-.23,105-2,1-4.2,2c-5.57,2.49-12.06,5.43-14.26,6.45-1,.47-4.2,1.92-7.08,3.22l-15.69,7.13c-5.75,2.62-12.26,5.58-14.46,6.57l-6.67,3c-2.79,1.29-9.11,4.17-10.88,5l-1,.46-2.76-1.27h0Zm-20.09-25.55v-3.29l-2.17-1a24,24,0,0,0-2.36-1,14.93,14.93,0,0,0-.18,3.29V440l2.1,1a20.69,20.69,0,0,0,2.36,1c.2,0,.26-.77.26-3.27Zm0-16.61-.05-6.44-4.51-2.08a34.13,34.13,0,0,0-4.67-1.94c-.09.08-.13,3-.1,6.58l.05,6.44,4.51,2.08a35.52,35.52,0,0,0,4.67,1.95C360.75,428.63,360.8,425.67,360.77,422.13ZM384,403.29v-9.81l-2.1-1-2.36-1.08c-.2-.08-.26,1.29-.26,6.48,0,3.62,0,6.59-.07,6.59s-1.06-.46-2.26-1-2.24-1-2.29-1a26.32,26.32,0,0,0,0,3.22l.06,3.22,4.41,2.1c2.43,1.16,4.53,2.11,4.67,2.11s.26-2.08.26-9.8Zm-23.18,2.54v-3.17l2.21,1,2.21,1,.15-4.66c.09-2.56.13-5.49.1-6.5,0-1.73-.08-1.85-.56-2.1s-5.28-2.52-7.33-3.46l-1.49-.68v13.3l-1.94-.9c-3.13-1.45-2.8-1.7-2.74,2.06l.06,3.23,4.31,2c2.37,1.1,4.47,2,4.67,2s.36-.26.36-3.15ZM374.55,399v-3.23l-2.06-.92-2.25-1a11.48,11.48,0,0,0-.19,3.2v3.26l2,.94a19.48,19.48,0,0,0,2.26,1c.19,0,.26-.75.25-3.21Zm-23-10.94,0-2.78L347,383.2c-2.52-1.15-4.65-2.09-4.72-2.09a19.4,19.4,0,0,0-.08,3.29l.06,3.29,2.3,1,2.3,1,.06,3.29.06,3.29,2.15,1,2.15,1,.13-3.72C351.47,392.53,351.54,389.6,351.56,388.07Zm23-2.15v-3.19l-1.38-.63-2.26-1-.87-.38v6.47l2,.95a19.56,19.56,0,0,0,2.26,1c.2,0,.26-.74.26-3.17ZM339.89,419.3l-2.15-1-.06-3.21-.06-3.21.88.38,2.26,1,1.38.63v3.19c0,1.75,0,3.19-.05,3.18S341.08,419.84,339.89,419.3Zm36.92-55.21-2.15-1-.06-3.28-.06-3.28,1.39.64c.76.35,1.81.8,2.31,1l.92.36.06,3.3a17.13,17.13,0,0,1-.1,3.29c-.09,0-1.13-.46-2.31-1ZM349,357.71l-2.1-1v-3.1c0-2.87,0-3.09.36-3s1.21.52,2.26,1l1.9.86v3.13a15.81,15.81,0,0,1-.15,3.11c-.08,0-1.1-.47-2.26-1Zm-12-18.58a9.64,9.64,0,0,1-1.74-1s1.11-.45,2.37-.92l2.29-.84,2,.86c1.08.47,1.9.93,1.81,1a44.29,44.29,0,0,1-4.75,1.81C338.82,340.06,337.94,339.64,336.94,339.14Zm79.77.12-2.36-.93c-.19-.07.51-.48,1.77-1l2.08-.91,2.38.87a17.45,17.45,0,0,1,2.37,1,35.52,35.52,0,0,1-4.1,1.84c-.06,0-1-.38-2.15-.82Zm-15.56-2a7.77,7.77,0,0,1-2.25-1.06c.27-.23,8.7-3.76,9-3.76a26.45,26.45,0,0,1,2.68.9l2.43.9-1.11.49c-.61.27-2.22.93-3.57,1.47s-3,1.21-3.6,1.48l-1.14.5-2.41-.92Zm-77.14-4c-1.1-.53-1.73-.94-1.58-1a33.5,33.5,0,0,1,4.84-1.56,16.23,16.23,0,0,1,3.8,1.63,52.35,52.35,0,0,1-5.13,1.85c-.05,0-.92-.4-1.92-.89Zm19.06,0c-1-.45-1.87-.84-1.9-.88a43.93,43.93,0,0,1,4.85-1.76,8.9,8.9,0,0,1,1.52.54l2,.84.72.3-2.45.9a24.25,24.25,0,0,1-2.67.88,20.16,20.16,0,0,1-2.07-.84Zm24.82-1.72c-.9-.38-1.92-.79-2.26-.92-.6-.23-.57-.25,1.52-1a14.48,14.48,0,0,1,2.56-.8,19,19,0,0,1,4.37,1.76,16.67,16.67,0,0,1-4.25,1.7,13.76,13.76,0,0,1-1.94-.71Zm18.56-.29c-1.79-.73-1.91-.81-1.44-1l2.08-.83,1.57-.63,1.61.62,2.12.83c.47.19.36.27-1.44,1a15.38,15.38,0,0,1-2.26.79,15.39,15.39,0,0,1-2.26-.79Zm14.17-1.75c-2.64-1-2.65-.84.14-1.94l1.69-.67,2.38.87,2.38.87-1.15.49-2.13.87-1,.38-2.35-.87Zm16-1c-2.51-.92-4.56-1.72-4.56-1.79a21.44,21.44,0,0,1,4.11-1.63c.17,0,2.29-.83,4.71-1.86s5.13-2.15,6-2.5l1.61-.64,2.33.77c1.28.42,2.53.81,2.79.85a40.7,40.7,0,0,1,4.54,1.52c.17.16-3.26,1.66-3.78,1.66a22,22,0,0,1-2.72-.83l-2.38-.83-4.1,1.7a34.9,34.9,0,0,0-4.1,1.86c0,.18.06.2,2.75,1.2,2.06.77,2.13.54-.53,1.72a5.55,5.55,0,0,1-1.64.5c-.26,0-2.53-.77-5-1.68h0ZM372.76,326a9.6,9.6,0,0,1-1.9-.86,10.9,10.9,0,0,1,2-.88l2-.75,2,.73a10.53,10.53,0,0,1,2,.85,33.84,33.84,0,0,1-4,1.57,10.84,10.84,0,0,1-2.1-.67ZM355,322.64l-1.84-.77c-.33-.14-.11-.27,1.13-.7l6.92-2.38,5.39-1.85,1.74.63c1.75.64,2,.85,1.38,1s-3.46,1.2-3.85,1.38c-.6.29-9.13,3.28-9.3,3.26s-.79-.29-1.58-.62Zm-13.52-1.92-1.62-.67,2.19-.73,2.19-.73,1.28.52,1.79.73c.46.19.32.27-1.53.9a15.81,15.81,0,0,1-2.36.68,13.29,13.29,0,0,1-1.94-.69Zm31.88-1.36c-2.87-1.12-2.81-1-.72-1.74a13,13,0,0,1,2.35-.69,16,16,0,0,0,2.59-.75l2.09-.74,1.86.68a16.67,16.67,0,0,1,1.82.72c-.15.14-8.18,3.16-8.34,3.14S374.17,319.68,373.33,319.35Zm-30.88-1.79-1.83-.73,2.23-.7,2.23-.7,1.71.66a8.1,8.1,0,0,1,1.64.74s-1,.38-2.12.76l-2,.69-1.83-.73Zm68-.79c-2.09-.73-3.87-1.4-4-1.49s.62-.45,1.57-.8l1.74-.63,2,.72c2.28.82,2.8.81,4.73,0a6.2,6.2,0,0,1,1.69-.53,14.34,14.34,0,0,1,2.55.69l2,.7-1.63.65a11.1,11.1,0,0,1-2,.65,14,14,0,0,0-2.2.72,10.84,10.84,0,0,1-2.33.7,44.62,44.62,0,0,1-4.26-1.34Zm-54.76-.72c-.84-.33-1.56-.64-1.6-.68a13.11,13.11,0,0,1,2-.77l2.11-.7,1.74.66c2,.74,2,.58-.78,1.59a10.3,10.3,0,0,1-1.74.52,15.42,15.42,0,0,1-1.78-.63Zm34.5,0a4.71,4.71,0,0,1-1.58-.75,16.63,16.63,0,0,1,1.89-.76,6.67,6.67,0,0,0,1.84-.85c0-.12-.76-.48-1.77-.8a7.22,7.22,0,0,1-1.77-.69,13,13,0,0,1,1.81-.71l1.75-.61,1.88.6a13.17,13.17,0,0,1,1.95.72,5.9,5.9,0,0,1-1.66.71,6.35,6.35,0,0,0-1.73.74,8,8,0,0,0,2,.81c1.08.36,1.89.72,1.79.81a17.44,17.44,0,0,1-4.14,1.43,11.39,11.39,0,0,1-2.24-.64Zm-8.3-5.95a7.13,7.13,0,0,1-1.79-.76,32,32,0,0,1,4-1.41l4-1.26,1.68.55a8.08,8.08,0,0,1,1.68.66,6.72,6.72,0,0,1-1.49.66l-3.41,1.26c-1.06.39-2.12.76-2.36.81a7.7,7.7,0,0,1-2.23-.51Zm12.51-1.56a7.24,7.24,0,0,1-1.59-.65,8.39,8.39,0,0,1,1.71-.68l1.7-.57,1.78.55a6.63,6.63,0,0,1,1.78.71,13.24,13.24,0,0,1-3.49,1.19A15.87,15.87,0,0,1,394.4,308.54Zm-16.86-2.69c-.9-.31-1.54-.62-1.43-.69s1.06-.4,2.11-.74l1.9-.61,1.76.6c1,.33,1.8.63,1.85.68a19.58,19.58,0,0,1-4.15,1.34A13.19,13.19,0,0,1,377.54,305.85Z" transform="translate(-309.74 -302.39)" style="fill:#5a9a30"/><path d="M380.91,464.29l-4.56-2.11-1.79-.84v-3.09c0-2.51.05-3.09.29-3.09a9.84,9.84,0,0,1,1.79.7c1.63.76,7.14,3.19,7.23,3.19s.06-4.4.06-9.77v-9.77l-1.87-.87c-3.5-1.63-6.79-3.19-7.1-3.36s-.32-.77-.36-3.28c0-2,0-3.11.15-3.11a15.16,15.16,0,0,1,1.95.81c2.87,1.32,2.57,1.57,2.57-2.12a14.45,14.45,0,0,1,.18-3.19,21,21,0,0,1,2.17.92,20,20,0,0,0,2.18.92A13.09,13.09,0,0,0,384,423v-3.23l-2.2-1c-1.21-.54-2.27-1-2.35-1a17,17,0,0,0-.21,3.15l-.06,3.15-2.15-1-2.15-1-.1-3.35-.1-3.35-4.59-2.11c-2.53-1.16-4.63-2.11-4.67-2.11s-.05,3,0,6.57l.05,6.57,2.31,1,2.31,1v6.64l2.26,1,2.26,1v3.19a30,30,0,0,1-.09,3.19s-1-.42-2.13-.92a18.19,18.19,0,0,0-2.28-.92c-.17,0-.22.89-.18,3.23l.06,3.23,2.31,1.12,2.31,1.12v6.46l-2.62-1.19-4.44-2a18.25,18.25,0,0,0-2-.85,13.66,13.66,0,0,0-.18,3.08,15.53,15.53,0,0,1-.15,3.07c-.08,0-2.14-.91-4.56-2l-4.41-2-.1-3.26-.1-3.26-4.1-1.89c-2.26-1-4.57-2.07-5.15-2.29S344,441,341.87,440a43.15,43.15,0,0,0-4.14-1.86c-.26,0-.31.49-.31,3.1,0,2.87,0,3.09-.36,3s-1.21-.52-2.25-1l-1.89-.86-.06-3.24-.06-3.24-2.15-1-2.15-1-.06-3.25a18.65,18.65,0,0,0-.24-3.43,23,23,0,0,0-2.35-1.17l-2.17-1v3.27a26.62,26.62,0,0,1-.1,3.27c-.06,0-1-.42-2.16-.92a20.51,20.51,0,0,0-2.26-.92,10.12,10.12,0,0,0-.2,3.09,12.55,12.55,0,0,1-.18,3l-2.25-1-2.07-.92v-13l1.08.49,2.26,1L319,423v-3.18c0-2.25.07-3.18.23-3.18a17.77,17.77,0,0,1,2.25.92c1.11.51,2.06.92,2.12.92a23.14,23.14,0,0,0,.11-3.18,25.19,25.19,0,0,1,.1-3.18,32.51,32.51,0,0,1,4.46,2.12,21.15,21.15,0,0,1,.15,3.33v3.1l1.28.57c1.62.72,7.13,3.32,7.54,3.56.25.14.32.79.36,3.45l.06,3.27,2.1.94c5.21,2.35,6.78,3,7,3a13.9,13.9,0,0,0,.13-3.19l-.06-3.19-2.15-1-2.15-1-.06-3.31-.06-3.31,1.59.74,2.26,1,.67.29-.05-6.59-.05-6.59-4.41-2c-2.43-1.11-4.53-2-4.67-2s-.26.74-.26,3.08v3.09l-.46-.14c-.25-.08-1.24-.52-2.21-1l-1.75-.84-.06-3.29-.06-3.29-4.56-2.08-4.56-2.08-.05,6.54c0,3.6-.1,6.54-.15,6.54s-.88-.36-1.84-.81c-2.87-1.32-2.57-1.57-2.57,2.12a12.83,12.83,0,0,1-.19,3.19,20.06,20.06,0,0,1-2.18-.92,20.84,20.84,0,0,0-2.17-.92,13.43,13.43,0,0,0-.18,3.08c0,2.33-.06,3.07-.26,3.07a17,17,0,0,1-2.21-.92l-1.95-.91L310,412.3l-.05-6.57.46.18c.26.1,1.18.51,2.07.92a14,14,0,0,0,1.79.74,13.59,13.59,0,0,0,.25-3.17l.06-3.17,2.21,1,2.21,1V390.11l-2.26-1-2.26-1V368.26l-2.26-1-2.26-1V363a26,26,0,0,1,.1-3.19c.05,0,.88.36,1.84.81,2.87,1.32,2.57,1.57,2.57-2.12v-3.19l-2-.92c-1.1-.51-2.14-1-2.31-1.1s-.32-.79-.36-3.39c0-2.08,0-3.21.15-3.21a20.12,20.12,0,0,1,2.26.92c1.13.51,2.1.92,2.16.92a25.31,25.31,0,0,0,.1-3.18,20.54,20.54,0,0,1,.12-3.18c.07,0,1.08.43,2.26,1l2.13,1v6.65l2.51,1.14,4.46,2a21.78,21.78,0,0,1,2.2,1.07c.28.23.38,6.52.1,6.52-.08,0-1.26-.5-2.62-1.11a67.33,67.33,0,0,0-6.48-2.79c-.16,0-.19,1.76-.08,6.41.08,3.53.18,6.46.22,6.52s2.06,1,4.49,2.13l4.42,2v6.47l-2.51-1.14-4.44-2a20.1,20.1,0,0,0-2.1-.9,15.68,15.68,0,0,0-.18,3.29v3.29l2.36,1.11,2.36,1.11v6.41l2.14,1a21.08,21.08,0,0,0,2.35,1,10.19,10.19,0,0,0,.27-3.17l.06-3.17,2.15,1,2.15,1,.06,3.29.06,3.29,1.17.52,2.35,1,1.18.53V385.49l-2.21-1c-1.21-.55-2.28-1.05-2.36-1.13A18.77,18.77,0,0,1,333,380l.06-3.21,2.18,1,2.18,1,.15-6.35c.1-4.31.08-6.42-.06-6.57a32.12,32.12,0,0,0-4.36-2,48.43,48.43,0,0,0-.19,6.38c0,5.78,0,6.37-.33,6.25l-2.26-1-1.93-.86v-3.29c0-5.6,0-9.63.1-9.71a13.9,13.9,0,0,1,2.07.86,21.46,21.46,0,0,0,2.18.94c.1,0,.18-4.38.18-9.74s0-9.74.08-9.74,1.08.45,2.31,1l2.22,1,.05,6.59.05,6.59,2.18,1c1.2.56,2.21,1,2.25,1s.07-1.43.07-3.18a11.54,11.54,0,0,1,.2-3.18,23.09,23.09,0,0,1,2.36,1l2.16,1V370l2.1,1c1.16.53,2.17,1,2.26,1a15.64,15.64,0,0,0,.15-3.08c0-2.11.07-3.08.23-3.08a20.24,20.24,0,0,1,2.36,1l2.13,1v6.52l2.14,1a21.07,21.07,0,0,0,2.35,1,10.05,10.05,0,0,0,.27-3.15l.06-3.15,2.15,1,2.15,1,.06-3.28c0-2.49.12-3.25.31-3.18l2.35,1.08,2.1,1V374l1.49.68,3.13,1.45a40.43,40.43,0,0,0,4.42,2,14.11,14.11,0,0,0,.24-3.16l.06-3.16,2.22,1c1.22.55,2.26,1,2.3,1s.11-3,.14-6.58l.05-6.58,2.05-.93c6-2.7,12.05-5.52,13.62-6.31a45.94,45.94,0,0,1,5.12-2.29c.49-.17,3.07-1.32,5.74-2.57s6.33-2.91,8.14-3.69,4.53-2,6.05-2.73c12.88-6,32.2-14.85,33-15l.47-.11-.07,52.33c0,33-.14,52.4-.26,52.52s-2,1-4.2,2c-5.57,2.49-12.06,5.43-14.26,6.45-1,.47-4.2,1.92-7.08,3.22l-15.69,7.13c-5.75,2.62-12.26,5.58-14.46,6.57l-6.67,3c-2.79,1.29-9.11,4.17-10.88,5l-1,.46-2.76-1.27Zm-20.09-25.55v-3.29l-2.17-1a24,24,0,0,0-2.36-1,14.93,14.93,0,0,0-.18,3.29V440l2.1,1a20.69,20.69,0,0,0,2.36,1c.2,0,.26-.77.26-3.27Zm0-16.61-.05-6.44-4.51-2.08a34.13,34.13,0,0,0-4.67-1.94c-.09.08-.13,3-.1,6.58l.05,6.44,4.51,2.08a35.52,35.52,0,0,0,4.67,1.95C360.75,428.63,360.8,425.67,360.77,422.13ZM384,403.29v-9.81l-2.1-1-2.36-1.08c-.2-.08-.26,1.29-.26,6.48,0,3.62,0,6.59-.07,6.59s-1.06-.46-2.26-1-2.24-1-2.29-1a26.32,26.32,0,0,0,0,3.22l.06,3.22,4.41,2.1c2.43,1.16,4.53,2.11,4.67,2.11s.26-2.08.26-9.8Zm-23.18,2.54v-3.17l2.21,1,2.21,1,.15-4.66c.09-2.56.13-5.49.1-6.5,0-1.73-.08-1.85-.56-2.1s-5.28-2.52-7.33-3.46l-1.49-.68v13.3l-1.94-.9c-3.13-1.45-2.8-1.7-2.74,2.06l.06,3.23,4.31,2c2.37,1.1,4.47,2,4.67,2s.36-.26.36-3.15ZM374.55,399v-3.23l-2.06-.92-2.25-1a11.48,11.48,0,0,0-.19,3.2v3.26l2,.94a19.48,19.48,0,0,0,2.26,1c.19,0,.26-.75.25-3.21Zm-23-10.94,0-2.78L347,383.2c-2.52-1.15-4.65-2.09-4.72-2.09a19.4,19.4,0,0,0-.08,3.29l.06,3.29,2.3,1,2.3,1,.06,3.29.06,3.29,2.15,1,2.15,1,.13-3.72C351.47,392.53,351.54,389.6,351.56,388.07Zm23-2.15v-3.19l-1.38-.63-2.26-1-.87-.38v6.47l2,.95a19.56,19.56,0,0,0,2.26,1c.2,0,.26-.74.26-3.17ZM339.89,419.3l-2.15-1-.06-3.21-.06-3.21.88.38,2.26,1,1.38.63v3.19c0,1.75,0,3.19-.05,3.18S341.08,419.84,339.89,419.3ZM406,335.19c-2.07-.82-2.28-.95-1.85-1.13l1.4-.6c2.17-.95,2.36-1,3.54-.53l1.6.58c.28.09.84.31,1.23.48l.72.31-.61.25c-1.14.46-1.43.58-2.46,1l-1.13.49a23.92,23.92,0,0,1-2.43-.89Z" transform="translate(-309.74 -302.39)" style="fill:#5a5952"/><path d="M380.91,464.29l-4.56-2.11-1.79-.84v-3.09c0-2.51.05-3.09.29-3.09a9.85,9.85,0,0,1,1.79.71c1.63.76,7.14,3.19,7.23,3.19s.06-4.4.06-9.77v-9.77l-1.87-.87c-3.5-1.63-6.79-3.19-7.1-3.36s-.32-.77-.36-3.28c0-2,0-3.11.15-3.11a15.16,15.16,0,0,1,1.95.81c2.87,1.32,2.57,1.57,2.57-2.12a14.45,14.45,0,0,1,.18-3.19,21,21,0,0,1,2.17.92,20,20,0,0,0,2.18.92A13.09,13.09,0,0,0,384,423v-3.23l-2.2-1c-1.21-.54-2.27-1-2.35-1a17,17,0,0,0-.21,3.15l-.06,3.15-2.15-1-2.15-1-.1-3.35-.1-3.35-4.59-2.11c-2.53-1.16-4.63-2.11-4.67-2.11s-.05,3,0,6.57l.05,6.57,2.31,1,2.31,1v6.64l2.26,1,2.26,1v3.19a30,30,0,0,1-.09,3.19s-1-.42-2.13-.92a18.19,18.19,0,0,0-2.28-.92c-.17,0-.22.89-.18,3.23l.06,3.23,2.31,1.12,2.31,1.12v6.46l-2.62-1.19-4.44-2a18.27,18.27,0,0,0-2-.85,13.66,13.66,0,0,0-.18,3.08,15.53,15.53,0,0,1-.15,3.07c-.08,0-2.14-.91-4.56-2l-4.41-2-.1-3.26-.1-3.26-4.1-1.89c-2.26-1-4.57-2.07-5.15-2.29S344,441,341.87,440a43.15,43.15,0,0,0-4.14-1.86c-.26,0-.31.49-.31,3.1,0,2.87,0,3.09-.36,3s-1.21-.52-2.25-1l-1.89-.86-.06-3.24-.06-3.24-2.15-1-2.15-1-.06-3.25a18.66,18.66,0,0,0-.24-3.43,23.06,23.06,0,0,0-2.35-1.17l-2.17-1v3.27a26.62,26.62,0,0,1-.1,3.27c-.06,0-1-.42-2.16-.92a20.53,20.53,0,0,0-2.26-.92,10.12,10.12,0,0,0-.2,3.09,12.55,12.55,0,0,1-.18,3l-2.25-1-2.07-.92v-13l1.08.49,2.26,1L319,423v-3.18c0-2.25.07-3.18.23-3.18a17.77,17.77,0,0,1,2.25.92c1.11.51,2.06.92,2.12.92a23.14,23.14,0,0,0,.11-3.18,25.2,25.2,0,0,1,.1-3.18,32.53,32.53,0,0,1,4.46,2.12,21.15,21.15,0,0,1,.15,3.33v3.1l1.28.57c1.62.72,7.13,3.32,7.54,3.56.25.14.32.79.36,3.45l.06,3.27,2.1.94c5.21,2.35,6.78,3,7,3a13.9,13.9,0,0,0,.13-3.19l-.06-3.19-2.15-1-2.15-1-.06-3.3-.06-3.3,1.08.49,9.15,4.18c5.13,2.35,8.1,3.6,8.16,3.45s.07-3.1,0-6.59l-.05-6.35-4.51-2.08a36.08,36.08,0,0,0-4.66-2,19.6,19.6,0,0,0-.21,3.23l-.06,3.1-2.15-1L347,416l-.1-3.31-.1-3.31-4.41-2c-2.43-1.11-4.53-2-4.67-2s-.26.74-.26,3.08v3.09l-.46-.14c-.25-.08-1.24-.52-2.21-1l-1.75-.84-.06-3.29-.06-3.29-4.56-2.08-4.56-2.08-.05,6.54c0,3.6-.1,6.54-.15,6.54s-.88-.36-1.84-.81c-2.87-1.32-2.57-1.57-2.57,2.12a12.84,12.84,0,0,1-.19,3.19,20.06,20.06,0,0,1-2.18-.92,20.84,20.84,0,0,0-2.17-.92,13.43,13.43,0,0,0-.18,3.08c0,2.33-.06,3.07-.26,3.07a17,17,0,0,1-2.21-.92l-1.95-.91L310,412.3l-.05-6.57.46.18c.26.1,1.18.51,2.07.92a14,14,0,0,0,1.79.74,13.59,13.59,0,0,0,.25-3.17l.06-3.17,2.21,1,2.21,1V390.11l-2.26-1-2.26-1V368.26l-2.26-1-2.26-1V363a26,26,0,0,1,.1-3.19c.05,0,.88.36,1.84.81,2.87,1.32,2.57,1.57,2.57-2.12v-3.19l-2-.92c-1.1-.51-2.14-1-2.31-1.1s-.32-.79-.36-3.39c0-2.08,0-3.21.15-3.21a20.12,20.12,0,0,1,2.26.92c1.13.51,2.1.92,2.16.92a25.31,25.31,0,0,0,.1-3.18,20.54,20.54,0,0,1,.12-3.18c.07,0,1.08.43,2.26,1l2.13,1v3.25a27,27,0,0,1-.1,3.25c-.05,0-.88-.36-1.84-.81-2.87-1.33-2.57-1.58-2.57,2.19v3.26l2.24,1a11.08,11.08,0,0,0,2.36.93,24.65,24.65,0,0,0,.12-3.24v-3.13l2.62,1.18,4.36,2a19,19,0,0,1,2,1c.28.23.38,6.52.1,6.52-.08,0-1.26-.5-2.62-1.11a67.32,67.32,0,0,0-6.48-2.79c-.16,0-.19,1.76-.08,6.41.08,3.53.18,6.46.22,6.52s2.06,1,4.49,2.13l4.42,2v6.47l-2.51-1.14-4.44-2a20.1,20.1,0,0,0-2.1-.9,15.68,15.68,0,0,0-.18,3.29v3.29l2.36,1.11,2.36,1.11v6.41l2.14,1a21.12,21.12,0,0,0,2.35,1,10.19,10.19,0,0,0,.27-3.17l.06-3.17,2.15,1,2.15,1,.06,3.29.06,3.29,1.17.52,2.35,1,1.18.53V385.48l-2.21-1c-1.21-.55-2.28-1.05-2.36-1.13A18.77,18.77,0,0,1,333,380l.06-3.21,2.18,1,2.18,1,.15-6.35c.1-4.31.08-6.42-.06-6.57a32.12,32.12,0,0,0-4.36-2,48.43,48.43,0,0,0-.19,6.38c0,5.78,0,6.37-.33,6.25l-2.26-1-1.93-.86v-3.29c0-5.6,0-9.63.1-9.71a13.9,13.9,0,0,1,2.07.86,21.46,21.46,0,0,0,2.18.94c.1,0,.18-4.38.18-9.74s0-9.74.08-9.74,1.08.45,2.31,1l2.22,1,.05,6.59.05,6.59,2.18,1c1.2.56,2.21,1,2.25,1s.07-1.43.07-3.18a11.54,11.54,0,0,1,.2-3.18,23,23,0,0,1,2.36,1l2.16,1V370l2.1,1c1.16.53,2.17,1,2.26,1a15.64,15.64,0,0,0,.15-3.08c0-2.11.07-3.08.23-3.08a20.24,20.24,0,0,1,2.36,1l2.13,1v6.52l2.14,1a21.07,21.07,0,0,0,2.35,1,10.06,10.06,0,0,0,.27-3.15l.06-3.15,2.15,1,2.15,1,.06-3.28c0-2.49.12-3.25.31-3.18l2.35,1.08,2.1,1V374l1.49.68,3.13,1.45a39.35,39.35,0,0,0,4.43,2,13.6,13.6,0,0,0,.19-3.17v-3.17l.87.37c.48.21,1.54.69,2.36,1.08l1.48.71.05-6.65.05-6.65,2.05-.93c6-2.7,12.05-5.52,13.62-6.31a45.94,45.94,0,0,1,5.12-2.29c.49-.17,3.07-1.32,5.74-2.57s6.33-2.91,8.14-3.69,4.53-2,6.05-2.73c12.6-5.91,32.19-14.85,33-15l.44-.1-.06,32.79c0,18-.07,41.61-.08,52.4l0,19.62L444.25,438l-20.77,9.45-7,3.18-.06-3.07c0-2.25-.12-3.07-.31-3.07a18,18,0,0,0-2.35,1l-2.1,1v6.4l-6.51,3-12.77,5.82L384.91,465l-1.24.56-2.76-1.27Zm-20.1-25.55v-3.29l-2.17-1a24,24,0,0,0-2.36-1,14.93,14.93,0,0,0-.18,3.29V440l2.1,1a20.69,20.69,0,0,0,2.36,1c.2,0,.26-.77.26-3.27ZM384,403.29v-9.81l-2.1-1-2.36-1.08c-.2-.08-.26,1.29-.26,6.48,0,3.62,0,6.59-.07,6.59s-1.06-.46-2.26-1-2.24-1-2.29-1a26.32,26.32,0,0,0,0,3.22l.06,3.22,4.41,2.1c2.43,1.16,4.53,2.11,4.67,2.11s.26-2.08.26-9.8Zm-23.18,2.54v-3.17l2.21,1,2.21,1,.15-4.66c.09-2.56.13-5.49.1-6.5,0-1.73-.08-1.85-.56-2.1s-5.28-2.52-7.33-3.46l-1.49-.68v13.3l-1.94-.9c-3.13-1.45-2.8-1.7-2.74,2.06l.06,3.23,4.31,2c2.37,1.1,4.47,2,4.67,2s.36-.26.36-3.15Zm91.33-4.19,1.38-.63v-3.21c0-2.87,0-3.2-.33-3.08l-2.26,1-1.93.86V403l.87-.38ZM374.55,399v-3.23l-2.06-.92-2.25-1a11.48,11.48,0,0,0-.19,3.2v3.26l2,.94a19.48,19.48,0,0,0,2.26,1c.19,0,.26-.75.25-3.21Zm-23-10.94,0-2.78L347,383.2c-2.52-1.15-4.65-2.09-4.72-2.09a19.4,19.4,0,0,0-.08,3.29l.06,3.29,2.3,1,2.3,1,.06,3.29.06,3.29,2.15,1,2.15,1,.13-3.72c.07-2,.14-5,.15-6.5Zm53.31,8.9,2.1-1v-6.49l-1.18.53-2.26,1-1.08.49v3.18a16.71,16.71,0,0,0,.15,3.18c.08,0,1.1-.43,2.26-1Zm-30.31-11.05v-3.19l-1.38-.63-2.26-1-.87-.38v6.47l2,.95a19.56,19.56,0,0,0,2.26,1c.2,0,.26-.74.26-3.17Zm-9.23-4.2v-3.29l-2.18-1a24.92,24.92,0,0,0-2.36-1,15.18,15.18,0,0,0-.18,3.25v3.25l2.21,1c1.21.57,2.27,1,2.36,1.06A17.47,17.47,0,0,0,365.33,381.72ZM339.89,419.3l-2.15-1-.06-3.21-.06-3.21.88.38,2.26,1,1.38.63v3.19c0,1.75,0,3.19-.05,3.18S341.08,419.84,339.89,419.3ZM406,335.19c-2.07-.82-2.28-.95-1.85-1.13l1.4-.6c2.17-.95,2.36-1,3.54-.53l1.6.58c.28.09.84.31,1.23.48l.72.31-.61.25c-1.14.46-1.43.58-2.46,1l-1.13.49a23.92,23.92,0,0,1-2.43-.89Z" transform="translate(-309.74 -302.39)" style="fill:#765338"/><path d="M381.48,464.54l-2.21-1v-3.16a13.12,13.12,0,0,1,.18-3.1l2.25,1,2.07.92v3.23c0,1.78,0,3.22,0,3.21l-2.26-1.06ZM384,439.21V413l2.1-.94,2.1-.94.05-6.5c0-3.57,0-6.5,0-6.5s-1,.42-2.08.92-2,.92-2.07.92-.05-8.87,0-19.71l.05-19.71,2.05-.93c6-2.71,12.05-5.52,13.62-6.31a45.94,45.94,0,0,1,5.12-2.29c.49-.17,3.07-1.32,5.74-2.57s6.33-2.91,8.14-3.69,4.53-2,6.05-2.73c12.8-6,32.2-14.85,33-15l.46-.1v6.55c0,3.6-.06,11-.14,16.41l-.14,9.86-2.07.93-2.07.93-.06,3.19a14.3,14.3,0,0,0,.12,3.19,19.67,19.67,0,0,0,2.11-.9l1.93-.9.05,19.71c0,10.84,0,19.77-.1,19.84s-2.11,1-4.51,2.06L449,409.72V413c0,1.78,0,3.23.07,3.23s.89-.38,1.9-.85l4.44-2,2.62-1.19v19.62l-4.67,2.1L444,438.08,434,442.6l-11.38,5.18-6.15,2.8-.06-3c0-2.23-.12-3-.31-3a18,18,0,0,0-2.35,1l-2.1,1v6.41l-1.79.8-6.72,3L398,459c-.2.08-.26-.6-.26-3a12.71,12.71,0,0,0-.18-3l-2.25,1-2.07.92V458c0,2.24-.08,3.16-.26,3.3s-1.78.87-3.64,1.7-3.82,1.72-4.36,2l-1,.49V439.21Zm16.2,12.37,1.95-.89.06-3.2a24,24,0,0,0-.05-3.2,43.4,43.4,0,0,0-4.16,1.9c-.18.15-.26,1.06-.26,3.26s.06,3,.26,3A17.74,17.74,0,0,0,400.2,451.58Zm14.61-19.78,1.38-.63V428a12.71,12.71,0,0,0-.18-3.14l-2.26,1-2.07.92v6.46l.87-.38,2.26-1Zm18-1.67,2.07-.92v-6.44l-2.21,1-2.21,1-.06,3.21a12.43,12.43,0,0,0,.13,3.14l2.26-1Zm-23-2.58,1.94-.9v-3.19c0-1.75,0-3.19-.08-3.19s-1.08.46-2.31,1l-2.23,1-.06,3.2c-.07,3.72-.39,3.48,2.74,2Zm-7.17-3.31,4.38-2V415.8L404,417.13l-4.36,2a17.27,17.27,0,0,0-1.69.84c-.35.26-.37,6.3,0,6.3.13,0,2.2-.89,4.62-2Zm44.15-.47,2.07-.92V416.4l-2,.94-2.26,1c-.3.12-.38,6.5-.08,6.39Zm-32.49-4.91,2.16-1v-3.09a13.23,13.23,0,0,0-.18-3.09,23.88,23.88,0,0,0-2.36,1l-2.18,1v3.09a11.1,11.1,0,0,0,.2,3.09A22.74,22.74,0,0,0,414.24,418.87Zm16.26-7.33,4.36-2v-6.47l-2.62,1.19-4.62,2.13-2,.94v3.09c0,2.34.06,3.09.26,3.09S428.11,412.63,430.5,411.54Zm-30.92-5.6c3.15-1.39,2.87-1,2.87-4.52a15.61,15.61,0,0,0-.15-3.08c-.08,0-2.16.9-4.61,2l-4.46,2v6.44l2.21-1,4.15-1.85Zm52.56-4.28,1.38-.63v-3.21c0-2.87,0-3.2-.33-3.08l-2.26,1-1.93.86V403l.87-.38Zm-7.69-3,4.36-2v-6.47L447,391l-4.56,2.1-2.77,1.28-.06,3.12c0,2.42,0,3.12.21,3.12s2.22-.89,4.62-2ZM404.86,397l2.1-1v-6.49l-1.18.53-2.26,1-1.08.49v3.18a16.71,16.71,0,0,0,.15,3.18c.08,0,1.1-.43,2.26-1Zm14.23-6.54,4.49-2,1.95-.88.06-3.23a14,14,0,0,0-.12-3.16l-4.62,2.1-4.45,2v3.15c0,1.73,0,3.15.07,3.15s1.22-.51,2.62-1.14Zm-18.64-4.58,1.79-.83v-6.37l-.46.18c-.25.1-1.27.55-2.26,1l-1.79.83V387l.46-.18c.25-.1,1.27-.55,2.26-1Zm34.63-2.66,4.4-2,.06-3.21c0-1.77,0-3.21,0-3.21s-2.09.92-4.57,2l-4.51,2L430.4,382a14.91,14.91,0,0,0,.12,3.19c.09,0,2.15-.91,4.57-2Zm-72.16,66.46-2.1-1V435.49l2.21,1,2.21,1,.05,6.57c0,3.61,0,6.56-.1,6.55S364.07,450.18,362.92,449.66Zm-18.27-8.43a21.65,21.65,0,0,1-2.31-1.18,15,15,0,0,1-.14-3.28l.06-3.09,2.31,1,2.31,1V439c0,1.79,0,3.24-.05,3.24l-2.17-1Zm8.84-2.47-2.1-1v-3.19a10.56,10.56,0,0,1,.21-3.19,22.14,22.14,0,0,1,2.36,1l2.15,1v3.23c0,2.45-.06,3.23-.26,3.22a19.06,19.06,0,0,1-2.36-1Zm28-.42-2.15-1-.06-3.19a12.31,12.31,0,0,1,.13-3.19,21.52,21.52,0,0,1,2.26,1l2.07,1v3.25c0,1.79,0,3.24-.05,3.23l-2.2-1ZM335,436.9l-2.1-1v-6.52l-2.31-1.11-2.31-1.11-.06-3.25a13.73,13.73,0,0,1,.12-3.18l2.36,1.08,2.19,1v6.49l1.69.77c.93.43,2,.91,2.31,1.08l.62.31.06,3.23c0,2.52,0,3.23-.21,3.22a19.53,19.53,0,0,1-2.36-1ZM367.43,432l-2.1-1v-3.23a17,17,0,0,1,.15-3.22c.08,0,1.12.45,2.31,1l2.15,1,.06,3.21c0,2.5,0,3.21-.21,3.2a20.89,20.89,0,0,1-2.36-1Zm-46.15-1.52-2.31-1v-3.15c0-2.38.06-3.15.26-3.15a17.78,17.78,0,0,1,2.36,1l2.1,1v3.24c0,1.78,0,3.24-.05,3.23l-2.36-1.06ZM349.12,417,347,416l-.06-3.28-.06-3.29.88.38,2.26,1,1.38.63v3.29c0,1.81,0,3.28-.05,3.28l-2.21-1Zm27.79-.36a14.39,14.39,0,0,1-2.2-1.16c-.26-.36-.19-6.26.07-6.26a20.05,20.05,0,0,1,2.36,1l2.13,1v3.24a16.94,16.94,0,0,1-.15,3.22c-.08,0-1.08-.44-2.21-1Zm-60.46-1.43-2-.94V411c0-1.79,0-3.25.08-3.25s1.06.46,2.26,1l2.18,1V413c0,2.42-.06,3.18-.26,3.17a19.46,19.46,0,0,1-2.26-1Zm23-9.22L335,404l-1.95-.87-.06-3.21a14.13,14.13,0,0,1,.13-3.21c.17,0,1.38.53,6.7,2.91l2.1.93c.2.08.26-.62.26-3.1a14.76,14.76,0,0,1,.18-3.2,24.91,24.91,0,0,1,2.36,1l2.18,1v6.56l-.46-.18c-.25-.1-1.28-.56-2.28-1s-1.85-.84-1.89-.84-.1,1.42-.13,3.15L342,407.1,339.48,406Zm14.2-6.63-2.1-1v-3.19a16.77,16.77,0,0,1,.15-3.19c.08,0,1.1.43,2.26,1l2.1,1v3.24a17,17,0,0,1-.15,3.23C355.86,400.37,354.84,399.91,353.69,399.36Zm-32.41-1.59-2.1-1v-6.64l2.26,1,2.26,1v3.25a17.13,17.13,0,0,1-.15,3.24c-.08,0-1.1-.44-2.26-1h0Zm41.65-7.36-2.09-.95-.06-3.25c0-2.11,0-3.22.14-3.17l2.31,1.06,2.1,1v3.15a16.21,16.21,0,0,1-.15,3.14C365.09,391.36,364.08,390.93,362.93,390.41Zm13.94-.07-2.1-1-.06-3.34-.06-3.34-2.3-1-2.3-1V374l-2.21-1c-1.21-.54-2.27-1-2.36-1a16.67,16.67,0,0,0-.15,3.18v3.17l-2-.94c-3-1.42-2.72-1.66-2.72,2.06a16.87,16.87,0,0,1-.15,3.2c-.09,0-2.07-.88-4.41-1.95s-4.3-1.95-4.36-1.95a23.94,23.94,0,0,0-.1,3.08c0,2-.07,3.08-.22,3.08s-1.85-.75-3.85-1.66-4.55-2.06-5.68-2.54l-3.13-1.34-1.08-.46v-6.68l4.45,2c2.45,1.12,4.52,2,4.62,2a14.93,14.93,0,0,0,.12-3.2l-.06-3.2-4.2-1.93c-2.31-1.06-4.95-2.29-5.86-2.73a38.15,38.15,0,0,0-3.7-1.65,29.7,29.7,0,0,0-.09,3.18,12.83,12.83,0,0,1-.19,3.18,20.81,20.81,0,0,1-2.21-.91l-2-.91-.06-3.29a24.5,24.5,0,0,1,.05-3.29c.06,0,1,.42,2.09.92a21,21,0,0,0,2.15.92c.1,0,.18-4.33.18-9.63s.07-9.67.15-9.72a11.61,11.61,0,0,1,2.31.89l2.15,1,.05,6.59.05,6.59,2.18,1c1.2.56,2.21,1,2.25,1s.07-1.43.07-3.18a11.54,11.54,0,0,1,.2-3.18,23.09,23.09,0,0,1,2.36,1l2.16,1V370l2.1,1c1.16.53,2.17,1,2.26,1a15.64,15.64,0,0,0,.15-3.08c0-2,.07-3.08.22-3.08a27.7,27.7,0,0,1,3.68,1.63l.72.38L356,371l.06,3.22,2.14,1a20.64,20.64,0,0,0,2.35,1c.14,0,.21-1.07.21-3.08a18.11,18.11,0,0,1,.13-3.08c.07,0,1,.42,2.15.92a18.44,18.44,0,0,0,2.24.92c.15,0,.2-1,.16-3.28s0-3.25.14-3.2l2.31,1.06,2.1,1V374l1.49.68,3.13,1.45a40.45,40.45,0,0,0,4.42,2,14.1,14.1,0,0,0,.24-3.16l.06-3.16,2.15,1,2.15,1,.06,3.31c0,1.82,0,3.31,0,3.31s-1-.42-2.07-.92a20,20,0,0,0-2.18-.92,49.29,49.29,0,0,0-.19,6.46c0,3.55-.07,6.45-.15,6.45s-1.1-.46-2.25-1Zm-60.21-14.4-2.21-1v-6.56c0-5.94,0-6.54.33-6.43l2.26,1,1.93.86v6.63c0,3.64,0,6.62-.05,6.61Zm11.29-14.63c-.06-.06-2-1-4.39-2l-4.28-1.93-.06-3.19a24,24,0,0,1,.05-3.19c.06,0,1,.4,2.11.9s2.6,1.14,3.33,1.44,1.84.79,2.46,1.1l1.13.56.06,3.23c.05,2.89,0,3.5-.41,3.12ZM312,354l-2.1-1v-6.37l.87.38,2.26,1,1.38.63v3.19a16.47,16.47,0,0,1-.15,3.18C314.22,355,313.2,354.59,312,354Zm4.51-4.48-2.1-1v-3.23a21.19,21.19,0,0,1,.12-3.23c.07,0,1.08.43,2.26,1l2.13,1v3.25a17,17,0,0,1-.15,3.23c-.08,0-1.1-.45-2.26-1ZM406,335.19c-2.07-.82-2.28-.95-1.85-1.13l1.4-.6c2.17-.95,2.36-1,3.54-.53l1.6.58c.28.09.84.31,1.23.48l.72.31-.61.25c-1.14.46-1.43.58-2.46,1l-1.13.49a23.92,23.92,0,0,1-2.43-.89Z" transform="translate(-309.74 -302.39)" style="fill:#496e2e"/><path d="M381.48,464.54l-2.21-1v-3.16a13.12,13.12,0,0,1,.18-3.1l2.25,1,2.07.92v3.23c0,1.78,0,3.22,0,3.21l-2.26-1.06ZM384,439.21V413l2.1-.94,2.1-.94.05-6.5c0-3.57,0-6.5,0-6.5s-1,.42-2.08.92-2,.92-2.07.92-.07-4.45-.07-9.9v-9.9l2.25-1,2.25-1v-6.72l2.18-1a9.86,9.86,0,0,1,2.36-.91,16,16,0,0,1,.18,3.28,16.26,16.26,0,0,0,.15,3.15c.08,0,1.12-.49,2.31-1.08l2.15-1.06.1-3.25.1-3.25,1.88-.85c1-.47,3-1.36,4.46-2l2.58-1.13V360c0-3.29,0-3.34-.42-3.21-.23.07-2,.87-3.95,1.78s-3.83,1.77-4.2,1.92l-.67.28.06-3.19.06-3.19,4.48-2c2.47-1.12,4.57-2,4.67-2a12.43,12.43,0,0,1,.18,3c0,2.67,0,3,.33,2.87l2.25-1,1.92-.86.06-3.17.06-3.17,2.36-1.08,2.36-1.08.06,3.06c0,1.68.09,3.06.13,3.06s1-.42,2.06-.92a15.46,15.46,0,0,1,2.27-.92,15.49,15.49,0,0,0,2.27-.92,20.92,20.92,0,0,1,2.17-.92,14.79,14.79,0,0,1,.18,3.23v3.23l-2.26,1-2.26,1v6.5l1.08-.48,4.48-2c1.87-.86,3.51-1.57,3.64-1.57s.24.88.24,3.08a27.2,27.2,0,0,0,.09,3.08s1-.41,2.1-.91l2-.91.06-3.24.06-3.24,2.3-1,2.3-1,.05-6.59.05-6.59-1.59.74c-.88.41-2.15,1-2.82,1.21s-2,.84-3,1.3l-1.79.83v-6.24l1.69-.76c4.81-2.15,13.23-6,18-8.3,1.51-.72,3-1.36,3.23-1.43l.48-.12v3.1a22.94,22.94,0,0,0,.11,3.1c.06,0,1-.42,2.08-.92a18.14,18.14,0,0,1,2-.87c.1.1.19,13.25.14,19.76l-.05,6.58-2.1.95-2.1.95-.06,3.19a14.29,14.29,0,0,0,.12,3.19,19.71,19.71,0,0,0,2.11-.9l1.93-.9.05,19.71c0,10.84,0,19.77-.1,19.84s-2.11,1-4.51,2.06L449,409.72V413c0,1.78,0,3.23.07,3.23s.89-.38,1.9-.85l4.44-2,2.62-1.19v19.62l-4.67,2.1L444,438.08,434,442.6l-11.38,5.18-6.15,2.8-.06-3c0-2.23-.12-3-.31-3a18,18,0,0,0-2.35,1l-2.1,1v6.41l-1.79.8-6.72,3L398,459c-.2.08-.26-.6-.26-3a12.74,12.74,0,0,0-.18-3l-2.25,1-2.07.92V458c0,2.24-.08,3.16-.26,3.3s-1.78.87-3.64,1.7-3.82,1.72-4.36,2l-1,.49V439.21Zm16.2,12.37,1.95-.89.06-3.2a24,24,0,0,0-.05-3.2,43.4,43.4,0,0,0-4.16,1.9c-.18.15-.26,1.06-.26,3.26s.06,3,.26,3A17.74,17.74,0,0,0,400.2,451.58Zm14.61-19.78,1.38-.63V428a12.71,12.71,0,0,0-.18-3.14l-2.26,1-2.07.92v6.46l.87-.38,2.26-1Zm18-1.67,2.07-.92v-6.44l-2.21,1-2.21,1-.06,3.21a12.43,12.43,0,0,0,.13,3.14l2.26-1Zm-23-2.58,1.94-.9v-3.19c0-1.75,0-3.19-.08-3.19s-1.08.46-2.31,1l-2.23,1-.06,3.2c-.07,3.72-.39,3.48,2.74,2Zm-7.17-3.31,4.38-2V415.8L404,417.13l-4.36,2a17.27,17.27,0,0,0-1.69.84c-.35.26-.37,6.3,0,6.3.13,0,2.2-.89,4.62-2Zm44.15-.47,2.07-.92V416.4l-2,.94-2.26,1c-.3.12-.38,6.5-.08,6.39Zm-32.49-4.91,2.16-1v-3.09a13.23,13.23,0,0,0-.18-3.09,23.88,23.88,0,0,0-2.36,1l-2.18,1v3.09a11.1,11.1,0,0,0,.2,3.09A22.74,22.74,0,0,0,414.24,418.87Zm16.26-7.33,4.36-2v-6.47l-2.62,1.19-4.62,2.13-2,.94v3.09c0,2.34.06,3.09.26,3.09S428.11,412.63,430.5,411.54Zm-30.92-5.6c3.15-1.39,2.87-1,2.87-4.52a15.61,15.61,0,0,0-.15-3.08c-.08,0-2.16.9-4.61,2l-4.46,2v6.44l2.21-1,4.15-1.85Zm52.56-4.28,1.38-.63v-3.21c0-2.87,0-3.2-.33-3.08l-2.26,1-1.93.86V403l.87-.38Zm-7.69-3,4.36-2v-6.47L447,391l-4.56,2.1-2.77,1.28-.06,3.12c0,2.42,0,3.12.21,3.12s2.22-.89,4.62-2ZM404.86,397l2.1-1v-6.49l-1.18.53-2.26,1-1.08.49v3.18a16.71,16.71,0,0,0,.15,3.18c.08,0,1.1-.43,2.26-1Zm14.23-6.54,4.49-2,1.95-.88.06-3.23a14,14,0,0,0-.12-3.16l-4.62,2.1-4.45,2v3.15c0,1.73,0,3.15.07,3.15s1.22-.51,2.62-1.14Zm-18.64-4.58,1.79-.83v-6.37l-.46.18c-.25.1-1.27.55-2.26,1l-1.79.83V387l.46-.18c.25-.1,1.27-.55,2.26-1Zm34.63-2.66,4.4-2,.06-3.21c0-1.77,0-3.21,0-3.21s-2.09.92-4.57,2l-4.51,2L430.4,382a14.91,14.91,0,0,0,.12,3.19c.09,0,2.15-.91,4.57-2ZM405.17,377l1.79-.83V373a27.29,27.29,0,0,0-.09-3.19c-.05,0-1.07.46-2.26,1l-2.16,1v6.38l.46-.18C403.17,377.95,404.18,377.49,405.17,377Zm9-10.71,2-.9V359l-2.1,1-2.1,1-.06,3.23a15.13,15.13,0,0,0,.1,3.15l2.16-1Zm32.63-21.51,2-.91v-3a26.69,26.69,0,0,0-.09-3s-1,.41-2.1.91l-2,.91-.06,3.11a12.81,12.81,0,0,0,.12,3l2.16-1ZM362.92,449.66l-2.1-1V435.49l2.2,1,2.21,1,.05,6.57c0,3.61,0,6.56-.1,6.55s-1.1-.45-2.26-1Zm-18.27-8.43a21.65,21.65,0,0,1-2.31-1.18,15,15,0,0,1-.14-3.28l.06-3.09,2.31,1,2.31,1V439c0,1.79,0,3.24-.05,3.24l-2.17-1Zm8.84-2.47-2.1-1v-3.19a10.56,10.56,0,0,1,.21-3.19,22.14,22.14,0,0,1,2.36,1l2.15,1v3.23c0,2.45-.06,3.23-.26,3.22a19.06,19.06,0,0,1-2.36-1Zm28-.42-2.15-1-.06-3.19a12.31,12.31,0,0,1,.13-3.19,21.52,21.52,0,0,1,2.26,1l2.07,1v3.25c0,1.79,0,3.24-.05,3.23l-2.2-1ZM335,436.9l-2.1-1v-6.52l-2.31-1.11-2.31-1.11-.06-3.25a13.73,13.73,0,0,1,.12-3.18l2.36,1.08,2.19,1v6.49l1.69.77c.93.43,2,.91,2.31,1.08l.62.31.06,3.23c0,2.52,0,3.23-.21,3.22a19.53,19.53,0,0,1-2.36-1ZM367.43,432l-2.1-1v-3.23a17,17,0,0,1,.15-3.22c.08,0,1.12.45,2.31,1l2.15,1,.06,3.21c0,2.5,0,3.21-.21,3.2a20.89,20.89,0,0,1-2.36-1Zm-46.15-1.52-2.31-1v-3.15c0-2.38.06-3.15.26-3.15a17.78,17.78,0,0,1,2.36,1l2.1,1v3.24c0,1.78,0,3.24-.05,3.23l-2.36-1.06ZM349.12,417,347,416l-.06-3.28-.06-3.29.88.38,2.26,1,1.38.63v3.29c0,1.81,0,3.28-.05,3.28l-2.21-1Zm27.79-.36a14.39,14.39,0,0,1-2.2-1.16c-.26-.36-.19-6.26.07-6.26a20.05,20.05,0,0,1,2.36,1l2.13,1v3.24a16.94,16.94,0,0,1-.15,3.22c-.08,0-1.08-.44-2.21-1Zm-60.46-1.43-2-.94V411c0-1.79,0-3.25.08-3.25s1.06.46,2.26,1l2.18,1V413c0,2.42-.06,3.18-.26,3.17a19.46,19.46,0,0,1-2.26-1Zm23-9.22L335,404l-1.95-.87-.06-3.21a14.13,14.13,0,0,1,.13-3.21c.17,0,1.38.53,6.7,2.91l2.1.93c.2.08.26-.62.26-3.1a14.76,14.76,0,0,1,.18-3.2,24.91,24.91,0,0,1,2.36,1l2.18,1v6.56l-.46-.18c-.25-.1-1.28-.56-2.28-1s-1.85-.84-1.89-.84-.1,1.42-.13,3.15L342,407.1,339.48,406Zm14.2-6.63-2.1-1v-3.19a16.77,16.77,0,0,1,.15-3.19c.08,0,1.1.43,2.26,1l2.1,1v3.24a17,17,0,0,1-.15,3.23C355.86,400.37,354.84,399.91,353.69,399.36Zm-32.41-1.59-2.1-1v-6.64l2.26,1,2.26,1v3.25a17.13,17.13,0,0,1-.15,3.24c-.08,0-1.1-.44-2.26-1h0Zm41.65-7.36-2.09-.95-.06-3.25c0-2.11,0-3.22.14-3.17l2.31,1.06,2.1,1v3.15a16.21,16.21,0,0,1-.15,3.14C365.09,391.36,364.08,390.93,362.93,390.41Zm13.94-.07-2.1-1-.06-3.34-.06-3.34-2.3-1-2.3-1v-3.23c0-1.78,0-3.23.06-3.23s2.07.92,4.53,2.05,4.5,2.05,4.55,2.05a29.7,29.7,0,0,0,.09-3.18,16.7,16.7,0,0,1,.15-3.18c.08,0,1.1.43,2.26,1l2.1,1V377c0,1.78,0,3.24-.08,3.24s-1-.42-2.07-.92a20,20,0,0,0-2.18-.92,49.29,49.29,0,0,0-.19,6.46c0,3.55-.07,6.45-.15,6.45s-1.1-.46-2.25-1Zm-29.59-7.1c-2.09-1-4.26-1.94-4.82-2.16s-1.88-.79-2.92-1.25l-1.9-.84v-6.66l4.45,2c2.45,1.12,4.52,2,4.62,2a14.93,14.93,0,0,0,.12-3.2l-.06-3.2-4.2-1.93c-2.31-1.06-5-2.34-6.07-2.84s-2.25-1.06-2.72-1.25l-.85-.34V344.14l.47.12a23.47,23.47,0,0,1,2.26.94l1.79.83v13.13l2,.93c1.1.51,2.2,1,2.46,1l.46.12.06-3.18.06-3.18,2.15,1,2.15,1,.05,6.59.05,6.59,1.93.9c3.11,1.44,2.78,1.68,2.78-2a31.76,31.76,0,0,1,.08-3.19s1.06.46,2.26,1l2.18,1v6.52l2.26,1,2.26,1v3.19a16.74,16.74,0,0,1-.15,3.19c-.09,0-2.07-.88-4.41-1.95s-4.3-1.95-4.36-1.95a23.94,23.94,0,0,0-.1,3.08c0,2.33-.06,3.07-.26,3.07s-2-.8-4.05-1.76ZM363,377.36l-2.21-1v-3.15a19,19,0,0,1,.13-3.15c.07,0,1,.42,2.15.92a19,19,0,0,0,2.23.92c.14,0,.21-1.12.21-3.18a27.1,27.1,0,0,1,.09-3.18c.05,0,1.07.46,2.26,1l2.16,1v3.21c0,3.71.3,3.46-2.57,2.14a15.69,15.69,0,0,0-1.94-.81,12,12,0,0,0-.25,3.15l-.06,3.15-2.2-1Zm-46.36-1.42-2.21-1v-6.56c0-5.94,0-6.54.33-6.43l2.26,1,1.93.86v6.63c0,3.64,0,6.62-.05,6.61Zm13.79-6.83-1.95-.9-.06-3.29-.06-3.29,1.18.54,2.26,1,1.08.49v3.18c0,2.42-.06,3.18-.26,3.17A18.18,18.18,0,0,1,330.46,369.11Zm-2.51-7.8c-.06-.06-2-1-4.39-2l-4.28-1.93-.06-3.19a26.57,26.57,0,0,1,0-3.19c.05,0,1.19.49,2.52,1.09l4.42,2,2,.89v3.24c0,1.78,0,3.24-.07,3.24a.38.38,0,0,1-.18-.11ZM312,354l-2.1-1v-6.37l.87.38,2.26,1,1.38.63v3.19a16.47,16.47,0,0,1-.15,3.18C314.22,355,313.2,354.59,312,354Zm4.51-4.48-2.1-1v-3.23c0-1.78,0-3.23.08-3.23s1.06.46,2.26,1l2.18,1v3.19a16.43,16.43,0,0,1-.15,3.17c-.08,0-1.1-.45-2.26-1Z" transform="translate(-309.74 -302.39)" style="fill:#5b422d"/><path d="M388.5,456.8c0-3.5,0-6.36-.08-6.36s-1.06.46-2.26,1l-2.18,1V439.24l1.79-.79c3-1.32,2.72-.85,2.72-4.59v-3.24l2.26-1,2.26-1v-13l-.87.38-2.26,1-1.38.63v-9.84c0-5.41,0-9.84-.1-9.84s-.88.36-1.84.81c-2.87,1.33-2.57,1.58-2.57-2.18v-3.24l1.86-.82c2.87-1.26,2.64-.87,2.64-4.43a13.64,13.64,0,0,0-.18-3.07,20.91,20.91,0,0,0-2.15.92c-1.09.51-2,.92-2.08.92a27.31,27.31,0,0,1-.11-3.38,14,14,0,0,1,.19-3.38,21.28,21.28,0,0,0,2.26-1l2.06-1v-6.71l2.18-1c1.2-.56,2.22-1,2.26-1s.07,1.48.07,3.28a14,14,0,0,0,.19,3.28c.19,0,4.34-1.83,4.53-2a30.25,30.25,0,0,0,.21-3.37l.1-3.28,1.88-.85c1-.47,3-1.36,4.46-2l2.58-1.13V360c0-3.29,0-3.34-.42-3.21-.23.07-2,.87-3.95,1.78s-3.83,1.77-4.2,1.92l-.67.28.06-3.19.06-3.19,4.48-2c2.47-1.12,4.57-2,4.67-2a12.43,12.43,0,0,1,.18,3c0,2.67,0,3,.33,2.87l2.25-1,1.92-.86.06-3.17.06-3.17,2.36-1.08,2.36-1.08.06,3.06c0,1.68.09,3.06.13,3.06s1-.42,2.06-.92a15.45,15.45,0,0,1,2.27-.92,15.49,15.49,0,0,0,2.27-.92,20.91,20.91,0,0,1,2.17-.92,14.79,14.79,0,0,1,.18,3.23v3.23l-2.26,1-2.26,1v6.5l1.08-.48,4.48-2c1.87-.86,3.51-1.57,3.64-1.57s.24.88.24,3.08a27.2,27.2,0,0,0,.09,3.08s1-.41,2.1-.91l2-.91.06-3.29a14.24,14.24,0,0,1,.25-3.29,23.13,23.13,0,0,0,2.35-1l2.16-1V341.74l-1.59.74c-.87.41-2.14,1-2.82,1.21s-2,.84-3,1.3l-1.79.83v-6.24l1.69-.76c4.81-2.15,13.23-6,18-8.3,1.51-.72,3-1.36,3.23-1.43l.48-.12v3.1a22.94,22.94,0,0,0,.11,3.1c.06,0,1-.42,2.08-.92s2-.92,2-.92.05,5.91,0,13.14l-.05,13.14-2.15,1-2.15,1-.05,6.65-.05,6.65-2.25,1-2.25,1v6.48l2-.93c1.1-.51,2.42-1.1,2.92-1.3s1.64-.7,2.51-1.1l1.59-.73v6.67l-2.06.91a14.47,14.47,0,0,0-2.25,1.14,17.48,17.48,0,0,0-.25,3.38l-.06,3.15-2.15,1-2.15,1-.06-3.16c0-2.33-.12-3.15-.31-3.15s-2.24.91-4.66,2l-4.41,2-.05,6.49a46.92,46.92,0,0,0,.14,6.49,19.82,19.82,0,0,0,2.18-.92,20.88,20.88,0,0,1,2.17-.92,14.46,14.46,0,0,1,.18,3.19c0,3.69-.3,3.45,2.57,2.12,1-.44,1.79-.81,1.84-.81a26.86,26.86,0,0,1,.1,3.24v3.24l-2.26,1-2.26,1V425l.87-.38,2.28-1c.77-.35,1.44-.64,1.49-.64a30.42,30.42,0,0,1,.08,3.17v3.17l.46-.18c.25-.1,2.25-1,4.43-2s4-1.87,4.05-1.87a30.71,30.71,0,0,1,.09,3.25v3.25l-4.61,2.06-4.61,2.06-.06-3.14-.06-3.14-4.56,2.07-4.56,2.07v6.39L435,442.15l-4.56,2.06-.06-3c0-2.32-.12-3-.32-3s-4.84,2.08-10.9,4.92c-1,.48-2.31,1-2.87,1.23s-1.83.74-2.82,1.2l-1.79.83v6.4l-2.16,1a22.51,22.51,0,0,1-2.36,1,11,11,0,0,1-.2-3.08,29.5,29.5,0,0,0-.08-3.08s-1.06.46-2.26,1l-2.18,1v-3.29c0-3.82.33-3.56-2.78-2.12l-1.93.9-.06,3.33-.06,3.33-2.31,1-2.31,1v6.39l-2.1,1c-1.16.53-2.17,1-2.26,1s-.15-2.86-.15-6.36h0Zm2.44-7.58,2.07-.92v-6.45l-2.21,1-2.21,1-.06,3.21a11.49,11.49,0,0,0,.13,3.14Zm5.92-9.25.87-.38V436.4a16.74,16.74,0,0,0-.15-3.19c-.08,0-1.1.43-2.26,1l-2.1,1v6.46l1.38-.63,2.26-1Zm19.07-2.16,3.49-1.63,1.49-.68v-6.37l-.46.18c-.25.1-1.27.55-2.26,1l-1.79.83v-3.27a26.7,26.7,0,0,0-.1-3.27c-.06,0-1,.42-2.16.92a20.53,20.53,0,0,1-2.26.92,10.4,10.4,0,0,1-.2-3.14v-3.14l2.31-1,2.31-1,.06,3.14a26,26,0,0,0,.15,3.14c.12,0,3.76-1.65,5.23-2.37.62-.31,2.33-1.08,3.79-1.72s4.17-1.84,6-2.68l3.33-1.51v-1.57c0-.86.06-3.8.14-6.53.11-4.19.09-5-.15-4.95s-2.27.91-4.7,2l-4.41,2-.1,3.44-.1,3.44-2.22,1c-1.22.55-2.26,1-2.3,1s-.1-1.47-.14-3.26l-.06-3.26-2.05.91-4.56,2.05-2.51,1.14-.06,3.28-.06,3.28-2.15,1-2.15,1-.06-3.15c0-2.09-.13-3.15-.28-3.15s-8.81,3.86-9.05,4.09c-.09.08-.13,3.06-.1,6.61l.05,6.47,2.15-1c1.18-.54,2.22-1,2.3-1a16.91,16.91,0,0,1,.21,3.16l.06,3.17,2.77-1.23,4.51-2,1.74-.8.06,3.25.06,3.25,1.12-.5c.62-.27,2-.92,3.12-1.45Zm18.05-8.1.87-.38V426c0-3,0-3.3-.33-3.18l-2.26,1-1.93.86v6.67l1.38-.63,2.26-1Zm-32.87-18,1.23-.6.06-3.29.06-3.29,2.2-1c1.21-.54,2.27-1,2.35-1a16.6,16.6,0,0,1,.15,3.17V409l2.26-1,2.26-1v-6.43c0-3.54-.06-6.43-.13-6.43s-1,.42-2.15.92-2.06.92-2.12.92a23.08,23.08,0,0,1-.11-3.18c0-2.06-.08-3.18-.21-3.18a19,19,0,0,0-2.23.92c-1.11.51-2.07.92-2.15.92s-.13-2.91-.13-6.46v-6.46l-.47.18c-.78.3-8.44,3.95-8.61,4.1s-.13,3-.1,6.53l.05,6.39,4.41-2a43.7,43.7,0,0,1,4.56-1.93c.28.17.18,6.15-.1,6.37s-2.15,1.06-4.46,2.11-4.32,2-4.46,2.11c-.32.25-.37,6.51-.05,6.51a20.54,20.54,0,0,0,2.26-.92c1.13-.51,2.1-.92,2.16-.92a25.08,25.08,0,0,1,.1,3.18v3.18l1.08-.48c.59-.26,1.63-.75,2.31-1.07ZM431.32,398l3.53-1.6.06-3.29c.06-3.79-.3-3.21,2.88-4.64l1.79-.81v-6.46c0-3.55-.06-6.46-.14-6.46s-2.16.9-4.62,2l-4.47,2V392L428,393.11l-2.36,1.11v6.37l1.08-.48,4.61-2.08Zm-7.07-3.35,1.38-.63v-6.47a63.71,63.71,0,0,0-.17-6.47c-.23,0-8.72,3.88-8.92,4.08a19.07,19.07,0,0,0-.1,3.35l.06,3.19,2.22-1c1.22-.55,2.26-1,2.31-1a30.1,30.1,0,0,1,.08,3.17v3.17l.87-.38,2.26-1ZM410.09,388l1.59-.73v-6.47c0-3.56,0-6.47-.08-6.47s-1.06.46-2.26,1l-2.18,1v12.95l.67-.29,2.26-1Zm-19.25-4.43,2.18-1v-3.09a25.62,25.62,0,0,0-.09-3.09c-.17,0-3.9,1.71-4.16,1.91s-.26,1-.26,3.24a29,29,0,0,0,.08,3.05s1.06-.46,2.26-1Zm55.84-5.68,2.13-1v-6.5l-.67.29-2.26,1-1.59.73v3.18a20.57,20.57,0,0,0,.12,3.18C444.49,378.85,445.51,378.42,446.68,377.9ZM405.17,377l1.79-.83V373a27.29,27.29,0,0,0-.09-3.19c-.05,0-1.07.46-2.26,1l-2.16,1v6.38l.46-.18C403.17,377.95,404.18,377.49,405.17,377Zm32.48-8.28,1.93-.86v-6.26l-.87.38-2.26,1-1.38.63v3.11c0,2.77,0,3.09.33,3l2.26-1Zm-23.46-2.43,2-.9V359l-2.1,1-2.1,1-.06,3.23a15.13,15.13,0,0,0,.1,3.15Zm32.69-1.67,1.93-.86v-6.46l-2.26,1-2.26,1v3.17c0,2.83,0,3.15.33,3Zm-.06-19.84,2-.91v-3a26.69,26.69,0,0,0-.09-3s-1,.41-2.1.91l-2,.91-.06,3.11a12.81,12.81,0,0,0,.12,3l2.16-1Zm2,61.61.06-3.24,2.31-1,2.31-1v-6.7l.87-.38,2.26-1,1.38-.63v13.21l-4.29,1.9-4.62,2c-.29.11-.32-.22-.27-3.11Z" transform="translate(-309.74 -302.39)" style="fill:#3b6121"/><path d="M388.5,456.8c0-3.5,0-6.36-.08-6.36s-1.06.46-2.26,1l-2.18,1V439.24l1.79-.79c3-1.32,2.72-.85,2.72-4.59v-3.24l2.26-1,2.26-1v-13l-.87.38-2.26,1-1.38.63v-9.84c0-5.41,0-9.84-.1-9.84s-.88.36-1.84.81c-2.87,1.33-2.57,1.58-2.57-2.18v-3.24l1.86-.82c2.87-1.26,2.64-.87,2.64-4.43a13.64,13.64,0,0,0-.18-3.07,20.91,20.91,0,0,0-2.15.92c-1.09.51-2,.92-2.09.92a25.05,25.05,0,0,1-.05-3.32l.06-3.32,2.15-1,2.15-1,.06-3.3.06-3.3,2.17-1c1.19-.56,2.21-1,2.25-1a31.32,31.32,0,0,1,.08,3.18c0,2,.08,3.18.21,3.18s2.12-.89,4.46-2l4.52-2.08c.21-.08.25.58.21,3.2l-.06,3.3-2.87,1.35-4.56,2.15-1.69.79v6.46c0,6.07,0,6.46.36,6.33s2.2-1,4.46-2a37.79,37.79,0,0,1,4.26-1.79c.28.17.18,6.15-.1,6.37s-2.15,1.06-4.46,2.11-4.32,2-4.46,2.11c-.32.25-.37,6.51-.05,6.51a20.56,20.56,0,0,0,2.26-.92c1.13-.51,2.1-.92,2.15-.92a26.33,26.33,0,0,1,.15,3.16l.06,3.16,2.05-.92a23.89,23.89,0,0,0,2.31-1.13c.19-.15.26-1.1.26-3.42v-3.21l2.2-1c1.21-.54,2.27-1,2.36-1a16.59,16.59,0,0,1,.15,3.17V409l2.26-1,2.26-1v-6.43c0-3.54-.06-6.43-.13-6.43s-1,.42-2.15.92-2.06.92-2.12.92a23.08,23.08,0,0,1-.11-3.18c0-2.06-.08-3.18-.21-3.18a19,19,0,0,0-2.23.92c-1.11.51-2.07.92-2.15.92s-.13-2.91-.13-6.47v-6.47l2.26-1,2.26-1V356.67l2.16-1a22.49,22.49,0,0,1,2.36-1,45.64,45.64,0,0,1,.2,6.48c0,5.11.05,6.46.26,6.38l2.36-1.08,2.1-1v-6.53l2.18-1a15.42,15.42,0,0,1,2.26-.94s.1,3,.13,6.47.11,6.39.18,6.39,1.11-.46,2.31-1l2.18-1v-6.52l2.1-1,2.36-1.08c.2-.08.26.62.26,3.1a17,17,0,0,0,.15,3.2c.08,0,1.1-.43,2.26-1l2.1-1V357.1l2.35-1.11,2.35-1.11.06-3.3.06-3.3,2.23-1c1.23-.56,2.26-1,2.31-1s.08,1.43.08,3.18a16.6,16.6,0,0,0,.15,3.18c.08,0,2.14-.91,4.56-2l4.41-2,.06-3.33.06-3.33.87-.38,2.25-1,1.39-.63-.05,9.85-.05,9.85-2.15,1-2.15,1-.05,6.65-.05,6.65-2.26,1-2.25,1v6.48l2-.93c1.1-.51,2.42-1.1,2.92-1.3s1.64-.7,2.51-1.1l1.59-.73v6.67l-2.06.91a14.49,14.49,0,0,0-2.25,1.14,17.49,17.49,0,0,0-.25,3.38l-.06,3.15-2.15,1-2.15,1-.06-3.16c0-2.33-.12-3.15-.31-3.15s-2.24.91-4.66,2l-4.41,2-.05,6.49a46.94,46.94,0,0,0,.14,6.49,19.79,19.79,0,0,0,2.18-.92,20.93,20.93,0,0,1,2.17-.92,14.43,14.43,0,0,1,.18,3.19c0,3.69-.3,3.45,2.57,2.12,1-.44,1.79-.81,1.84-.81a26.89,26.89,0,0,1,.1,3.24v3.24l-2.26,1-2.26,1V425l.87-.38,2.28-1c.77-.35,1.44-.64,1.49-.64a30.38,30.38,0,0,1,.08,3.17v3.17l.46-.18c.25-.1,2.25-1,4.43-2s4-1.87,4.05-1.87a30.74,30.74,0,0,1,.09,3.25v3.25l-4.61,2.06-4.61,2.06-.06-3.14-.06-3.14-4.56,2.07-4.56,2.07v6.39L435,442.14l-4.56,2.06-.06-3c0-2.32-.12-3-.32-3s-4.84,2.08-10.9,4.92c-1,.48-2.31,1-2.87,1.23s-1.83.74-2.82,1.2l-1.8.83v6.4l-2.16,1a22.5,22.5,0,0,1-2.36,1,11,11,0,0,1-.2-3.08,29.5,29.5,0,0,0-.08-3.08s-1.06.46-2.26,1l-2.18,1v-3.29c0-3.82.33-3.56-2.78-2.12l-1.93.9-.06,3.33-.06,3.33-2.31,1-2.31,1v6.39l-2.1,1c-1.16.53-2.17,1-2.26,1s-.15-2.86-.15-6.36h0Zm2.44-7.58,2.07-.92v-6.45l-2.21,1-2.21,1-.06,3.21a11.49,11.49,0,0,0,.13,3.14Zm5.92-9.25.87-.38V436.4a16.74,16.74,0,0,0-.15-3.19c-.08,0-1.1.43-2.26,1l-2.1,1v6.46l1.38-.63,2.26-1Zm19.07-2.16,3.49-1.63,1.49-.68v-6.37l-.46.18c-.25.1-1.27.55-2.26,1l-1.79.83v-3.27a26.7,26.7,0,0,0-.1-3.27c-.06,0-1,.42-2.16.92a20.53,20.53,0,0,1-2.26.92,10.4,10.4,0,0,1-.2-3.14v-3.14l2.31-1,2.31-1,.06,3.14a26,26,0,0,0,.15,3.14c.12,0,3.76-1.65,5.23-2.37.62-.31,2.33-1.08,3.79-1.72s4.17-1.84,6-2.68l3.33-1.51v-1.57c0-.86.06-3.8.14-6.53.11-4.19.09-5-.15-4.95s-2.27.91-4.7,2l-4.41,2-.1,3.44-.1,3.44-2.22,1c-1.22.55-2.26,1-2.3,1s-.1-1.47-.14-3.26l-.06-3.26-2.05.91-4.56,2.05-2.51,1.14-.06,3.28-.06,3.28-2.15,1-2.15,1-.06-3.15c0-2.09-.13-3.15-.28-3.15s-8.81,3.86-9.05,4.09c-.09.08-.13,3.06-.1,6.61l.05,6.47,2.15-1c1.18-.54,2.22-1,2.3-1a16.91,16.91,0,0,1,.21,3.16l.06,3.17,2.77-1.23,4.51-2,1.74-.8.06,3.25.06,3.25,1.12-.5c.62-.27,2-.92,3.12-1.45Zm18.05-8.1.87-.38V426c0-3,0-3.3-.33-3.18l-2.26,1-1.93.86v6.67l1.38-.63,2.26-1ZM431.32,398l3.53-1.6.06-3.29c.06-3.79-.3-3.21,2.88-4.64l1.79-.81v-6.46c0-3.55-.06-6.46-.14-6.46s-2.16.9-4.62,2l-4.47,2V392L428,393.11l-2.36,1.11v6.37l1.08-.48,4.61-2.08Zm-7.07-3.35,1.38-.63v-6.47a63.71,63.71,0,0,0-.17-6.47c-.23,0-8.72,3.88-8.92,4.08a19.07,19.07,0,0,0-.1,3.35l.06,3.19,2.22-1c1.22-.55,2.26-1,2.31-1a30.1,30.1,0,0,1,.08,3.17v3.17l.87-.38,2.26-1ZM410.09,388l1.59-.73v-6.47c0-3.56,0-6.47-.08-6.47s-1.06.46-2.26,1l-2.18,1v12.95l.67-.29,2.26-1Zm-19.25-4.43,2.18-1v-3.09a25.62,25.62,0,0,0-.09-3.09c-.17,0-3.9,1.71-4.16,1.91s-.26,1-.26,3.24a29,29,0,0,0,.08,3.05s1.06-.46,2.26-1Zm55.84-5.68,2.13-1v-6.5l-.67.29-2.26,1-1.59.73v3.18a20.57,20.57,0,0,0,.12,3.18C444.49,378.85,445.51,378.42,446.68,377.9Zm-9-9.14,1.93-.86v-6.26l-.87.38-2.26,1-1.38.63v3.11c0,2.77,0,3.09.33,3l2.26-1Zm9.23-4.1,1.93-.86v-6.46l-2.26,1-2.26,1v3.17c0,2.83,0,3.15.33,3Zm2,41.77.06-3.24,2.31-1,2.31-1v-6.7l.87-.38,2.26-1,1.38-.63v13.21l-4.29,1.9-4.62,2c-.29.11-.32-.22-.27-3.11Z" transform="translate(-309.74 -302.39)" style="fill:#4f3624"/><path d="M393.06,451.53l.06-3.25,1.81-.87a21.69,21.69,0,0,1,2.31-1l.5-.13v6.32l-2.2,1-2.36,1.08a15.35,15.35,0,0,1-.1-3.16Zm13.9-6.32a31.49,31.49,0,0,0-.08-3.18s-1.06.46-2.26,1l-2.18,1V437.5l1.94-.9c3.11-1.44,2.78-1.68,2.78,2v3.18l1.38-.63,2.26-1,.87-.38v6.58l-2.16,1a22.48,22.48,0,0,1-2.36,1,11.7,11.7,0,0,1-.2-3.18Zm9.44-4.31v-3.18l1.95-.91c3.11-1.45,2.79-1.7,2.72,2l-.06,3.22-2.22,1c-1.22.55-2.26,1-2.31,1a30.08,30.08,0,0,1-.08-3.18Zm-27.9-.46v-3.26l1.93-.86,2.26-1c.3-.11.33.22.33,3.13v3.26l-2.07.92-2.26,1a13.14,13.14,0,0,1-.18-3.19h0ZM434.89,433c0-1.49.08-4.46.15-6.59l.13-3.87,2.15-1,2.15-1,.05,6.47a54.78,54.78,0,0,1-.14,6.66,33.55,33.55,0,0,1-4.34,2,9.39,9.39,0,0,1-.16-2.72h0Zm18.64-2.45v-3.16l1.93-.86,2.26-1c.3-.11.33.21.33,3v3.15l-1.9.86c-1,.47-2.06.92-2.26,1s-.36-.1-.36-3Zm-27.9-.36v-3.31l.87-.38,2.26-1,1.38-.63v6.66l-2.07.92-2.26,1a13.49,13.49,0,0,1-.18-3.24Zm-32.36-11.52.06-3.3,2.15-1,2.15-1,.06,3.18a15.32,15.32,0,0,1-.14,3.38,42,42,0,0,1-4.25,2A29.67,29.67,0,0,1,393.27,418.62Zm27.9-6.16.06-3.3,1.95-.89a17.68,17.68,0,0,1,2.21-.9c.19,0,.26.76.26,3.18v3.19l-1.79.83c-1,.46-2,.91-2.26,1l-.47.18Zm-14.2-.09v-3.19l1.18-.52c.65-.29,2.29-1.05,3.64-1.7s2.95-1.39,3.54-1.65l1.08-.46v-6.62l2.21-1c1.21-.54,2.28-1,2.36-1a16.56,16.56,0,0,1,.1,3.23c-.06,3.71.29,3.14-2.88,4.58l-1.79.81v6.37l-3.23,1.56a56,56,0,0,1-6,2.74,13.76,13.76,0,0,1-.19-3.19Zm32.61-1.69v-3.24l2.16-1a22.75,22.75,0,0,1,2.36-1,10.55,10.55,0,0,1,.15,3.2l-.06,3.2-2.22,1c-1.22.55-2.26,1-2.31,1a31.36,31.36,0,0,1-.08-3.24Zm13.95-6.42V401l.87-.38,2.26-1,1.39-.63-.06,3.28-.06,3.28-2.21,1-2.21,1v-3.28h0Zm-65-6.4v-6.61l2.19-1a21.41,21.41,0,0,1,2.24-.92s.08,3,.12,6.52l.07,6.46-.72.35-2.31,1.07-1.59.72v-6.61Zm37.17-7.15.06-3.3,2.15-1a8.25,8.25,0,0,1,2.31-.83,17.41,17.41,0,0,1,.1,3.21l-.06,3.06-1.23.59c-.68.33-1.72.81-2.31,1.08l-1.08.48.06-3.31Zm23.18-4,.06-3.21,2.15-1c1.18-.54,2.22-1,2.31-1a17.09,17.09,0,0,1,.15,3.23V388l-2.16,1a22.57,22.57,0,0,1-2.36,1,10.63,10.63,0,0,1-.15-3.21ZM411.73,384l.06-3.3,4.56-2.07,4.56-2.07V370l-.87.38L416.61,372c-1.41.65-3.58,1.62-4.82,2.16l-3.44,1.51-1.18.53V356.58l1.93-.86,2.26-1c.3-.11.33.48.33,6.36,0,3.57.07,6.48.15,6.47s1.12-.45,2.31-1l2.15-1,.1-3.35.1-3.35,2.15-1,2.15-1,.05,6.45a47.71,47.71,0,0,0,.25,6.45,22.84,22.84,0,0,0,2.36-1l2.16-1v-6.49l2.2-1c1.21-.54,2.27-1,2.35-1a17,17,0,0,1,.21,3.15l.06,3.15,2.15-1,2.15-1,.06,3.16a13.75,13.75,0,0,0,.24,3.16,20.42,20.42,0,0,0,2.17-.92,20.87,20.87,0,0,1,2.17-.92,14.06,14.06,0,0,1,.18,3.15v3.15l-2.1,1-2.35,1.08c-.19.08-.27-.67-.31-3.08l-.06-3.19-4.56,2.08-4.56,2.08v6.43l-2.82,1.29c-1.55.71-4.16,1.93-5.79,2.72-3,1.43-5.11,2.41-5.26,2.41a32.8,32.8,0,0,1,0-3.3ZM384,383.5v-3.15l2.1-1c1.16-.53,2.17-1,2.26-1a16.35,16.35,0,0,1,.15,3.15v3.15l-2.13,1c-1.17.53-2.19,1-2.26,1a20.14,20.14,0,0,1-.12-3.15Zm18.46-1.79v-3.28l.87-.38,2.26-1,1.38-.63V383l-.87.38-2.26,1-1.38.63Zm-9.18-2.37.06-3.2,4.06-1.92c2.23-1.06,4.29-2,4.57-2l.51-.13-.06,3.14-.06,3.14-4.2,2c-2.31,1.08-4.37,2-4.57,2.11s-.36-.07-.31-3.06Zm-4.76-4.49v-3.19l.87-.38,2.26-1,1.38-.63v6.48l-2.1,1c-1.16.53-2.17,1-2.26,1a16.8,16.8,0,0,1-.15-3.19ZM449,360.51c0-2.26-.07-3.2-.23-3.2a17.77,17.77,0,0,0-2.25.92c-1.11.51-2.06.92-2.12.92a24.12,24.12,0,0,1-.16-3.17l-.06-3.17-2.21,1-2.2,1v-6.56l2.18-1c1.2-.56,2.21-1,2.26-1a31.34,31.34,0,0,1,.08,3.18,16.61,16.61,0,0,0,.15,3.18c.08,0,2.14-.9,4.56-2l4.41-2,.06-3.3.06-3.3,2.1-1c1.15-.53,2.17-1,2.25-1a17.23,17.23,0,0,1,.15,3.23v3.23l-2.25,1-2.25,1v13.18l-2.07.92-2.26,1a12.63,12.63,0,0,1-.18-3.13Zm-13.94-.28V357l2.07-.92,2.25-1a13.49,13.49,0,0,1,.18,3.14v3.21l-1.79.83c-1,.46-2,.91-2.26,1l-.46.18Z" transform="translate(-309.74 -302.39)" style="fill:#362518"/></svg>